<svg version="1.1" width="0" height="0" xmlns="http://www.w3.org/2000/svg" >
	<defs>

		<symbol id="email" viewBox="0 0 24 24">
			<path d="M12 12.713l-11.985-9.713h23.97l-11.985 9.713zm0 2.574l-12-9.725v15.438h24v-15.438l-12 9.725z"/>
		</symbol>

		<symbol id="facebook" viewBox="0 0 24 24">
			<path d="M12 0c-6.627 0-12 5.373-12 12s5.373 12 12 12 12-5.373 12-12-5.373-12-12-12zm3 8h-1.35c-.538 0-.65.221-.65.778v1.222h2l-.209 2h-1.791v7h-3v-7h-2v-2h2v-2.308c0-1.769.931-2.692 3.029-2.692h1.971v3z"/>
		</symbol>

		<symbol id="instagram" viewBox="0 0 24 24">
			<path d="M14.829 6.302c-.738-.034-.96-.04-2.829-.04s-2.09.007-2.828.04c-1.899.087-2.783.986-2.87 2.87-.033.738-.041.959-.041 2.828s.008 2.09.041 2.829c.087 1.879.967 2.783 2.87 2.87.737.033.959.041 2.828.041 1.87 0 2.091-.007 2.829-.041 1.899-.086 2.782-.988 2.87-2.87.033-.738.04-.96.04-2.829s-.007-2.09-.04-2.828c-.088-1.883-.973-2.783-2.87-2.87zm-2.829 9.293c-1.985 0-3.595-1.609-3.595-3.595 0-1.985 1.61-3.594 3.595-3.594s3.595 1.609 3.595 3.594c0 1.985-1.61 3.595-3.595 3.595zm3.737-6.491c-.464 0-.84-.376-.84-.84 0-.464.376-.84.84-.84.464 0 .84.376.84.84 0 .463-.376.84-.84.84zm-1.404 2.896c0 1.289-1.045 2.333-2.333 2.333s-2.333-1.044-2.333-2.333c0-1.289 1.045-2.333 2.333-2.333s2.333 1.044 2.333 2.333zm-2.333-12c-6.627 0-12 5.373-12 12s5.373 12 12 12 12-5.373 12-12-5.373-12-12-12zm6.958 14.886c-.115 2.545-1.532 3.955-4.071 4.072-.747.034-.986.042-2.887.042s-2.139-.008-2.886-.042c-2.544-.117-3.955-1.529-4.072-4.072-.034-.746-.042-.985-.042-2.886 0-1.901.008-2.139.042-2.886.117-2.544 1.529-3.955 4.072-4.071.747-.035.985-.043 2.886-.043s2.14.008 2.887.043c2.545.117 3.957 1.532 4.071 4.071.034.747.042.985.042 2.886 0 1.901-.008 2.14-.042 2.886z"/>
		</symbol>

		<symbol id="linkedin" viewBox="0 0 24 24">
			<path d="M12 0c-6.627 0-12 5.373-12 12s5.373 12 12 12 12-5.373 12-12-5.373-12-12-12zm-2 16h-2v-6h2v6zm-1-6.891c-.607 0-1.1-.496-1.1-1.109 0-.612.492-1.109 1.1-1.109s1.1.497 1.1 1.109c0 .613-.493 1.109-1.1 1.109zm8 6.891h-1.998v-2.861c0-1.881-2.002-1.722-2.002 0v2.861h-2v-6h2v1.093c.872-1.616 4-1.736 4 1.548v3.359z"/>
		</symbol>

		<symbol id="location" viewBox="0 0 24 24">
			<path d="M12 1c-3.148 0-6 2.553-6 5.702 0 3.148 2.602 6.907 6 12.298 3.398-5.391 6-9.15 6-12.298 0-3.149-2.851-5.702-6-5.702zm0 8c-1.105 0-2-.895-2-2s.895-2 2-2 2 .895 2 2-.895 2-2 2zm8 6h-3.135c-.385.641-.798 1.309-1.232 2h3.131l.5 1h-4.264l-.344.544-.289.456h.558l.858 2h-7.488l.858-2h.479l-.289-.456-.343-.544h-2.042l-1.011-1h2.42c-.435-.691-.848-1.359-1.232-2h-3.135l-4 8h24l-4-8zm-12.794 6h-3.97l1.764-3.528 1.516 1.528h1.549l-.859 2zm8.808-2h3.75l1 2h-3.892l-.858-2z"/>
		</symbol>

		<symbol id="logo-original" viewBox="0 0 500 500">
			<g fill="#B64926"><path d="M118.444 372.02q0 8.02-7.84 8.02h-6.91q-.86 0-1.51-.31-.64-.3-1.07-.78-.43-.49-.64-1.11-.22-.63-.22-1.31 0-.64.22-1.27.21-.63.66-1.11.45-.48 1.11-.79.66-.3 1.52-.3h7.23q.72 0 1.06-.41.34-.42.34-.88 0-.5-.34-.93-.34-.43-1.06-.43h-3.58q-3.69 0-5.55-1.81-1.86-1.81-1.86-5.67 0-8.09 7.91-8.09h5.59q.89 0 1.57.3t1.15.79q.46.48.7 1.11.23.62.23 1.27 0 .64-.23 1.29-.24.64-.7 1.14-.47.5-1.16.81-.7.3-1.6.3h-6.01q-.72 0-1.04.41-.32.42-.32.92 0 .46.32.87.32.42 1.04.42h3.58q3.76 0 5.58 1.82 1.83 1.83 1.83 5.73zM133.834 358.17v18.54q0 1.72-1.04 2.6-1.03.87-2.43.87-1.43 0-2.45-.87-1.02-.88-1.02-2.6v-18.54q0-1.65 1.02-2.55 1.02-.89 2.45-.89 1.4 0 2.43.89 1.04.9 1.04 2.55zM154.524 361.85h-5.19v3.26h5.19q.72 0 1.08-.54.36-.53.36-1.21 0-.58-.34-1.04-.34-.47-1.1-.47zm0 8.34h-5.19v2.87h5.19q.76 0 1.1-.47.34-.46.34-.96 0-.54-.34-.99-.34-.45-1.1-.45zm-11.85 6.31v-18.16q0-3.5 3.16-3.5h10.99q1.32 0 2.32.55 1.01.56 1.69 1.47.68.91 1.02 2.09.34 1.18.34 2.4 0 2.15-.92 3.78-.91 1.63-2.84 2.06.96.1 1.73.64t1.31 1.4q.54.86.84 1.97.31 1.11.31 2.32 0 1.33-.36 2.51-.36 1.18-1.11 2.08-.75.89-1.95 1.41-1.2.52-2.85.52h-10.35q-3.33 0-3.33-3.54zM186.574 380.04h-11.82q-3.44 0-3.44-3.51v-18.19q0-3.5 3.44-3.5h11.82q1.64 0 2.56 1.03.91 1.04.91 2.47 0 1.44-.91 2.47-.92 1.04-2.56 1.04h-8.35v2.4h6.95q1.5 0 2.34.95.85.95.85 2.24 0 1.29-.85 2.24-.84.94-2.34.94h-6.95v2.44h8.35q1.64 0 2.56 1.02.91 1.02.91 2.45 0 1.43-.91 2.47-.92 1.04-2.56 1.04zM211.304 378.39l-4.22-7.87q-.18-.29-.36-.9-.18-.61-.14-1.32 0-1.36.71-2.17.72-.8 1.97-.8h.5q.9 0 1.44-.51.53-.5.53-1.57 0-.97-.53-1.36-.54-.4-1.65-.4h-3.76v14.97q0 3.58-3.47 3.58-3.51 0-3.51-3.51v-18.19q0-3.5 3.36-3.5h7.52q2.22 0 3.83.66 1.61.66 2.65 1.73 1.04 1.08 1.54 2.46t.5 2.81q0 2.57-1.23 4.36-1.24 1.79-2.99 2.51l3.33 5.23q.68 1.21.68 2.15 0 .75-.32 1.39-.33.65-.86 1.09-.54.45-1.22.7-.68.25-1.36.25-.82 0-1.63-.43-.81-.43-1.31-1.36zM233.434 358.17v18.54q0 1.72-1.04 2.6-1.04.87-2.43.87-1.44 0-2.46-.87-1.02-.88-1.02-2.6v-18.54q0-1.65 1.02-2.55 1.02-.89 2.46-.89 1.39 0 2.43.89 1.04.9 1.04 2.55zM253.374 365.15l-1.83 4.54h3.37l-1.54-4.54zm4.44 12.78l-1-2.76h-7.45l-1.11 2.76q-.5 1.14-1.33 1.7-.82.55-1.71.55-.72 0-1.38-.23-.66-.23-1.2-.66-.54-.43-.86-1.04-.32-.61-.32-1.36 0-.86.25-1.4l8.52-18.68q.43-.94 1.11-1.51.68-.57 2.11-.57 1.36 0 2.06.57t1.09 1.54l7.77 18.65q.25.65.25 1.4 0 .71-.32 1.32-.32.61-.84 1.04-.52.43-1.2.68-.68.25-1.36.25-1.08 0-1.88-.55-.81-.56-1.2-1.7zM285.594 366.18v-8.16q0-1.61.98-2.45.99-.84 2.38-.84 1.33 0 2.31.84.99.84.99 2.45v18.69q0 .82-.29 1.47-.29.64-.73 1.09-.45.45-1.04.68-.59.23-1.24.23-.86 0-1.68-.43t-1.43-1.36l-6.52-9.7v8.2q0 1.61-.98 2.45-.99.84-2.38.84-1.33 0-2.29-.84-.97-.84-.97-2.45v-18.72q0-.79.27-1.44.27-.64.73-1.09.47-.45 1.04-.68.57-.23 1.22-.23.89 0 1.72.41.82.41 1.43 1.34l6.48 9.7zM338.144 369.44l3.08-12.31q.32-1.26 1.13-1.83.8-.57 1.88-.57.64 0 1.25.23t1.09.66q.49.43.77 1.08.29.64.29 1.43 0 .29-.04.61-.03.32-.14.64l-5.8 18.37q-.43 1.25-1.41 1.84-.99.59-1.92.59-1.14 0-2.06-.62-.91-.63-1.34-1.81l-3.33-9.24-3.18 9.24q-.43 1.25-1.42 1.84-.98.59-1.91.59-1.15 0-2.1-.62-.95-.63-1.31-1.81l-6.15-18.51q-.11-.32-.22-.61t-.07-.57q0-.79.3-1.4.31-.61.79-1.04.49-.43 1.11-.66.63-.23 1.27-.23 1.04 0 1.9.55.86.56 1.22 1.81l3.43 12.35 3.26-12.17q.32-1.25 1.24-1.9.91-.64 1.98-.64 1.01 0 1.96.64.94.65 1.27 1.9l3.18 12.17zM371.654 380.04h-11.81q-3.44 0-3.44-3.51v-18.19q0-3.5 3.44-3.5h11.81q1.65 0 2.56 1.03.91 1.04.91 2.47 0 1.44-.91 2.47-.91 1.04-2.56 1.04h-8.34v2.4h6.95q1.5 0 2.34.95.84.95.84 2.24 0 1.29-.84 2.24-.84.94-2.34.94h-6.95v2.44h8.34q1.65 0 2.56 1.02.91 1.02.91 2.45 0 1.43-.91 2.47-.91 1.04-2.56 1.04zM395.744 361.85h-5.19v3.26h5.19q.72 0 1.08-.54.36-.53.36-1.21 0-.58-.34-1.04-.34-.47-1.1-.47zm0 8.34h-5.19v2.87h5.19q.76 0 1.1-.47.34-.46.34-.96 0-.54-.34-.99-.34-.45-1.1-.45zm-11.84 6.31v-18.16q0-3.5 3.15-3.5h10.99q1.32 0 2.32.55 1.01.56 1.69 1.47.68.91 1.02 2.09.34 1.18.34 2.4 0 2.15-.92 3.78-.91 1.63-2.84 2.06.96.1 1.73.64t1.31 1.4q.54.86.84 1.97.31 1.11.31 2.32 0 1.33-.36 2.51-.36 1.18-1.11 2.08-.75.89-1.95 1.41-1.2.52-2.85.52h-10.35q-3.32 0-3.32-3.54zM153.994 412.47q0 8.02-7.84 8.02h-6.91q-.86 0-1.51-.3-.64-.31-1.07-.79-.43-.48-.64-1.11-.22-.62-.22-1.31 0-.64.22-1.27.21-.62.66-1.11.45-.48 1.11-.78.66-.31 1.52-.31h7.23q.72 0 1.06-.41.34-.41.34-.88 0-.5-.34-.93-.34-.43-1.06-.43h-3.58q-3.69 0-5.55-1.8-1.86-1.81-1.86-5.68 0-8.09 7.91-8.09h5.59q.89 0 1.57.3.68.31 1.15.79.46.49.7 1.11.23.63.23 1.27 0 .65-.23 1.29-.24.65-.7 1.15-.47.5-1.17.8-.69.31-1.59.31h-6.01q-.72 0-1.04.41-.32.41-.32.91 0 .47.32.88.32.41 1.04.41h3.58q3.76 0 5.58 1.83 1.83 1.82 1.83 5.72zM162.044 407.89q0-2.68 1-5.01 1.01-2.33 2.76-4.08 1.76-1.76 4.08-2.76 2.33-1 5.01-1 2.69 0 5.03 1 2.35 1 4.09 2.76 1.73 1.75 2.75 4.08t1.02 5.01q0 2.69-1.02 5.01-1.02 2.33-2.75 4.08-1.74 1.76-4.09 2.76-2.34 1-5.03 1-2.68 0-5.01-1-2.32-1-4.08-2.76-1.75-1.75-2.76-4.08-1-2.32-1-5.01zm7.06.11q0 1.22.46 2.27.47 1.06 1.25 1.85.79.78 1.85 1.23 1.05.45 2.27.45t2.27-.45q1.06-.45 1.87-1.23.8-.79 1.27-1.85.46-1.05.46-2.27t-.46-2.29q-.47-1.08-1.27-1.86-.81-.79-1.87-1.26-1.05-.46-2.27-.46t-2.27.46q-1.06.47-1.85 1.26-.78.78-1.25 1.86-.46 1.07-.46 2.29zM206.724 420.49h-7.16q-3.44 0-3.44-3.51v-18.36q0-1.65 1.02-2.54 1.02-.9 2.42-.9t2.44.9q1.03.89 1.03 2.54v14.89h3.69q1.61 0 2.45 1.02.84 1.02.84 2.45 0 1.44-.84 2.48-.84 1.03-2.45 1.03zM238.054 398.62v11.06q0 11.06-10.14 11.06-10.27 0-10.27-11.06v-11.06q0-1.65 1.04-2.54 1.04-.9 2.43-.9 1.43 0 2.45.9 1.03.89 1.03 2.54v12.14q0 3.07 3.25 3.07 3.26 0 3.26-3.07v-12.14q0-.82.29-1.47.28-.64.75-1.07.46-.43 1.09-.66.63-.24 1.31-.24 1.43 0 2.47.9 1.04.89 1.04 2.54zM258.674 402.31v14.85q0 1.72-1.04 2.6-1.04.88-2.47.88-1.4 0-2.42-.88t-1.02-2.6v-14.85h-2.43q-1.65 0-2.56-1.04-.92-1.04-.92-2.47 0-1.43.92-2.47.91-1.04 2.56-1.04h11.74q1.65 0 2.58 1.04.93 1.04.93 2.47 0 1.43-.93 2.47-.93 1.04-2.58 1.04h-2.36zM279.474 398.62v18.54q0 1.72-1.04 2.6-1.04.88-2.44.88-1.43 0-2.45-.88-1.02-.88-1.02-2.6v-18.54q0-1.65 1.02-2.54 1.02-.9 2.45-.9 1.4 0 2.44.9 1.04.89 1.04 2.54zM287.844 407.89q0-2.68 1.01-5.01 1-2.33 2.75-4.08 1.76-1.76 4.08-2.76 2.33-1 5.02-1 2.68 0 5.03 1 2.34 1 4.08 2.76 1.73 1.75 2.75 4.08t1.02 5.01q0 2.69-1.02 5.01-1.02 2.33-2.75 4.08-1.74 1.76-4.08 2.76-2.35 1-5.03 1-2.69 0-5.02-1-2.32-1-4.08-2.76-1.75-1.75-2.75-4.08-1.01-2.32-1.01-5.01zm7.06.11q0 1.22.46 2.27.47 1.06 1.25 1.85.79.78 1.85 1.23 1.05.45 2.27.45t2.28-.45q1.05-.45 1.86-1.23.8-.79 1.27-1.85.46-1.05.46-2.27t-.46-2.29q-.47-1.08-1.27-1.86-.81-.79-1.86-1.26-1.06-.46-2.28-.46-1.22 0-2.27.46-1.06.47-1.85 1.26-.78.78-1.25 1.86-.46 1.07-.46 2.29zM334.814 406.64v-8.16q0-1.61.99-2.46.98-.84 2.38-.84 1.32 0 2.31.84.98.85.98 2.46v18.68q0 .83-.28 1.47-.29.65-.74 1.09-.45.45-1.04.68-.59.24-1.23.24-.86 0-1.68-.43-.83-.43-1.44-1.36l-6.51-9.71v8.2q0 1.61-.99 2.46-.98.84-2.38.84-1.32 0-2.29-.84-.96-.85-.96-2.46v-18.72q0-.79.26-1.43.27-.65.74-1.09.46-.45 1.04-.68.57-.24 1.21-.24.9 0 1.72.41.82.42 1.43 1.35l6.48 9.7zM368.504 412.47q0 8.02-7.84 8.02h-6.91q-.86 0-1.5-.3-.65-.31-1.08-.79-.43-.48-.64-1.11-.22-.62-.22-1.31 0-.64.22-1.27.21-.62.66-1.11.45-.48 1.11-.78.66-.31 1.52-.31h7.23q.72 0 1.06-.41.34-.41.34-.88 0-.5-.34-.93-.34-.43-1.06-.43h-3.58q-3.68 0-5.54-1.8-1.87-1.81-1.87-5.68 0-8.09 7.92-8.09h5.58q.9 0 1.58.3.68.31 1.14.79.47.49.7 1.11.23.63.23 1.27 0 .65-.23 1.29-.23.65-.7 1.15-.46.5-1.16.8-.7.31-1.6.31h-6.01q-.72 0-1.04.41-.32.41-.32.91 0 .47.32.88.32.41 1.04.41h3.58q3.76 0 5.59 1.83 1.82 1.82 1.82 5.72z"/></g><path d="M402.019 457.222h-300.08c-2.159 0-3.598 1.19-3.598 2.975s1.44 2.975 3.598 2.975h299.72c2.159 0 3.598-1.19 3.598-2.975s-1.44-2.975-3.238-2.975z" fill="#b64926"/><g><path d="M271.271 110.298c2.167 0 3.91-1.765 3.91-3.932 0-2.19-1.743-3.955-3.91-3.955-2.144 0-3.887 1.765-3.887 3.955 0 2.167 1.743 3.932 3.887 3.932zM238.943 111.17c2.636 0 4.759-2.145 4.759-4.804s-2.123-4.826-4.759-4.826-4.781 2.167-4.781 4.826 2.145 4.803 4.781 4.803z" fill="#b64926"/><path d="M442.62 262.592a2.232 2.232 0 0 0-3.505-1.023c-.194.154-19.672 15.52-35.854 16.834-14.167 1.177-28.57-9.618-31.66-12.082-1.79-18.582-15.811-36.935-23.42-46.873-2.244-2.929-4.181-5.458-4.621-6.488-2.54-5.818-19.62-21.207-26.488-23.868-4.592-1.776-15.894-10.998-20.664-15.076-.612-9.155-3.085-14.922-8-18.532-3.497-2.565-5.803-8.85-6.784-12.426 2.429-1.54 4.136-3.682 4.768-6.09.443-1.743.396-3.667-.13-5.685-.008-.035-.024-.073-.035-.109l-.016-.05c-.57-2.213-1.758-4.561-3.431-6.858.444-6.294.026-13.13-1.202-20.353.062-.286.071-.588.015-.892 0 0-.12-.632-.449-1.727-2.259-11.414-5.862-20.105-6.827-22.312 2.339-34.453-10.26-39.049-11.712-39.462a2.305 2.305 0 0 0-.98-.054c-8.122 1.37-12.769 14.536-14.4 20.18-5.328-1.346-12.143-.606-15.614-.07-2.592-12.205-8.6-18.041-8.868-18.296a2.235 2.235 0 0 0-2.982-.087c-18.271 15.458-20.059 28.227-21.364 37.55-.558 3.979-1.038 7.417-2.631 10.306-3.271 5.916-3.935 11.698-4.469 16.345-.366 3.19-.681 5.945-1.736 7.652-3.237 5.273-9.58 20.945-.185 30.012 6.256 6.032 4.446 9.169 2.35 12.803l-.567 1c-1.464 2.656-.677 6.246.154 10.046.697 3.182 1.486 6.79.567 8.964-2.14 5.143-4.481 14.135-.111 32.761 3.1 13.146 2.057 24.623 1.452 29.871-11.359-3.432-19.321-2.203-23.11 3.606-5.85 8.948-6.843 25.583-2.049 34.232 2.243 4.048 5.574 6.18 9.643 6.18.082 0 .163 0 .245-.003 7.418-.174 12.77-3.246 15.984-9.084 3.829 1.394 11.733 3.544 20.114 3.544 2.607 0 5.259-.21 7.844-.713 12.174-2.368 12.069-26.356 11.376-37.268 2.654 2.493 5.146 4.482 7.444 5.938-.013 1.07-.069 2.103-.212 3.086-.835 5.86-.543 14.146-.234 22.92.397 11.338.893 25.454-2.042 28.477l-1.104 1.137c-5.337 5.491-8.863 9.12-7.297 15.199.644 2.531 3.725 4.046 9.699 4.767 1.941.233 4.872.398 8.141.398 8.005 0 18.027-.98 20.434-4.305.965-1.03 4.198-5.163 4.285-14.366.056-5.018.967-18.197 2.51-31.307 4.838 6.832 13.902 18.715 20.582 22.147.476 2.065.208 2.677.226 2.692-.025.01-.123.047-.349.054-6.908.275-14.538 5.56-16.327 11.314-1.003 3.221-.027 6.23 2.679 8.255 2.285 1.71 8.32 2.56 18.036 2.56 9.473 0 22.447-.81 38.85-2.435.33-.033.576-.058.77-.076 1.91.606 3.857.925 5.814.925.71 0 1.423-.04 2.134-.12 7.54-.876 13.17-3.227 17.127-7.152 3.063 2.833 9.966 7.927 20.27 8.172 3.859.099 6.743.541 9.288.934 2.323.36 4.459.688 6.858.688 3.72 0 8.093-.804 14.77-3.498 9.194.614 17.087-3.302 25.53-12.594 10.957-12.062 1.864-39.071 1.47-40.215zM261.772 44.015c1.894 1.088 9.204 6.917 8.268 31.077l-1.653-1.23c-.5-4.61-2.326-18.288-6.685-22.197a2.234 2.234 0 0 0-3.28.326c-.17.228-3.498 4.75-4.664 10.525a32.302 32.302 0 0 0-2.34-1.285c1.868-6.653 5.832-15.755 10.354-17.216zm6.146 258.175c-.078 8.262-3.081 11.36-3.083 11.363-.183.17-.235.223-.353.44-1.292 1.283-10.418 2.86-20.371 2.402-6.864-.313-9.464-1.437-9.994-1.913-.81-3.395.885-5.346 6.211-10.824l1.108-1.144c3.973-4.09 3.897-14.723 3.298-31.743-.288-8.193-.585-16.662.192-22.127.232-1.595.32-3.242.268-5.034-.37-12.815-8.192-25.393-9.428-27.306-1.041-2.973.148-4.82 3.883-9.955.833-1.146 1.747-2.4 2.717-3.811 4.124-5.995 28.713-25.57 37.84-32.608a2.234 2.234 0 1 0-2.73-3.539c-1.361 1.05-33.428 25.818-38.792 33.613-.945 1.374-1.837 2.598-2.65 3.715-2.759 3.794-4.94 6.817-5.071 10.342-3.66-1.436-7.98-3.856-12.9-7.238-12.577-8.638-12.876-21.605-12.883-22.152-.009-1.231-1.054-2.158-2.247-2.214a2.232 2.232 0 0 0-2.22 2.248c.004.64.263 15.804 14.818 25.802 6.526 4.486 12.159 7.402 16.79 8.718 1.468 2.377 6.352 10.793 7.925 19.888-2.308-1.807-4.833-4.147-7.476-6.933-6.419-6.655-11.633-13.829-11.685-13.903a2.235 2.235 0 0 0-3.62 2.62c.209.287 4.874 6.708 10.975 13.212-.009.13-.049.252-.033.386 1.019 9.124 1.852 35.577-7.369 37.37-10.058 1.962-21.057-1.045-25.32-2.548 1.263-3.819 1.889-8.443 1.889-14.069a2.234 2.234 0 1 0-4.469 0c0 6.012-.78 10.872-2.323 14.453-2.36 5.538-6.477 8.186-12.96 8.336-2.456.147-4.406-1.214-5.883-3.874-3.975-7.168-3.025-22.116 1.881-29.625 3.767-5.771 14.497-3.081 20.561-.966 4.45 1.555 7.82 3.278 8.472 3.678.757.628 1.87.7 2.714.105a2.237 2.237 0 0 0 .537-3.117c-.798-1.128-5.787-3.192-8.589-4.27.588-4.91 2.058-17.598-1.43-32.372-4.074-17.364-2.015-25.45-.116-30.01 1.466-3.471.514-7.815-.324-11.644-.59-2.694-1.257-5.748-.605-6.933l.527-.925c2.25-3.9 5.648-9.796-3.119-18.25-6.702-6.466-2.294-19.27.885-24.451 1.577-2.55 1.946-5.764 2.373-9.486.514-4.475 1.097-9.55 3.939-14.694 1.993-3.613 2.553-7.612 3.145-11.848 1.23-8.778 2.748-19.632 18.144-33.3 1.816 2.395 5.031 7.616 6.521 15.802a53.925 53.925 0 0 1-2.153 4.147c-.664-5.144-2.103-10.289-2.344-11.127a2.234 2.234 0 0 0-3.369-1.25c-9.951 6.503-11.061 25.679-11.184 30.205-12.261 13.032-5.045 41.573-4.725 42.802a2.234 2.234 0 0 0 4.392-.429c.009-.13.885-13.112 9.739-24.4 4.137-5.272 6.025-5.645 8.418-6.114 2.983-.588 6.363-1.251 12.518-8.391 2.645-3.061 4.558-2.891 5.766-2.498 6.12 2.002 11.71 16.64 11.989 20.116.094 1.186 1.162 2.11 2.292 2.053a2.235 2.235 0 0 0 2.167-2.187c.067-3.293.5-12.672 1.685-16.47.315-1.01.938-2.15 1.742-2.315.44-.094 2.114-.085 5.371 3.725 4.268 5.002 6.211 10.015 7.009 12.643 1.173 6.077 1.745 11.86 1.709 17.263-1.173-1.019-2.408-1.944-3.675-2.705-6.073-3.669-9.598-9.397-9.634-9.453a2.238 2.238 0 0 0-3.067-.753 2.232 2.232 0 0 0-.758 3.063c.163.272 4.098 6.711 11.149 10.97 2.292 1.385 4.506 3.36 6.229 5.558a20.87 20.87 0 0 1 2.015 3.095c-3.057-.043-6.756.272-8.51 1.863-.784.71-1.213 1.66-1.213 2.672 0 2.393 1.879 5 3.69 6.966-3.302.442-6.93-.451-10.219-2.603a2.235 2.235 0 0 0-2.444 3.74 21.029 21.029 0 0 0 7.404 3.036c-9.066 2.795-21.941 1.886-28.537-.303-6.796-2.241-12.39-.657-16.477.502-1.724.49-3.215.912-4.34.927h-.018c-1.91 0-6.462-4.92-9.362-9.354a2.233 2.233 0 0 0-3.092-.648 2.237 2.237 0 0 0-.65 3.092c1.75 2.677 7.844 11.379 13.117 11.379h.071c1.714-.027 3.548-.548 5.492-1.097 3.923-1.11 8.37-2.373 13.856-.559 3.62 1.2 10.141 2.315 17.11 2.315 5.464 0 11.19-.708 16.025-2.576-2.107 3.402-4.875 7.422-8.065 10.963-5.12 5.686-8.62 5.369-12.322 5.027-1.114-.1-2.267-.204-3.418-.132-2.801.165-4.803 1.912-6.743 3.604-1.977 1.724-3.829 3.367-6.532 3.317-4.06-.042-14.091-7.56-19.458-12.288a2.238 2.238 0 0 0-3.152.2 2.232 2.232 0 0 0 .199 3.152c1.548 1.365 15.326 13.331 22.357 13.405h.159c4.298 0 7.104-2.449 9.365-4.422 1.497-1.304 2.79-2.435 4.078-2.51.817-.05 1.75.033 2.741.122 3.972.364 9.43.862 16.048-6.488 4.504-5.002 8.204-10.887 10.516-14.94 1.381 3.807 3.734 8.68 7.322 11.314 3.867 2.842 5.732 7.534 6.215 15.572-8.338 15.07-30.487 34.983-30.713 35.186a2.236 2.236 0 0 0 2.377 3.715c9.77-4.222 13.593-3.465 15.005-2.638.625.366 1.481 1.103 1.704 3.273 1.292 12.645-.138 16.347-2.732 23.07-.74 1.914-1.577 4.086-2.46 6.738a44.61 44.61 0 0 0-1.101 3.934c-.979 4.042-1.915 9.466-2.86 16.584l-.007.052-.009.067c-2.001 14.971-3.201 31.691-3.268 37.556zm7.824-37.905c.596-4.412 1.202-8.203 1.812-11.34 1.816 1.642 4.32 3.61 7.147 5.024a130.438 130.438 0 0 0-.105 4.12l-.009.825c-.045 4.251 2.844 10.674 5.905 17.475.773 1.72 1.541 3.45 2.26 5.13-6.47-6.108-14.28-17.103-17.01-21.234zm71.06 47.525c-2.172.246-4.352-.004-6.495-.744-18.604-6.307-31.327-45.664-31.453-46.059a2.234 2.234 0 1 0-4.258 1.354c.48 1.512 10.724 33.168 27.442 45.295-31.318 2.844-45.195 2.004-47.657.163-1.195-.893-1.53-1.928-1.088-3.35 1.097-3.526 6.801-7.961 12.237-8.178 2.037-.08 3.152-1.045 3.729-1.839 1.548-2.133.898-5.315.277-7.524-1.001-3.537-2.931-7.827-4.976-12.369-2.598-5.78-5.545-12.33-5.51-15.592l.01-.83c.018-1.623.035-3.46.165-5.419.559-8.579 3.04-20.302 18.081-23.06 11.622-2.13 20.867 5.446 29.02 12.133 5.308 4.357 9.895 8.119 14.685 8.984 9.093 1.635 15.123 11.34 16.278 13.342.018.228.038.46.05.684.636 15.11 1.185 28.157-4.73 35.659-3.207 4.082-8.379 6.488-15.807 7.35zm91.046-12.017c-7.587 8.351-14.488 11.772-22.4 11.12-2.247-.19-4.54-.669-7.006-1.464a2.233 2.233 0 0 0-2.813 1.439c-.362 1.121.226 2.299 1.298 2.732-5.085 1.265-8.186.798-12.25.17-2.676-.413-5.712-.88-9.859-.985-9.066-.217-15.145-4.929-17.556-7.192 5.266-8.121 5.224-19.88 4.687-33.448 6.147 4.335 18.703 11.739 31.674 10.695 14.044-1.141 29.592-11.428 35.666-15.831 1.955 7.049 5.854 24.737-1.44 32.764z" fill="#b64926"/></g><g><path d="M72.243 295.928c.204-.078.415-.15.634-.222a16.756 16.756 0 0 1 1.398-.388c.246-.058.499-.112.759-.164l74.85-14.631c.562-.11 1.193-.167 1.85-.174.656-.008 1.342.03 2.019.114.677.082 1.346.208 1.97.372a9.71 9.71 0 0 1 1.704.607l35.04 16.788c.545.26 1.01.537 1.394.821.386.286.69.578.903.866.218.292.346.58.38.855.034.279-.026.543-.186.784a1.54 1.54 0 0 1-.168.209c-.066.067-.14.132-.223.194a2.357 2.357 0 0 1-.279.179 3.314 3.314 0 0 1-.333.162l-78.207 32.986a17.405 17.405 0 0 1-4.234 1.162 18.45 18.45 0 0 1-4.358.122c-1.407-.13-2.728-.433-3.874-.894-1.14-.46-2.1-1.074-2.796-1.833l-31.146-33.95c-.31-.336-.456-.69-.457-1.045-.002-.354.141-.711.41-1.06.267-.345.66-.68 1.16-.996.493-.31 1.096-.603 1.79-.864M151.633 271.176v-43.198l-82.28-9.968v63.134l82.28-9.968M70.635 207.5l80.393 13.047a3.886 3.886 0 0 1 1.658.715c.505.365.955.849 1.332 1.416a7.17 7.17 0 0 1 .886 1.911 7.77 7.77 0 0 1 .323 2.218v45.543c0 .77-.114 1.52-.323 2.217a7.148 7.148 0 0 1-.886 1.912 5.549 5.549 0 0 1-1.332 1.416 3.904 3.904 0 0 1-1.658.714l-80.393 13.047a9.449 9.449 0 0 1-3.565-.08 7.872 7.872 0 0 1-2.984-1.342 6.905 6.905 0 0 1-2.052-2.405 7.043 7.043 0 0 1-.76-3.231v-70.038c0-1.184.27-2.274.76-3.23a6.89 6.89 0 0 1 2.052-2.406 7.87 7.87 0 0 1 2.984-1.342 9.448 9.448 0 0 1 3.565-.082" fill="#b64926"/></g>
		</symbol>

		<symbol id="logo-white" viewBox="0 0 500 500">
			<g fill="#fff"><path d="M118.444 372.02q0 8.02-7.84 8.02h-6.91q-.86 0-1.51-.31-.64-.3-1.07-.78-.43-.49-.64-1.11-.22-.63-.22-1.31 0-.64.22-1.27.21-.63.66-1.11.45-.48 1.11-.79.66-.3 1.52-.3h7.23q.72 0 1.06-.41.34-.42.34-.88 0-.5-.34-.93-.34-.43-1.06-.43h-3.58q-3.69 0-5.55-1.81-1.86-1.81-1.86-5.67 0-8.09 7.91-8.09h5.59q.89 0 1.57.3t1.15.79q.46.48.7 1.11.23.62.23 1.27 0 .64-.23 1.29-.24.64-.7 1.14-.47.5-1.16.81-.7.3-1.6.3h-6.01q-.72 0-1.04.41-.32.42-.32.92 0 .46.32.87.32.42 1.04.42h3.58q3.76 0 5.58 1.82 1.83 1.83 1.83 5.73zM133.834 358.17v18.54q0 1.72-1.04 2.6-1.03.87-2.43.87-1.43 0-2.45-.87-1.02-.88-1.02-2.6v-18.54q0-1.65 1.02-2.55 1.02-.89 2.45-.89 1.4 0 2.43.89 1.04.9 1.04 2.55zM154.524 361.85h-5.19v3.26h5.19q.72 0 1.08-.54.36-.53.36-1.21 0-.58-.34-1.04-.34-.47-1.1-.47zm0 8.34h-5.19v2.87h5.19q.76 0 1.1-.47.34-.46.34-.96 0-.54-.34-.99-.34-.45-1.1-.45zm-11.85 6.31v-18.16q0-3.5 3.16-3.5h10.99q1.32 0 2.32.55 1.01.56 1.69 1.47.68.91 1.02 2.09.34 1.18.34 2.4 0 2.15-.92 3.78-.91 1.63-2.84 2.06.96.1 1.73.64t1.31 1.4q.54.86.84 1.97.31 1.11.31 2.32 0 1.33-.36 2.51-.36 1.18-1.11 2.08-.75.89-1.95 1.41-1.2.52-2.85.52h-10.35q-3.33 0-3.33-3.54zM186.574 380.04h-11.82q-3.44 0-3.44-3.51v-18.19q0-3.5 3.44-3.5h11.82q1.64 0 2.56 1.03.91 1.04.91 2.47 0 1.44-.91 2.47-.92 1.04-2.56 1.04h-8.35v2.4h6.95q1.5 0 2.34.95.85.95.85 2.24 0 1.29-.85 2.24-.84.94-2.34.94h-6.95v2.44h8.35q1.64 0 2.56 1.02.91 1.02.91 2.45 0 1.43-.91 2.47-.92 1.04-2.56 1.04zM211.304 378.39l-4.22-7.87q-.18-.29-.36-.9-.18-.61-.14-1.32 0-1.36.71-2.17.72-.8 1.97-.8h.5q.9 0 1.44-.51.53-.5.53-1.57 0-.97-.53-1.36-.54-.4-1.65-.4h-3.76v14.97q0 3.58-3.47 3.58-3.51 0-3.51-3.51v-18.19q0-3.5 3.36-3.5h7.52q2.22 0 3.83.66 1.61.66 2.65 1.73 1.04 1.08 1.54 2.46t.5 2.81q0 2.57-1.23 4.36-1.24 1.79-2.99 2.51l3.33 5.23q.68 1.21.68 2.15 0 .75-.32 1.39-.33.65-.86 1.09-.54.45-1.22.7-.68.25-1.36.25-.82 0-1.63-.43-.81-.43-1.31-1.36zM233.434 358.17v18.54q0 1.72-1.04 2.6-1.04.87-2.43.87-1.44 0-2.46-.87-1.02-.88-1.02-2.6v-18.54q0-1.65 1.02-2.55 1.02-.89 2.46-.89 1.39 0 2.43.89 1.04.9 1.04 2.55zM253.374 365.15l-1.83 4.54h3.37l-1.54-4.54zm4.44 12.78l-1-2.76h-7.45l-1.11 2.76q-.5 1.14-1.33 1.7-.82.55-1.71.55-.72 0-1.38-.23-.66-.23-1.2-.66-.54-.43-.86-1.04-.32-.61-.32-1.36 0-.86.25-1.4l8.52-18.68q.43-.94 1.11-1.51.68-.57 2.11-.57 1.36 0 2.06.57t1.09 1.54l7.77 18.65q.25.65.25 1.4 0 .71-.32 1.32-.32.61-.84 1.04-.52.43-1.2.68-.68.25-1.36.25-1.08 0-1.88-.55-.81-.56-1.2-1.7zM285.594 366.18v-8.16q0-1.61.98-2.45.99-.84 2.38-.84 1.33 0 2.31.84.99.84.99 2.45v18.69q0 .82-.29 1.47-.29.64-.73 1.09-.45.45-1.04.68-.59.23-1.24.23-.86 0-1.68-.43t-1.43-1.36l-6.52-9.7v8.2q0 1.61-.98 2.45-.99.84-2.38.84-1.33 0-2.29-.84-.97-.84-.97-2.45v-18.72q0-.79.27-1.44.27-.64.73-1.09.47-.45 1.04-.68.57-.23 1.22-.23.89 0 1.72.41.82.41 1.43 1.34l6.48 9.7zM338.144 369.44l3.08-12.31q.32-1.26 1.13-1.83.8-.57 1.88-.57.64 0 1.25.23t1.09.66q.49.43.77 1.08.29.64.29 1.43 0 .29-.04.61-.03.32-.14.64l-5.8 18.37q-.43 1.25-1.41 1.84-.99.59-1.92.59-1.14 0-2.06-.62-.91-.63-1.34-1.81l-3.33-9.24-3.18 9.24q-.43 1.25-1.42 1.84-.98.59-1.91.59-1.15 0-2.1-.62-.95-.63-1.31-1.81l-6.15-18.51q-.11-.32-.22-.61t-.07-.57q0-.79.3-1.4.31-.61.79-1.04.49-.43 1.11-.66.63-.23 1.27-.23 1.04 0 1.9.55.86.56 1.22 1.81l3.43 12.35 3.26-12.17q.32-1.25 1.24-1.9.91-.64 1.98-.64 1.01 0 1.96.64.94.65 1.27 1.9l3.18 12.17zM371.654 380.04h-11.81q-3.44 0-3.44-3.51v-18.19q0-3.5 3.44-3.5h11.81q1.65 0 2.56 1.03.91 1.04.91 2.47 0 1.44-.91 2.47-.91 1.04-2.56 1.04h-8.34v2.4h6.95q1.5 0 2.34.95.84.95.84 2.24 0 1.29-.84 2.24-.84.94-2.34.94h-6.95v2.44h8.34q1.65 0 2.56 1.02.91 1.02.91 2.45 0 1.43-.91 2.47-.91 1.04-2.56 1.04zM395.744 361.85h-5.19v3.26h5.19q.72 0 1.08-.54.36-.53.36-1.21 0-.58-.34-1.04-.34-.47-1.1-.47zm0 8.34h-5.19v2.87h5.19q.76 0 1.1-.47.34-.46.34-.96 0-.54-.34-.99-.34-.45-1.1-.45zm-11.84 6.31v-18.16q0-3.5 3.15-3.5h10.99q1.32 0 2.32.55 1.01.56 1.69 1.47.68.91 1.02 2.09.34 1.18.34 2.4 0 2.15-.92 3.78-.91 1.63-2.84 2.06.96.1 1.73.64t1.31 1.4q.54.86.84 1.97.31 1.11.31 2.32 0 1.33-.36 2.51-.36 1.18-1.11 2.08-.75.89-1.95 1.41-1.2.52-2.85.52h-10.35q-3.32 0-3.32-3.54zM153.994 412.47q0 8.02-7.84 8.02h-6.91q-.86 0-1.51-.3-.64-.31-1.07-.79-.43-.48-.64-1.11-.22-.62-.22-1.31 0-.64.22-1.27.21-.62.66-1.11.45-.48 1.11-.78.66-.31 1.52-.31h7.23q.72 0 1.06-.41.34-.41.34-.88 0-.5-.34-.93-.34-.43-1.06-.43h-3.58q-3.69 0-5.55-1.8-1.86-1.81-1.86-5.68 0-8.09 7.91-8.09h5.59q.89 0 1.57.3.68.31 1.15.79.46.49.7 1.11.23.63.23 1.27 0 .65-.23 1.29-.24.65-.7 1.15-.47.5-1.17.8-.69.31-1.59.31h-6.01q-.72 0-1.04.41-.32.41-.32.91 0 .47.32.88.32.41 1.04.41h3.58q3.76 0 5.58 1.83 1.83 1.82 1.83 5.72zM162.044 407.89q0-2.68 1-5.01 1.01-2.33 2.76-4.08 1.76-1.76 4.08-2.76 2.33-1 5.01-1 2.69 0 5.03 1 2.35 1 4.09 2.76 1.73 1.75 2.75 4.08t1.02 5.01q0 2.69-1.02 5.01-1.02 2.33-2.75 4.08-1.74 1.76-4.09 2.76-2.34 1-5.03 1-2.68 0-5.01-1-2.32-1-4.08-2.76-1.75-1.75-2.76-4.08-1-2.32-1-5.01zm7.06.11q0 1.22.46 2.27.47 1.06 1.25 1.85.79.78 1.85 1.23 1.05.45 2.27.45t2.27-.45q1.06-.45 1.87-1.23.8-.79 1.27-1.85.46-1.05.46-2.27t-.46-2.29q-.47-1.08-1.27-1.86-.81-.79-1.87-1.26-1.05-.46-2.27-.46t-2.27.46q-1.06.47-1.85 1.26-.78.78-1.25 1.86-.46 1.07-.46 2.29zM206.724 420.49h-7.16q-3.44 0-3.44-3.51v-18.36q0-1.65 1.02-2.54 1.02-.9 2.42-.9t2.44.9q1.03.89 1.03 2.54v14.89h3.69q1.61 0 2.45 1.02.84 1.02.84 2.45 0 1.44-.84 2.48-.84 1.03-2.45 1.03zM238.054 398.62v11.06q0 11.06-10.14 11.06-10.27 0-10.27-11.06v-11.06q0-1.65 1.04-2.54 1.04-.9 2.43-.9 1.43 0 2.45.9 1.03.89 1.03 2.54v12.14q0 3.07 3.25 3.07 3.26 0 3.26-3.07v-12.14q0-.82.29-1.47.28-.64.75-1.07.46-.43 1.09-.66.63-.24 1.31-.24 1.43 0 2.47.9 1.04.89 1.04 2.54zM258.674 402.31v14.85q0 1.72-1.04 2.6-1.04.88-2.47.88-1.4 0-2.42-.88t-1.02-2.6v-14.85h-2.43q-1.65 0-2.56-1.04-.92-1.04-.92-2.47 0-1.43.92-2.47.91-1.04 2.56-1.04h11.74q1.65 0 2.58 1.04.93 1.04.93 2.47 0 1.43-.93 2.47-.93 1.04-2.58 1.04h-2.36zM279.474 398.62v18.54q0 1.72-1.04 2.6-1.04.88-2.44.88-1.43 0-2.45-.88-1.02-.88-1.02-2.6v-18.54q0-1.65 1.02-2.54 1.02-.9 2.45-.9 1.4 0 2.44.9 1.04.89 1.04 2.54zM287.844 407.89q0-2.68 1.01-5.01 1-2.33 2.75-4.08 1.76-1.76 4.08-2.76 2.33-1 5.02-1 2.68 0 5.03 1 2.34 1 4.08 2.76 1.73 1.75 2.75 4.08t1.02 5.01q0 2.69-1.02 5.01-1.02 2.33-2.75 4.08-1.74 1.76-4.08 2.76-2.35 1-5.03 1-2.69 0-5.02-1-2.32-1-4.08-2.76-1.75-1.75-2.75-4.08-1.01-2.32-1.01-5.01zm7.06.11q0 1.22.46 2.27.47 1.06 1.25 1.85.79.78 1.85 1.23 1.05.45 2.27.45t2.28-.45q1.05-.45 1.86-1.23.8-.79 1.27-1.85.46-1.05.46-2.27t-.46-2.29q-.47-1.08-1.27-1.86-.81-.79-1.86-1.26-1.06-.46-2.28-.46-1.22 0-2.27.46-1.06.47-1.85 1.26-.78.78-1.25 1.86-.46 1.07-.46 2.29zM334.814 406.64v-8.16q0-1.61.99-2.46.98-.84 2.38-.84 1.32 0 2.31.84.98.85.98 2.46v18.68q0 .83-.28 1.47-.29.65-.74 1.09-.45.45-1.04.68-.59.24-1.23.24-.86 0-1.68-.43-.83-.43-1.44-1.36l-6.51-9.71v8.2q0 1.61-.99 2.46-.98.84-2.38.84-1.32 0-2.29-.84-.96-.85-.96-2.46v-18.72q0-.79.26-1.43.27-.65.74-1.09.46-.45 1.04-.68.57-.24 1.21-.24.9 0 1.72.41.82.42 1.43 1.35l6.48 9.7zM368.504 412.47q0 8.02-7.84 8.02h-6.91q-.86 0-1.5-.3-.65-.31-1.08-.79-.43-.48-.64-1.11-.22-.62-.22-1.31 0-.64.22-1.27.21-.62.66-1.11.45-.48 1.11-.78.66-.31 1.52-.31h7.23q.72 0 1.06-.41.34-.41.34-.88 0-.5-.34-.93-.34-.43-1.06-.43h-3.58q-3.68 0-5.54-1.8-1.87-1.81-1.87-5.68 0-8.09 7.92-8.09h5.58q.9 0 1.58.3.68.31 1.14.79.47.49.7 1.11.23.63.23 1.27 0 .65-.23 1.29-.23.65-.7 1.15-.46.5-1.16.8-.7.31-1.6.31h-6.01q-.72 0-1.04.41-.32.41-.32.91 0 .47.32.88.32.41 1.04.41h3.58q3.76 0 5.59 1.83 1.82 1.82 1.82 5.72z"/></g><path d="M402.019 457.222h-300.08c-2.159 0-3.598 1.19-3.598 2.975s1.44 2.975 3.598 2.975h299.72c2.159 0 3.598-1.19 3.598-2.975s-1.44-2.975-3.238-2.975z" fill="#fff"/><g><path d="M271.271 110.298c2.167 0 3.91-1.765 3.91-3.932 0-2.19-1.743-3.955-3.91-3.955-2.144 0-3.887 1.765-3.887 3.955 0 2.167 1.743 3.932 3.887 3.932zM238.943 111.17c2.636 0 4.759-2.145 4.759-4.804s-2.123-4.826-4.759-4.826-4.781 2.167-4.781 4.826 2.145 4.803 4.781 4.803z" fill="#fff"/><path d="M442.62 262.592a2.232 2.232 0 0 0-3.505-1.023c-.194.154-19.672 15.52-35.854 16.834-14.167 1.177-28.57-9.618-31.66-12.082-1.79-18.582-15.811-36.935-23.42-46.873-2.244-2.929-4.181-5.458-4.621-6.488-2.54-5.818-19.62-21.207-26.488-23.868-4.592-1.776-15.894-10.998-20.664-15.076-.612-9.155-3.085-14.922-8-18.532-3.497-2.565-5.803-8.85-6.784-12.426 2.429-1.54 4.136-3.682 4.768-6.09.443-1.743.396-3.667-.13-5.685-.008-.035-.024-.073-.035-.109l-.016-.05c-.57-2.213-1.758-4.561-3.431-6.858.444-6.294.026-13.13-1.202-20.353.062-.286.071-.588.015-.892 0 0-.12-.632-.449-1.727-2.259-11.414-5.862-20.105-6.827-22.312 2.339-34.453-10.26-39.049-11.712-39.462a2.305 2.305 0 0 0-.98-.054c-8.122 1.37-12.769 14.536-14.4 20.18-5.328-1.346-12.143-.606-15.614-.07-2.592-12.205-8.6-18.041-8.868-18.296a2.235 2.235 0 0 0-2.982-.087c-18.271 15.458-20.059 28.227-21.364 37.55-.558 3.979-1.038 7.417-2.631 10.306-3.271 5.916-3.935 11.698-4.469 16.345-.366 3.19-.681 5.945-1.736 7.652-3.237 5.273-9.58 20.945-.185 30.012 6.256 6.032 4.446 9.169 2.35 12.803l-.567 1c-1.464 2.656-.677 6.246.154 10.046.697 3.182 1.486 6.79.567 8.964-2.14 5.143-4.481 14.135-.111 32.761 3.1 13.146 2.057 24.623 1.452 29.871-11.359-3.432-19.321-2.203-23.11 3.606-5.85 8.948-6.843 25.583-2.049 34.232 2.243 4.048 5.574 6.18 9.643 6.18.082 0 .163 0 .245-.003 7.418-.174 12.77-3.246 15.984-9.084 3.829 1.394 11.733 3.544 20.114 3.544 2.607 0 5.259-.21 7.844-.713 12.174-2.368 12.069-26.356 11.376-37.268 2.654 2.493 5.146 4.482 7.444 5.938-.013 1.07-.069 2.103-.212 3.086-.835 5.86-.543 14.146-.234 22.92.397 11.338.893 25.454-2.042 28.477l-1.104 1.137c-5.337 5.491-8.863 9.12-7.297 15.199.644 2.531 3.725 4.046 9.699 4.767 1.941.233 4.872.398 8.141.398 8.005 0 18.027-.98 20.434-4.305.965-1.03 4.198-5.163 4.285-14.366.056-5.018.967-18.197 2.51-31.307 4.838 6.832 13.902 18.715 20.582 22.147.476 2.065.208 2.677.226 2.692-.025.01-.123.047-.349.054-6.908.275-14.538 5.56-16.327 11.314-1.003 3.221-.027 6.23 2.679 8.255 2.285 1.71 8.32 2.56 18.036 2.56 9.473 0 22.447-.81 38.85-2.435.33-.033.576-.058.77-.076 1.91.606 3.857.925 5.814.925.71 0 1.423-.04 2.134-.12 7.54-.876 13.17-3.227 17.127-7.152 3.063 2.833 9.966 7.927 20.27 8.172 3.859.099 6.743.541 9.288.934 2.323.36 4.459.688 6.858.688 3.72 0 8.093-.804 14.77-3.498 9.194.614 17.087-3.302 25.53-12.594 10.957-12.062 1.864-39.071 1.47-40.215zM261.772 44.015c1.894 1.088 9.204 6.917 8.268 31.077l-1.653-1.23c-.5-4.61-2.326-18.288-6.685-22.197a2.234 2.234 0 0 0-3.28.326c-.17.228-3.498 4.75-4.664 10.525a32.302 32.302 0 0 0-2.34-1.285c1.868-6.653 5.832-15.755 10.354-17.216zm6.146 258.175c-.078 8.262-3.081 11.36-3.083 11.363-.183.17-.235.223-.353.44-1.292 1.283-10.418 2.86-20.371 2.402-6.864-.313-9.464-1.437-9.994-1.913-.81-3.395.885-5.346 6.211-10.824l1.108-1.144c3.973-4.09 3.897-14.723 3.298-31.743-.288-8.193-.585-16.662.192-22.127.232-1.595.32-3.242.268-5.034-.37-12.815-8.192-25.393-9.428-27.306-1.041-2.973.148-4.82 3.883-9.955.833-1.146 1.747-2.4 2.717-3.811 4.124-5.995 28.713-25.57 37.84-32.608a2.234 2.234 0 1 0-2.73-3.539c-1.361 1.05-33.428 25.818-38.792 33.613-.945 1.374-1.837 2.598-2.65 3.715-2.759 3.794-4.94 6.817-5.071 10.342-3.66-1.436-7.98-3.856-12.9-7.238-12.577-8.638-12.876-21.605-12.883-22.152-.009-1.231-1.054-2.158-2.247-2.214a2.232 2.232 0 0 0-2.22 2.248c.004.64.263 15.804 14.818 25.802 6.526 4.486 12.159 7.402 16.79 8.718 1.468 2.377 6.352 10.793 7.925 19.888-2.308-1.807-4.833-4.147-7.476-6.933-6.419-6.655-11.633-13.829-11.685-13.903a2.235 2.235 0 0 0-3.62 2.62c.209.287 4.874 6.708 10.975 13.212-.009.13-.049.252-.033.386 1.019 9.124 1.852 35.577-7.369 37.37-10.058 1.962-21.057-1.045-25.32-2.548 1.263-3.819 1.889-8.443 1.889-14.069a2.234 2.234 0 1 0-4.469 0c0 6.012-.78 10.872-2.323 14.453-2.36 5.538-6.477 8.186-12.96 8.336-2.456.147-4.406-1.214-5.883-3.874-3.975-7.168-3.025-22.116 1.881-29.625 3.767-5.771 14.497-3.081 20.561-.966 4.45 1.555 7.82 3.278 8.472 3.678.757.628 1.87.7 2.714.105a2.237 2.237 0 0 0 .537-3.117c-.798-1.128-5.787-3.192-8.589-4.27.588-4.91 2.058-17.598-1.43-32.372-4.074-17.364-2.015-25.45-.116-30.01 1.466-3.471.514-7.815-.324-11.644-.59-2.694-1.257-5.748-.605-6.933l.527-.925c2.25-3.9 5.648-9.796-3.119-18.25-6.702-6.466-2.294-19.27.885-24.451 1.577-2.55 1.946-5.764 2.373-9.486.514-4.475 1.097-9.55 3.939-14.694 1.993-3.613 2.553-7.612 3.145-11.848 1.23-8.778 2.748-19.632 18.144-33.3 1.816 2.395 5.031 7.616 6.521 15.802a53.925 53.925 0 0 1-2.153 4.147c-.664-5.144-2.103-10.289-2.344-11.127a2.234 2.234 0 0 0-3.369-1.25c-9.951 6.503-11.061 25.679-11.184 30.205-12.261 13.032-5.045 41.573-4.725 42.802a2.234 2.234 0 0 0 4.392-.429c.009-.13.885-13.112 9.739-24.4 4.137-5.272 6.025-5.645 8.418-6.114 2.983-.588 6.363-1.251 12.518-8.391 2.645-3.061 4.558-2.891 5.766-2.498 6.12 2.002 11.71 16.64 11.989 20.116.094 1.186 1.162 2.11 2.292 2.053a2.235 2.235 0 0 0 2.167-2.187c.067-3.293.5-12.672 1.685-16.47.315-1.01.938-2.15 1.742-2.315.44-.094 2.114-.085 5.371 3.725 4.268 5.002 6.211 10.015 7.009 12.643 1.173 6.077 1.745 11.86 1.709 17.263-1.173-1.019-2.408-1.944-3.675-2.705-6.073-3.669-9.598-9.397-9.634-9.453a2.238 2.238 0 0 0-3.067-.753 2.232 2.232 0 0 0-.758 3.063c.163.272 4.098 6.711 11.149 10.97 2.292 1.385 4.506 3.36 6.229 5.558a20.87 20.87 0 0 1 2.015 3.095c-3.057-.043-6.756.272-8.51 1.863-.784.71-1.213 1.66-1.213 2.672 0 2.393 1.879 5 3.69 6.966-3.302.442-6.93-.451-10.219-2.603a2.235 2.235 0 0 0-2.444 3.74 21.029 21.029 0 0 0 7.404 3.036c-9.066 2.795-21.941 1.886-28.537-.303-6.796-2.241-12.39-.657-16.477.502-1.724.49-3.215.912-4.34.927h-.018c-1.91 0-6.462-4.92-9.362-9.354a2.233 2.233 0 0 0-3.092-.648 2.237 2.237 0 0 0-.65 3.092c1.75 2.677 7.844 11.379 13.117 11.379h.071c1.714-.027 3.548-.548 5.492-1.097 3.923-1.11 8.37-2.373 13.856-.559 3.62 1.2 10.141 2.315 17.11 2.315 5.464 0 11.19-.708 16.025-2.576-2.107 3.402-4.875 7.422-8.065 10.963-5.12 5.686-8.62 5.369-12.322 5.027-1.114-.1-2.267-.204-3.418-.132-2.801.165-4.803 1.912-6.743 3.604-1.977 1.724-3.829 3.367-6.532 3.317-4.06-.042-14.091-7.56-19.458-12.288a2.238 2.238 0 0 0-3.152.2 2.232 2.232 0 0 0 .199 3.152c1.548 1.365 15.326 13.331 22.357 13.405h.159c4.298 0 7.104-2.449 9.365-4.422 1.497-1.304 2.79-2.435 4.078-2.51.817-.05 1.75.033 2.741.122 3.972.364 9.43.862 16.048-6.488 4.504-5.002 8.204-10.887 10.516-14.94 1.381 3.807 3.734 8.68 7.322 11.314 3.867 2.842 5.732 7.534 6.215 15.572-8.338 15.07-30.487 34.983-30.713 35.186a2.236 2.236 0 0 0 2.377 3.715c9.77-4.222 13.593-3.465 15.005-2.638.625.366 1.481 1.103 1.704 3.273 1.292 12.645-.138 16.347-2.732 23.07-.74 1.914-1.577 4.086-2.46 6.738a44.61 44.61 0 0 0-1.101 3.934c-.979 4.042-1.915 9.466-2.86 16.584l-.007.052-.009.067c-2.001 14.971-3.201 31.691-3.268 37.556zm7.824-37.905c.596-4.412 1.202-8.203 1.812-11.34 1.816 1.642 4.32 3.61 7.147 5.024a130.438 130.438 0 0 0-.105 4.12l-.009.825c-.045 4.251 2.844 10.674 5.905 17.475.773 1.72 1.541 3.45 2.26 5.13-6.47-6.108-14.28-17.103-17.01-21.234zm71.06 47.525c-2.172.246-4.352-.004-6.495-.744-18.604-6.307-31.327-45.664-31.453-46.059a2.234 2.234 0 1 0-4.258 1.354c.48 1.512 10.724 33.168 27.442 45.295-31.318 2.844-45.195 2.004-47.657.163-1.195-.893-1.53-1.928-1.088-3.35 1.097-3.526 6.801-7.961 12.237-8.178 2.037-.08 3.152-1.045 3.729-1.839 1.548-2.133.898-5.315.277-7.524-1.001-3.537-2.931-7.827-4.976-12.369-2.598-5.78-5.545-12.33-5.51-15.592l.01-.83c.018-1.623.035-3.46.165-5.419.559-8.579 3.04-20.302 18.081-23.06 11.622-2.13 20.867 5.446 29.02 12.133 5.308 4.357 9.895 8.119 14.685 8.984 9.093 1.635 15.123 11.34 16.278 13.342.018.228.038.46.05.684.636 15.11 1.185 28.157-4.73 35.659-3.207 4.082-8.379 6.488-15.807 7.35zm91.046-12.017c-7.587 8.351-14.488 11.772-22.4 11.12-2.247-.19-4.54-.669-7.006-1.464a2.233 2.233 0 0 0-2.813 1.439c-.362 1.121.226 2.299 1.298 2.732-5.085 1.265-8.186.798-12.25.17-2.676-.413-5.712-.88-9.859-.985-9.066-.217-15.145-4.929-17.556-7.192 5.266-8.121 5.224-19.88 4.687-33.448 6.147 4.335 18.703 11.739 31.674 10.695 14.044-1.141 29.592-11.428 35.666-15.831 1.955 7.049 5.854 24.737-1.44 32.764z" fill="#fff"/></g><g><path d="M72.243 295.928c.204-.078.415-.15.634-.222a16.756 16.756 0 0 1 1.398-.388c.246-.058.499-.112.759-.164l74.85-14.631c.562-.11 1.193-.167 1.85-.174.656-.008 1.342.03 2.019.114.677.082 1.346.208 1.97.372a9.71 9.71 0 0 1 1.704.607l35.04 16.788c.545.26 1.01.537 1.394.821.386.286.69.578.903.866.218.292.346.58.38.855.034.279-.026.543-.186.784a1.54 1.54 0 0 1-.168.209c-.066.067-.14.132-.223.194a2.357 2.357 0 0 1-.279.179 3.314 3.314 0 0 1-.333.162l-78.207 32.986a17.405 17.405 0 0 1-4.234 1.162 18.45 18.45 0 0 1-4.358.122c-1.407-.13-2.728-.433-3.874-.894-1.14-.46-2.1-1.074-2.796-1.833l-31.146-33.95c-.31-.336-.456-.69-.457-1.045-.002-.354.141-.711.41-1.06.267-.345.66-.68 1.16-.996.493-.31 1.096-.603 1.79-.864M151.633 271.176v-43.198l-82.28-9.968v63.134l82.28-9.968M70.635 207.5l80.393 13.047a3.886 3.886 0 0 1 1.658.715c.505.365.955.849 1.332 1.416a7.17 7.17 0 0 1 .886 1.911 7.77 7.77 0 0 1 .323 2.218v45.543c0 .77-.114 1.52-.323 2.217a7.148 7.148 0 0 1-.886 1.912 5.549 5.549 0 0 1-1.332 1.416 3.904 3.904 0 0 1-1.658.714l-80.393 13.047a9.449 9.449 0 0 1-3.565-.08 7.872 7.872 0 0 1-2.984-1.342 6.905 6.905 0 0 1-2.052-2.405 7.043 7.043 0 0 1-.76-3.231v-70.038c0-1.184.27-2.274.76-3.23a6.89 6.89 0 0 1 2.052-2.406 7.87 7.87 0 0 1 2.984-1.342 9.448 9.448 0 0 1 3.565-.082" fill="#fff"/></g>
		</symbol>

		<symbol id="logo-phasscode" viewBox="0 0 500 500">
			<g transform="translate(0.000000,500.000000) scale(0.100000,-0.100000)"
			fill="#000000" stroke="none">
			<path d="M2363 3073 c-10 -4 -13 -127 -13 -568 0 -555 0 -564 20 -570 11 -3
			29 -3 40 0 20 6 20 15 20 570 0 504 -2 563 -16 569 -18 7 -33 7 -51 -1z"/>
			<path d="M755 3056 c-16 -7 -40 -24 -52 -37 -44 -48 -53 -90 -53 -235 0 -103
			-4 -144 -16 -169 -17 -37 -66 -65 -113 -65 -29 0 -31 -3 -31 -34 0 -32 1 -34
			46 -39 34 -3 55 -13 78 -36 l31 -31 5 -163 c6 -177 13 -202 70 -250 34 -29 76
			-40 135 -35 37 3 40 5 40 33 0 28 -3 30 -50 37 -38 5 -57 14 -77 38 -27 30
			-28 33 -28 153 -1 176 -16 224 -86 272 l-30 20 30 20 c70 47 85 96 86 272 0
			120 1 123 28 153 20 24 39 33 77 38 47 7 50 9 50 37 0 29 -1 30 -55 32 -30 2
			-68 -3 -85 -11z"/>
			<path d="M1642 3038 c3 -30 7 -33 43 -39 98 -13 109 -35 115 -225 5 -139 7
			-153 30 -187 13 -19 40 -45 60 -56 19 -11 30 -21 23 -21 -22 0 -76 -54 -94
			-95 -15 -32 -19 -65 -19 -168 0 -171 -17 -203 -115 -216 -37 -6 -40 -9 -43
			-40 l-3 -33 69 4 c56 3 76 9 104 30 61 46 72 83 76 253 5 195 16 216 115 233
			38 7 42 10 42 37 0 27 -4 30 -40 36 -97 13 -115 45 -115 211 0 68 -5 143 -11
			167 -21 92 -85 141 -184 141 l-56 0 3 -32z"/>
			<path d="M3137 2994 c-4 -4 -7 -94 -7 -201 0 -186 1 -193 20 -193 18 0 20 7
			20 85 l0 85 100 0 100 0 0 -84 c0 -62 4 -85 14 -89 31 -12 36 16 36 199 0 147
			-3 184 -15 194 -27 22 -35 0 -35 -91 l0 -90 -97 3 -98 3 -5 89 c-5 82 -14 108
			-33 90z"/>
			<path d="M3612 2983 c-28 -53 -134 -365 -128 -378 10 -28 42 0 56 50 l13 45
			87 0 87 0 13 -45 c14 -50 46 -78 56 -50 9 22 -124 382 -143 389 -24 9 -32 7
			-41 -11z m62 -147 c14 -41 26 -79 26 -85 0 -7 -23 -11 -60 -11 -41 0 -60 4
			-60 13 0 20 52 157 60 157 4 0 19 -33 34 -74z"/>
			<path d="M3933 2989 c-43 -13 -65 -49 -65 -102 1 -55 39 -90 117 -108 38 -8
			63 -20 76 -37 24 -31 24 -43 -2 -76 -17 -22 -28 -26 -70 -26 -27 0 -66 7 -85
			15 -55 23 -76 0 -29 -31 64 -42 188 -34 225 13 14 17 20 41 20 73 0 59 -25 84
			-110 110 -94 28 -119 59 -85 106 24 35 68 37 163 9 35 -11 30 32 -5 46 -41 16
			-114 20 -150 8z"/>
			<path d="M4263 2985 c-46 -20 -67 -56 -60 -108 7 -51 30 -72 106 -93 79 -23
			101 -39 101 -74 0 -46 -31 -70 -90 -70 -28 0 -64 7 -81 15 -32 17 -49 13 -49
			-11 0 -18 52 -41 100 -44 81 -6 101 -1 137 35 33 33 35 39 30 82 -6 59 -36 87
			-109 102 -72 16 -98 35 -98 71 0 57 54 80 135 56 55 -17 81 -7 53 20 -31 32
			-123 42 -175 19z"/>
			<path d="M2818 2984 c-5 -4 -8 -92 -8 -195 0 -149 3 -188 14 -192 25 -10 36
			16 36 90 l0 73 66 0 c59 0 68 3 95 29 25 25 29 37 29 85 0 44 -5 61 -24 83
			-23 26 -30 28 -113 31 -48 2 -91 0 -95 -4z m158 -42 c38 -25 41 -112 4 -132
			-10 -5 -41 -10 -69 -10 l-51 0 0 75 0 75 53 0 c28 0 57 -4 63 -8z"/>
			<path d="M970 2651 c-5 -11 -10 -24 -10 -29 0 -5 56 -44 125 -87 68 -43 122
			-81 120 -85 -3 -4 -57 -40 -121 -80 -63 -40 -118 -79 -121 -87 -3 -8 3 -24 14
			-35 l21 -20 148 95 c132 83 149 98 152 124 2 18 -4 35 -15 45 -34 30 -273 178
			-288 178 -8 0 -19 -9 -25 -19z"/>
			<path d="M2890 2398 c-63 -33 -85 -80 -85 -183 0 -94 23 -149 73 -178 43 -25
			130 -26 174 0 53 30 84 113 42 113 -7 0 -20 -15 -29 -34 -18 -39 -50 -56 -103
			-56 -73 0 -112 55 -112 155 0 61 17 111 46 136 50 43 130 30 165 -27 22 -36
			42 -40 47 -10 9 44 -75 105 -143 106 -17 0 -51 -10 -75 -22z"/>
			<path d="M3286 2410 c-70 -21 -113 -113 -103 -222 10 -114 64 -171 161 -171
			108 0 160 65 160 198 0 63 -5 89 -23 123 -34 67 -114 96 -195 72z m132 -63
			c58 -54 55 -219 -5 -267 -32 -25 -99 -27 -132 -4 -66 47 -69 219 -5 275 38 34
			103 32 142 -4z"/>
			<path d="M3586 2394 c-3 -9 -6 -91 -6 -184 0 -137 3 -170 15 -180 25 -21 179
			-8 213 17 49 37 65 77 65 167 0 151 -45 195 -199 196 -66 0 -83 -3 -88 -16z
			m184 -42 c45 -22 64 -73 57 -158 -7 -98 -33 -124 -134 -132 l-63 -5 0 157 0
			156 53 0 c29 0 67 -8 87 -18z"/>
			<path d="M3956 2394 c-12 -31 -7 -349 6 -362 18 -18 224 -16 231 2 9 23 -2 26
			-100 26 l-93 0 0 70 0 70 91 0 c81 0 90 2 87 18 -3 14 -17 17 -91 20 l-87 3 0
			64 0 64 92 3 c79 3 93 6 96 21 3 15 -7 17 -111 17 -96 0 -116 -3 -121 -16z"/>
			<path d="M1368 2283 c-12 -50 -4 -53 123 -53 l119 0 0 35 0 35 -119 0 c-105 0
			-119 -2 -123 -17z"/>
			</g>
		</symbol>

		<symbol id="phone" viewBox="0 0 24 24">
			<path d="M20 22.621l-3.521-6.795c-.008.004-1.974.97-2.064 1.011-2.24 1.086-6.799-7.82-4.609-8.994l2.083-1.026-3.493-6.817-2.106 1.039c-7.202 3.755 4.233 25.982 11.6 22.615.121-.055 2.102-1.029 2.11-1.033z"/>
		</symbol>

		<symbol id="whatsapp" viewBox="0 0 24 24">
			<path d="M.057 24l1.687-6.163c-1.041-1.804-1.588-3.849-1.587-5.946.003-6.556 5.338-11.891 11.893-11.891 3.181.001 6.167 1.24 8.413 3.488 2.245 2.248 3.481 5.236 3.48 8.414-.003 6.557-5.338 11.892-11.893 11.892-1.99-.001-3.951-.5-5.688-1.448l-6.305 1.654zm6.597-3.807c1.676.995 3.276 1.591 5.392 1.592 5.448 0 9.886-4.434 9.889-9.885.002-5.462-4.415-9.89-9.881-9.892-5.452 0-9.887 4.434-9.889 9.884-.001 2.225.651 3.891 1.746 5.634l-.999 3.648 3.742-.981zm11.387-5.464c-.074-.124-.272-.198-.57-.347-.297-.149-1.758-.868-2.031-.967-.272-.099-.47-.149-.669.149-.198.297-.768.967-.941 1.165-.173.198-.347.223-.644.074-.297-.149-1.255-.462-2.39-1.475-.883-.788-1.48-1.761-1.653-2.059-.173-.297-.018-.458.13-.606.134-.133.297-.347.446-.521.151-.172.2-.296.3-.495.099-.198.05-.372-.025-.521-.075-.148-.669-1.611-.916-2.206-.242-.579-.487-.501-.669-.51l-.57-.01c-.198 0-.52.074-.792.372s-1.04 1.016-1.04 2.479 1.065 2.876 1.213 3.074c.149.198 2.095 3.2 5.076 4.487.709.306 1.263.489 1.694.626.712.226 1.36.194 1.872.118.571-.085 1.758-.719 2.006-1.413.248-.695.248-1.29.173-1.414z"/>
		</symbol>

		<symbol id="sol" viewBox="0 0 24 24">
			<path d="M4.069 13h-4.069v-2h4.069c-.041.328-.069.661-.069 1s.028.672.069 1zm3.034-7.312l-2.881-2.881-1.414 1.414 2.881 2.881c.411-.529.885-1.003 1.414-1.414zm11.209 1.414l2.881-2.881-1.414-1.414-2.881 2.881c.528.411 1.002.886 1.414 1.414zm-6.312-3.102c.339 0 .672.028 1 .069v-4.069h-2v4.069c.328-.041.661-.069 1-.069zm0 16c-.339 0-.672-.028-1-.069v4.069h2v-4.069c-.328.041-.661.069-1 .069zm7.931-9c.041.328.069.661.069 1s-.028.672-.069 1h4.069v-2h-4.069zm-3.033 7.312l2.88 2.88 1.415-1.414-2.88-2.88c-.412.528-.886 1.002-1.415 1.414zm-11.21-1.415l-2.88 2.88 1.414 1.414 2.88-2.88c-.528-.411-1.003-.885-1.414-1.414zm2.312-4.897c0 2.206 1.794 4 4 4s4-1.794 4-4-1.794-4-4-4-4 1.794-4 4zm10 0c0 3.314-2.686 6-6 6s-6-2.686-6-6 2.686-6 6-6 6 2.686 6 6z"/>
		</symbol>

		<symbol id="lua" viewBox="0 0 24 24">
			<path d="M10.719 2.082c-2.572 2.028-4.719 5.212-4.719 9.918 0 4.569 1.938 7.798 4.548 9.895-4.829-.705-8.548-4.874-8.548-9.895 0-5.08 3.808-9.288 8.719-9.918zm1.281-2.082c-6.617 0-12 5.383-12 12s5.383 12 12 12c1.894 0 3.87-.333 5.37-1.179-3.453-.613-9.37-3.367-9.37-10.821 0-7.555 6.422-10.317 9.37-10.821-1.74-.682-3.476-1.179-5.37-1.179zm0 10.999c1.437.438 2.562 1.564 2.999 3.001.44-1.437 1.565-2.562 3.001-3-1.436-.439-2.561-1.563-3.001-3-.437 1.436-1.562 2.561-2.999 2.999zm8.001.001c.958.293 1.707 1.042 2 2.001.291-.959 1.042-1.709 1.999-2.001-.957-.292-1.707-1.042-2-2-.293.958-1.042 1.708-1.999 2zm-1-9c-.437 1.437-1.563 2.562-2.998 3.001 1.438.44 2.561 1.564 3.001 3.002.437-1.438 1.563-2.563 2.996-3.002-1.433-.437-2.559-1.564-2.999-3.001z"/>
		</symbol>

		<symbol id="wordpress" viewBox="0 0 24 24">
			<path d="M2.597 7.81l4.911 13.454c-3.434-1.668-5.802-5.19-5.802-9.264 0-1.493.32-2.91.891-4.19zm16.352 3.67c0-1.272-.457-2.153-.849-2.839-.521-.849-1.011-1.566-1.011-2.415 0-.978.747-1.88 1.862-1.819-1.831-1.677-4.271-2.701-6.951-2.701-3.596 0-6.76 1.845-8.601 4.64.625.02 1.489.032 3.406-.118.555-.034.62.782.066.847 0 0-.558.065-1.178.098l3.749 11.15 2.253-6.756-1.604-4.394c-.555-.033-1.08-.098-1.08-.098-.555-.033-.49-.881.065-.848 2.212.17 3.271.171 5.455 0 .555-.033.621.783.066.848 0 0-.559.065-1.178.098l3.72 11.065 1.027-3.431c.444-1.423.783-2.446.783-3.327zm-6.768 1.42l-3.089 8.975c.922.271 1.898.419 2.908.419 1.199 0 2.349-.207 3.418-.583-.086-.139-3.181-8.657-3.237-8.811zm8.852-5.839c.224 1.651-.099 3.208-.713 4.746l-3.145 9.091c3.061-1.784 5.119-5.1 5.119-8.898 0-1.79-.457-3.473-1.261-4.939zm2.967 4.939c0 6.617-5.384 12-12 12s-12-5.383-12-12 5.383-12 12-12 12 5.383 12 12zm-.55 0c0-6.313-5.137-11.45-11.45-11.45s-11.45 5.137-11.45 11.45 5.137 11.45 11.45 11.45 11.45-5.137 11.45-11.45z"/>
		</symbol>
		
		<symbol id="css" viewBox="0 0 50 50">
			<path style="transform: scale(1.2152778); transform-origin: center center;" d="M 39 40 L 25 44 L 11 40 L 8 6 L 42 6 C 41 17.332031 40 28.667969 39 40 Z M 39.816406 8 L 10.183594 8 L 12.871094 38.453125 L 25 41.921875 L 37.128906 38.453125 Z M 16.800781 28 L 20.800781 28 L 20.898438 30.5 L 25 31.898438 L 29.101563 30.5 L 29.398438 26 L 20.601563 26 L 20.398438 22 L 29.601563 22 L 29.898438 18 L 16.101563 18 L 15.800781 14 L 34.101563 14 L 33.601563 22 L 32.898438 33.5 L 25 36.101563 L 17.101563 33.5 Z"/>
		</symbol>

		<symbol id="flutter" viewBox="0 0 50 50">
			<path d="M 27 3 A 1.0001 1.0001 0 0 0 26.292969 3.2929688 L 5.2929688 24.292969 A 1.0001 1.0001 0 0 0 5.2929688 25.707031 L 11.292969 31.707031 A 1.0001 1.0001 0 0 0 12.707031 31.707031 L 39.707031 4.7070312 A 1.0001 1.0001 0 0 0 39 3 L 27 3 z M 27.414062 5 L 36.585938 5 L 12 29.585938 L 7.4140625 25 L 27.414062 5 z M 28 22 A 1.0001 1.0001 0 0 0 27.292969 22.292969 L 15.292969 34.292969 A 1.0001 1.0001 0 0 0 15.292969 35.707031 L 21.292969 41.707031 L 27.292969 47.707031 A 1.0001 1.0001 0 0 0 28 48 L 40 48 A 1.0001 1.0001 0 0 0 40.707031 46.292969 L 29.414062 35 L 40.707031 23.707031 A 1.0001 1.0001 0 0 0 40 22 L 28 22 z M 28.414062 24 L 37.585938 24 L 22 39.585938 L 17.414062 35 L 28.414062 24 z M 28 36.414062 L 37.585938 46 L 28.414062 46 L 23.414062 41 L 28 36.414062 z"/>
		</symbol>

		<symbol id="html" viewBox="0 0 50 50">
			<path d="M 5.28125 2 C 4.765625 2.09375 4.410156 2.574219 4.46875 3.09375 L 8 42.53125 C 8.046875 42.933594 8.332031 43.265625 8.71875 43.375 L 24.71875 47.96875 C 24.902344 48.023438 25.097656 48.023438 25.28125 47.96875 L 41.28125 43.375 C 41.667969 43.265625 41.953125 42.933594 42 42.53125 L 45.53125 3.09375 C 45.558594 2.8125 45.464844 2.535156 45.273438 2.324219 C 45.082031 2.117188 44.8125 2 44.53125 2 L 5.46875 2 C 5.4375 2 5.40625 2 5.375 2 C 5.34375 2 5.3125 2 5.28125 2 Z M 6.5625 4 L 43.4375 4 L 40.09375 41.65625 L 25 45.9375 L 9.90625 41.65625 Z M 12.53125 10.0625 C 12.015625 10.15625 11.660156 10.636719 11.71875 11.15625 L 13.0625 25.9375 C 13.09375 26.453125 13.515625 26.859375 14.03125 26.875 L 30 26.875 L 29.5625 31.46875 L 25.03125 32.4375 L 20.4375 31.46875 L 20.28125 29.84375 C 20.25 29.316406 19.808594 28.90625 19.28125 28.90625 L 14.40625 28.90625 C 14.125 28.90625 13.855469 29.023438 13.664063 29.230469 C 13.472656 29.441406 13.378906 29.71875 13.40625 30 L 13.96875 36.125 C 14 36.527344 14.269531 36.875 14.65625 37 L 24.59375 40.03125 L 24.71875 40.0625 C 24.902344 40.117188 25.097656 40.117188 25.28125 40.0625 L 35.34375 37 C 35.742188 36.886719 36.027344 36.539063 36.0625 36.125 L 37.375 21.09375 C 37.402344 20.816406 37.3125 20.542969 37.128906 20.335938 C 36.945313 20.128906 36.683594 20.007813 36.40625 20 L 19.375 20 L 19.125 16.90625 L 36.84375 16.90625 C 37.363281 16.910156 37.796875 16.515625 37.84375 16 L 38.28125 11.15625 C 38.308594 10.875 38.214844 10.597656 38.023438 10.386719 C 37.832031 10.179688 37.5625 10.0625 37.28125 10.0625 L 12.71875 10.0625 C 12.65625 10.054688 12.59375 10.054688 12.53125 10.0625 Z M 13.8125 12.0625 L 36.1875 12.0625 L 35.9375 14.90625 L 18.03125 14.90625 C 17.75 14.90625 17.480469 15.023438 17.289063 15.230469 C 17.097656 15.441406 17.003906 15.71875 17.03125 16 L 17.5 21.09375 C 17.546875 21.597656 17.964844 21.988281 18.46875 22 L 35.3125 22 L 34.125 35.28125 L 25 38.03125 L 15.875 35.28125 L 15.5 30.90625 L 18.375 30.90625 L 18.5 32.375 C 18.53125 32.816406 18.847656 33.183594 19.28125 33.28125 L 24.84375 34.4375 C 24.976563 34.464844 25.117188 34.464844 25.25 34.4375 L 30.71875 33.28125 C 31.152344 33.183594 31.46875 32.816406 31.5 32.375 L 32.09375 25.9375 C 32.109375 25.660156 32.011719 25.390625 31.824219 25.191406 C 31.632813 24.988281 31.371094 24.875 31.09375 24.875 L 14.9375 24.875 Z"/>
		</symbol>

		<symbol id="jscript"  viewBox="0 0 50 50">
			<path d="M 5.4648438 2 A 1.0001 1.0001 0 0 0 4.46875 3.0898438 L 7.9882812 42.515625 A 1.0001 1.0001 0 0 0 8.7089844 43.388672 L 24.71875 47.960938 A 1.0001 1.0001 0 0 0 25.267578 47.960938 L 41.292969 43.388672 A 1.0001 1.0001 0 0 0 42.013672 42.515625 L 45.53125 3.0898438 A 1.0001 1.0001 0 0 0 44.535156 2 L 5.4648438 2 z M 6.5585938 4 L 43.441406 4 L 40.083984 41.654297 L 24.994141 45.960938 L 9.9199219 41.654297 L 6.5585938 4 z M 19 10 A 1.0001 1.0001 0 0 0 18 11 L 18 29.628906 L 12.267578 28.041016 A 1.0001 1.0001 0 0 0 11 29.003906 L 11 33.949219 A 1.0001 1.0001 0 0 0 11.732422 34.912109 L 22.732422 37.962891 A 1.0001 1.0001 0 0 0 24 37 L 24 11 A 1.0001 1.0001 0 0 0 23 10 L 19 10 z M 27 10 A 1.0001 1.0001 0 0 0 26 11 L 26 28 A 1.0001 1.0001 0 0 0 27.169922 28.986328 L 32.917969 27.996094 L 32.798828 29.767578 L 26.734375 31.435547 A 1.0001 1.0001 0 0 0 26 32.398438 L 26 37 A 1.0001 1.0001 0 0 0 27.265625 37.964844 L 37.265625 35.214844 A 1.0001 1.0001 0 0 0 37.996094 34.335938 L 39.050781 22.085938 A 1.0001 1.0001 0 0 0 37.914062 21.009766 L 32 21.847656 L 32 16 L 38.654297 16 A 1.0001 1.0001 0 0 0 39.650391 15.085938 L 39.996094 11.085938 A 1.0001 1.0001 0 0 0 39 10 L 27 10 z M 20 12 L 22 12 L 22 35.685547 L 13 33.189453 L 13 30.318359 L 18.732422 31.908203 A 1.0001 1.0001 0 0 0 20 30.945312 L 20 12 z M 28 12 L 37.910156 12 L 37.736328 14 L 31 14 A 1.0001 1.0001 0 0 0 30 15 L 30 23 A 1.0001 1.0001 0 0 0 31.140625 23.990234 L 36.951172 23.166016 L 36.0625 33.470703 L 28 35.6875 L 28 33.162109 L 34.015625 31.507812 A 1.0001 1.0001 0 0 0 34.748047 30.611328 L 34.998047 26.861328 A 1.0001 1.0001 0 0 0 33.830078 25.808594 L 28 26.8125 L 28 12 z"/>
		</symbol>

		<symbol id="typescript" viewBox="0 0 50 50">
			<path d="M 5 4 A 1.0001 1.0001 0 0 0 4 5 L 4 45 A 1.0001 1.0001 0 0 0 5 46 L 45 46 A 1.0001 1.0001 0 0 0 46 45 L 46 5 A 1.0001 1.0001 0 0 0 45 4 L 5 4 z M 6 6 L 44 6 L 44 44 L 6 44 L 6 6 z M 15 23 L 15 26.445312 L 20 26.445312 L 20 42 L 24 42 L 24 26.445312 L 29 26.445312 L 29 23 L 15 23 z M 36.691406 23.009766 C 33.576782 22.997369 30.017578 23.941219 30.017578 28.324219 C 30.017578 34.054219 37.738281 34.055625 37.738281 36.640625 C 37.738281 36.885625 37.842187 38.666016 35.117188 38.666016 C 32.392187 38.666016 30.121094 36.953125 30.121094 36.953125 L 30.121094 41.111328 C 30.121094 41.111328 42.001953 44.954062 42.001953 36.289062 C 42.000953 30.664063 34.208984 30.945391 34.208984 28.150391 C 34.208984 27.067391 34.978375 26.054687 37.109375 26.054688 C 39.240375 26.054688 41.126953 27.3125 41.126953 27.3125 L 41.267578 23.607422 C 41.267578 23.607422 39.113892 23.019408 36.691406 23.009766 z"/>
		</symbol>

		<symbol id="dart"  viewBox="0 0 50 50">
			<path d="M 25.697266 0.99414062 C 25.465673 0.99505538 25.23335 1.0081379 25.001953 1.0351562 C 24.384896 1.1072053 23.771818 1.2719448 23.185547 1.5351562 L 8.6464844 8.0625 A 1.0001 1.0001 0 0 0 8.0878906 8.5898438 A 1.0001 1.0001 0 0 0 8.0644531 8.6445312 L 1.5351562 23.185547 C 0.48255086 25.531285 0.99014837 28.292121 2.8085938 30.109375 L 9.7480469 37.046875 C 9.7500028 37.048838 9.7519474 37.050773 9.7539062 37.052734 L 20.390625 47.707031 A 1.0001 1.0001 0 0 0 21.097656 48 L 38 48 A 1.0001 1.0001 0 0 0 39 47 L 39 39 L 47 39 A 1.0001 1.0001 0 0 0 48 38 L 48 21.097656 A 1.0001 1.0001 0 0 0 47.707031 20.390625 L 37.052734 9.7539062 C 37.050773 9.7519474 37.048838 9.7500028 37.046875 9.7480469 L 30.109375 2.8085938 C 28.9167 1.6151376 27.318411 0.98773734 25.697266 0.99414062 z M 25.863281 2.9921875 C 26.90675 3.026668 27.923693 3.4505312 28.695312 4.2226562 L 32.470703 8 L 13.667969 8 L 24.003906 3.359375 C 24.60125 3.0911923 25.2372 2.9714992 25.863281 2.9921875 z M 11.412109 10 L 32.8125 10 C 33.872846 10 34.889035 10.421085 35.638672 11.169922 L 36.296875 11.828125 L 44.666016 20.199219 L 44.673828 20.191406 L 46 21.513672 L 46 37 L 38.275391 37 L 11.412109 10 z M 10 11.417969 L 35.455078 37 L 12.53125 37 L 11.464844 35.933594 L 11.169922 35.638672 C 10.421085 34.889035 10 33.872846 10 32.8125 L 10 11.417969 z M 8 13.667969 L 8 32.470703 L 4.2226562 28.695312 C 2.9871016 27.460567 2.6459336 25.598168 3.3613281 24.003906 L 3.359375 24.003906 L 8 13.667969 z M 14.533203 39 L 37 39 L 37 46 L 21.513672 46 L 20.189453 44.673828 L 20.199219 44.664062 L 14.533203 39 z"/>
		</symbol>

		<symbol id="java"  viewBox="0 0 50 50">
			<path d="M 28.1875 0 C 30.9375 6.363281 18.328125 10.292969 17.15625 15.59375 C 16.082031 20.464844 24.648438 26.125 24.65625 26.125 C 23.355469 24.109375 22.398438 22.449219 21.09375 19.3125 C 18.886719 14.007813 34.535156 9.207031 28.1875 0 Z M 36.5625 8.8125 C 36.5625 8.8125 25.5 9.523438 24.9375 16.59375 C 24.6875 19.742188 27.847656 21.398438 27.9375 23.6875 C 28.011719 25.558594 26.0625 27.125 26.0625 27.125 C 26.0625 27.125 29.609375 26.449219 30.71875 23.59375 C 31.949219 20.425781 28.320313 18.285156 28.6875 15.75 C 29.039063 13.324219 36.5625 8.8125 36.5625 8.8125 Z M 19.1875 25.15625 C 19.1875 25.15625 9.0625 25.011719 9.0625 27.875 C 9.0625 30.867188 22.316406 31.089844 31.78125 29.25 C 31.78125 29.25 34.296875 27.519531 34.96875 26.875 C 28.765625 28.140625 14.625 28.28125 14.625 27.1875 C 14.625 26.179688 19.1875 25.15625 19.1875 25.15625 Z M 38.65625 25.15625 C 37.664063 25.234375 36.59375 25.617188 35.625 26.3125 C 37.90625 25.820313 39.84375 27.234375 39.84375 28.84375 C 39.84375 32.46875 34.59375 35.875 34.59375 35.875 C 34.59375 35.875 42.71875 34.953125 42.71875 29 C 42.71875 26.296875 40.839844 24.984375 38.65625 25.15625 Z M 16.75 30.71875 C 15.195313 30.71875 12.875 31.9375 12.875 33.09375 C 12.875 35.417969 24.5625 37.207031 33.21875 33.8125 L 30.21875 31.96875 C 24.351563 33.847656 13.546875 33.234375 16.75 30.71875 Z M 18.1875 35.9375 C 16.058594 35.9375 14.65625 37.222656 14.65625 38.1875 C 14.65625 41.171875 27.371094 41.472656 32.40625 38.4375 L 29.21875 36.40625 C 25.457031 37.996094 16.015625 38.238281 18.1875 35.9375 Z M 11.09375 38.625 C 7.625 38.554688 5.375 40.113281 5.375 41.40625 C 5.375 48.28125 40.875 47.964844 40.875 40.9375 C 40.875 39.769531 39.527344 39.203125 39.03125 38.9375 C 41.933594 45.65625 9.96875 45.121094 9.96875 41.15625 C 9.96875 40.253906 12.320313 39.390625 14.5 39.8125 L 12.65625 38.75 C 12.113281 38.667969 11.589844 38.636719 11.09375 38.625 Z M 44.625 43.25 C 39.226563 48.367188 25.546875 50.222656 11.78125 47.0625 C 25.542969 52.695313 44.558594 49.535156 44.625 43.25 Z"/>
		</symbol>

		<symbol id="mysql" viewBox="0 0 50 50">
			<path d="M 31.167969 8 C 30.699219 7.988281 30.289063 8.167969 30.078125 8.6875 C 29.71875 9.558594 30.613281 10.410156 30.933594 10.855469 C 31.15625 11.164063 31.445313 11.511719 31.605469 11.859375 C 31.710938 12.089844 31.726563 12.320313 31.816406 12.5625 C 32.039063 13.160156 32.394531 13.839844 32.679688 14.394531 C 32.824219 14.675781 32.984375 14.96875 33.167969 15.21875 C 33.28125 15.371094 33.472656 15.441406 33.503906 15.675781 C 33.316406 15.941406 33.304688 16.351563 33.199219 16.6875 C 32.722656 18.191406 32.902344 20.0625 33.59375 21.171875 C 33.808594 21.515625 34.3125 22.246094 35 21.96875 C 35.601563 21.722656 35.46875 20.960938 35.640625 20.285156 C 35.679688 20.136719 35.65625 20.023438 35.734375 19.921875 L 35.734375 19.953125 C 35.914063 20.320313 36.097656 20.6875 36.28125 21.050781 C 36.691406 21.707031 37.414063 22.390625 38.023438 22.855469 C 38.339844 23.09375 38.589844 23.507813 39 23.648438 L 39 23.617188 L 38.96875 23.617188 C 38.890625 23.492188 38.765625 23.441406 38.664063 23.34375 C 38.425781 23.109375 38.160156 22.816406 37.964844 22.546875 C 37.40625 21.792969 36.914063 20.964844 36.46875 20.105469 C 36.253906 19.695313 36.066406 19.242188 35.886719 18.824219 C 35.816406 18.660156 35.816406 18.417969 35.671875 18.332031 C 35.472656 18.640625 35.183594 18.886719 35.03125 19.25 C 34.789063 19.828125 34.753906 20.535156 34.664063 21.265625 C 34.609375 21.285156 34.632813 21.269531 34.605469 21.296875 C 34.179688 21.191406 34.027344 20.753906 33.871094 20.378906 C 33.472656 19.429688 33.394531 17.898438 33.75 16.808594 C 33.839844 16.523438 34.25 15.632813 34.085938 15.371094 C 34.007813 15.109375 33.742188 14.960938 33.597656 14.761719 C 33.414063 14.515625 33.234375 14.191406 33.109375 13.90625 C 32.78125 13.164063 32.472656 12.304688 32.125 11.554688 C 31.960938 11.195313 31.683594 10.835938 31.453125 10.515625 C 31.199219 10.164063 30.917969 9.90625 30.71875 9.476563 C 30.652344 9.328125 30.554688 9.085938 30.660156 8.929688 C 30.691406 8.824219 30.738281 8.78125 30.84375 8.746094 C 31.019531 8.609375 31.511719 8.789063 31.699219 8.867188 C 32.1875 9.070313 32.597656 9.265625 33.011719 9.539063 C 33.210938 9.671875 33.410156 9.925781 33.652344 10 L 33.925781 10 C 34.359375 10.097656 34.839844 10.027344 35.238281 10.152344 C 35.949219 10.367188 36.585938 10.703125 37.160156 11.066406 C 38.921875 12.175781 40.363281 13.757813 41.34375 15.644531 C 41.503906 15.949219 41.574219 16.242188 41.714844 16.5625 C 41.992188 17.210938 42.347656 17.882813 42.628906 18.515625 C 42.90625 19.152344 43.179688 19.789063 43.574219 20.316406 C 43.78125 20.59375 44.585938 20.746094 44.949219 20.898438 C 45.203125 21.007813 45.625 21.121094 45.863281 21.265625 C 46.328125 21.542969 46.773438 21.875 47.207031 22.183594 C 47.425781 22.335938 48.089844 22.667969 48.125 22.945313 C 47.050781 22.917969 46.230469 23.015625 45.53125 23.3125 C 45.332031 23.398438 45.011719 23.398438 44.980469 23.648438 C 45.085938 23.761719 45.105469 23.933594 45.191406 24.074219 C 45.359375 24.34375 45.640625 24.707031 45.894531 24.898438 C 46.171875 25.105469 46.453125 25.328125 46.75 25.511719 C 47.273438 25.828125 47.859375 26.011719 48.367188 26.332031 C 48.664063 26.523438 48.964844 26.761719 49.253906 26.972656 C 49.398438 27.082031 49.492188 27.246094 49.679688 27.3125 L 49.679688 27.28125 C 49.582031 27.15625 49.558594 26.984375 49.46875 26.855469 L 49.066406 26.453125 C 48.679688 25.941406 48.1875 25.488281 47.664063 25.113281 C 47.246094 24.8125 46.3125 24.40625 46.140625 23.921875 L 46.109375 23.890625 C 46.402344 23.859375 46.75 23.75 47.023438 23.675781 C 47.484375 23.554688 47.890625 23.585938 48.363281 23.464844 C 48.578125 23.402344 48.792969 23.339844 49.007813 23.28125 L 49.007813 23.15625 C 48.769531 22.914063 48.597656 22.585938 48.335938 22.363281 C 47.652344 21.78125 46.90625 21.199219 46.136719 20.714844 C 45.710938 20.445313 45.183594 20.269531 44.734375 20.042969 C 44.582031 19.964844 44.316406 19.925781 44.214844 19.796875 C 43.976563 19.496094 43.847656 19.113281 43.664063 18.761719 C 43.28125 18.023438 42.90625 17.21875 42.566406 16.441406 C 42.335938 15.914063 42.183594 15.390625 41.894531 14.914063 C 40.507813 12.636719 39.015625 11.257813 36.703125 9.90625 C 36.210938 9.617188 35.621094 9.507813 34.996094 9.359375 C 34.65625 9.335938 34.324219 9.316406 33.984375 9.296875 C 33.78125 9.210938 33.566406 8.960938 33.375 8.835938 C 32.894531 8.535156 31.949219 8.011719 31.167969 8 Z M 34.476563 11.3125 C 34.253906 11.308594 34.09375 11.339844 33.925781 11.375 L 33.925781 11.40625 L 33.957031 11.40625 C 34.0625 11.625 34.253906 11.765625 34.386719 11.953125 C 34.488281 12.167969 34.585938 12.382813 34.6875 12.597656 L 34.71875 12.566406 C 34.90625 12.433594 34.996094 12.21875 34.996094 11.894531 C 34.917969 11.816406 34.90625 11.714844 34.84375 11.621094 C 34.753906 11.492188 34.585938 11.421875 34.476563 11.3125 Z M 1.867188 23.996094 C 1.566406 24.007813 1.238281 24.066406 0.882813 24.179688 C 0.289063 24.359375 -0.00390625 24.714844 -0.00390625 25.4375 L -0.00390625 33 L 2 33 L 2 25.621094 L 4.777344 31.929688 C 5.121094 32.714844 5.589844 32.996094 6.507813 32.996094 C 7.429688 32.996094 7.878906 32.714844 8.222656 31.929688 L 11 25.78125 L 11 33 L 13 33 L 13 25.4375 C 13 24.714844 12.710938 24.359375 12.113281 24.179688 C 10.691406 23.730469 9.734375 24.117188 9.304688 25.089844 L 6.453125 31.503906 L 3.695313 25.089844 C 3.382813 24.359375 2.757813 23.960938 1.867188 23.996094 Z M 26.246094 24 C 25.457031 24 23 24.09375 23 26 L 23 27.234375 C 23 28.109375 23.769531 28.824219 25.4375 29 C 25.625 29.011719 25.8125 29.027344 26 29.027344 C 26 29.027344 27.945313 28.988281 28 29 C 29.125 29 29 29.875 29 30 L 29 31 C 29 31.136719 28.96875 32 27.988281 32 L 23 32 L 23 33 L 28.007813 33 C 28.664063 33 29.300781 32.863281 29.808594 32.625 C 30.652344 32.238281 31 31.714844 31 31.027344 L 31 29.597656 C 31 28.0625 29.09375 28 28 28 L 26 28 C 25.214844 28 25.09375 27.523438 25 27 L 25 26 C 25.09375 25.601563 25.269531 25.0625 25.964844 25 L 31 25 L 31 24 Z M 33.980469 24 C 32.503906 24.203125 31.984375 24.9375 31.984375 26 L 31.984375 31 C 31.984375 31.972656 32.527344 32.558594 33.644531 32.863281 C 34.019531 32.96875 34.359375 33.011719 34.679688 33.011719 L 36.90625 33 L 38.214844 33 L 39.328125 34 L 41.578125 34 L 40.03125 32.605469 C 40.757813 32.304688 40.984375 31.84375 40.984375 30.980469 L 40.984375 26 C 40.984375 24.9375 40.292969 24.203125 38.816406 24 Z M 42 24 L 42 30.957031 C 42 32.164063 42.683594 32.84375 44.492188 32.980469 C 44.660156 32.988281 44.832031 33 45 33 L 50 33 L 50 32 L 45.378906 32 C 44.347656 32 44 31.566406 44 30.949219 L 44 24 Z M 35.171875 25 L 37.746094 25 C 38.425781 25 38.882813 25.546875 38.984375 26 C 38.984375 26 39 30.65625 39 31 C 39 31.34375 38.808594 31.5 38.808594 31.5 L 38.265625 31 L 36 31 L 37.113281 32 L 35.171875 32 C 34.476563 32 34.085938 31.484375 33.984375 31 L 33.984375 26.101563 C 33.984375 25.570313 34.390625 25 35.171875 25 Z M 14 27 C 14.039063 27.039063 14 31.261719 14 31.34375 C 14.015625 32.21875 15.125 32.984375 16.863281 33 L 20 33 L 20 33.066406 C 20 33.253906 20.136719 33.878906 19 34 C 18.988281 34 14.011719 34 14 34 L 14 35 L 19.214844 35 C 20.097656 34.972656 22.011719 34.773438 22 33.242188 C 22 33.214844 22.007813 27 22 27 L 20 27 L 20 32 C 19.96875 32 17.523438 32.007813 17.03125 32 C 16.066406 31.984375 15.984375 31.433594 16 31.222656 L 16 27 Z"/>
		</symbol>

		<symbol id="sql" viewBox="0 0 528 528">
			<g transform="translate(0.000000,512.000000) scale(0.100000,-0.100000)"
			fill="#000000" stroke="none">
			<path d="M1505 5110 c-735 -48 -1275 -207 -1443 -426 -66 -86 -62 42 -62
			-1788 l0 -1661 24 -50 c12 -27 35 -65 51 -83 65 -77 245 -178 420 -235 273
			-90 679 -156 1065 -175 l145 -7 5 -255 5 -255 28 -48 c33 -56 89 -99 149 -116
			32 -9 415 -11 1543 -9 1441 3 1501 4 1535 22 49 26 98 74 123 121 l22 40 0
			1010 0 1010 -22 40 c-25 47 -74 95 -123 121 -33 18 -72 19 -627 22 l-593 3 0
			1095 c0 1211 5 1125 -66 1211 -157 192 -607 335 -1254 398 -187 19 -731 27
			-925 15z m700 -170 c630 -37 1152 -167 1326 -331 42 -38 49 -51 49 -82 0 -118
			-280 -255 -690 -337 -345 -70 -666 -95 -1125 -87 -346 6 -507 19 -770 63 -432
			72 -765 204 -815 323 -17 42 -7 71 41 119 230 227 1149 381 1984 332z m-1934
			-739 c221 -116 554 -197 1009 -248 209 -23 925 -26 1140 -5 492 49 903 150
			1100 271 28 17 52 31 55 31 3 0 5 -196 5 -435 l0 -435 -40 -44 c-147 -160
			-664 -295 -1284 -337 -226 -15 -755 -6 -956 16 -506 55 -914 170 -1070 301
			-61 52 -60 43 -60 509 0 234 2 425 4 425 2 0 45 -22 97 -49z m14 -1118 c257
			-129 688 -220 1199 -254 230 -15 787 -6 991 16 472 50 867 151 1053 268 23 15
			44 27 47 27 3 0 5 -169 5 -375 l0 -375 -823 0 c-902 0 -879 1 -956 -59 -22
			-17 -51 -55 -65 -83 -25 -49 -26 -60 -26 -211 l0 -160 -112 7 c-177 10 -343
			25 -468 42 -465 62 -863 201 -940 327 -19 30 -20 53 -20 465 l0 433 28 -19
			c15 -11 54 -33 87 -49z m4636 -892 l29 -29 0 -967 0 -967 -29 -29 -29 -29
			-1472 0 c-1568 0 -1516 -2 -1534 45 -3 9 -6 452 -6 983 1 1018 -1 984 45 1010
			15 8 404 11 1493 12 l1474 0 29 -29z m-4660 -205 c265 -141 701 -234 1257
			-268 l192 -12 0 -424 0 -425 -143 6 c-604 28 -1163 165 -1341 328 l-51 47 -3
			396 c-1 218 -1 396 2 396 2 0 41 -20 87 -44z"/>
			<path d="M2465 1780 c-55 -17 -139 -75 -171 -117 -53 -69 -77 -146 -72 -229
			11 -178 134 -302 321 -323 85 -10 103 -18 145 -65 94 -107 15 -276 -128 -276
			-89 0 -151 59 -170 161 -12 63 -37 89 -87 89 -23 0 -42 -8 -60 -26 -23 -24
			-25 -31 -21 -89 10 -115 85 -222 197 -277 67 -33 215 -33 282 0 75 37 125 87
			161 160 30 60 33 76 33 152 0 71 -4 94 -27 141 -53 115 -154 183 -293 198 -90
			11 -136 37 -165 97 -26 53 -25 101 3 155 44 83 146 113 229 67 48 -28 75 -69
			88 -139 12 -63 37 -89 87 -89 23 0 42 8 60 26 23 23 25 31 20 84 -6 68 -41
			151 -85 201 -17 20 -60 51 -94 69 -54 29 -74 34 -143 37 -44 1 -93 -2 -110 -7z"/>
			<path d="M3285 1766 c-75 -31 -164 -121 -191 -192 -26 -71 -34 -620 -9 -716
			50 -199 248 -304 446 -238 l60 21 26 -21 c80 -63 177 42 113 122 -19 25 -19
			25 0 77 18 47 20 78 20 376 0 303 -1 328 -21 379 -27 72 -96 148 -166 182 -82
			40 -195 44 -278 10z m230 -181 c63 -47 65 -60 65 -389 l0 -294 -38 21 c-35 18
			-42 19 -71 7 -17 -7 -37 -22 -43 -33 -15 -29 -12 -76 6 -96 23 -26 20 -31 -19
			-31 -72 0 -141 50 -164 119 -7 22 -11 130 -11 306 0 176 4 284 11 306 14 42
			54 87 94 105 48 23 127 13 170 -21z"/>
			<path d="M3956 1769 l-26 -20 0 -554 0 -554 26 -20 c26 -20 38 -21 313 -21
			275 0 288 1 309 20 29 27 37 63 20 96 -23 50 -44 54 -280 54 l-217 0 -3 486
			-3 486 -28 24 c-34 29 -76 31 -111 3z"/>
			</g>
		</symbol>

		<symbol id="pc_mobile" version="1.1" viewBox="0 0 396.494 396.494">
			<g>
				<path d="M304.42,330.901h-43.219c-1.56,0-2.834-1.273-2.834-2.834v-10.52c0-1.559-1.275-2.834-2.834-2.834h-60.475
					c-1.56,0-2.835,1.275-2.835,2.834v10.52c0,1.561-1.275,2.834-2.835,2.834h-32.491c-1.56,0-2.835,1.275-2.835,2.834v12.17
					c0,1.559,1.275,2.834,2.835,2.834h147.521c1.559,0,2.834-1.275,2.834-2.834v-12.17C307.254,332.179,305.979,330.901,304.42,330.901
					z"/>
				<g>
					<path d="M377.032,46.368h-308.4c-10.73,0-19.459,8.73-19.459,19.462c0,0,0,37.109,0,50.761c0,6.711-0.498,7.66,4.004,7.66
						c2.391,0,5.039,0,7.72,0c3.778,0,3.003-0.949,3.003-7.785c0-13.621,0-50.636,0-50.636c0-2.565,2.168-4.733,4.732-4.733h308.4
						c2.563,0,4.731,2.168,4.731,4.733v189.999h-219.87c0,0-7.749-0.014-7.749,10.006c0,5.941,0,17.823,0,23.766
						c0,10.006,8,10.006,8,10.006h214.888c10.729,0,19.461-8.729,19.461-19.459V65.83C396.493,55.099,387.763,46.368,377.032,46.368z
						M222.833,282.804c-4.845,0-8.771-3.926-8.771-8.768s3.926-8.77,8.771-8.77c4.84,0,8.767,3.928,8.767,8.77
						S227.673,282.804,222.833,282.804z"/>
					<path d="M124.125,141.633H12.559C5.632,141.633,0,147.266,0,154.193v183.372c0,6.926,5.632,12.561,12.559,12.561h111.566
						c6.923,0,12.559-5.635,12.559-12.561V154.193C136.684,147.266,131.048,141.633,124.125,141.633z M54.58,154.443h27.523
						c1.313,0,2.38,1.064,2.38,2.381c0,1.314-1.066,2.379-2.38,2.379H54.58c-1.315,0-2.379-1.065-2.379-2.379
						C52.201,155.507,53.265,154.443,54.58,154.443z M68.175,341.304c-3.59,0-6.5-2.91-6.5-6.5s2.91-6.5,6.5-6.5s6.5,2.91,6.5,6.5
						S71.765,341.304,68.175,341.304z M125.893,322.2c0,1.676-1.342,3.047-2.98,3.047H13.774c-1.639,0-2.98-1.371-2.98-3.047V169.825
						c0-1.676,1.342-3.046,2.98-3.046h109.139c1.639,0,2.98,1.371,2.98,3.046V322.2z"/>
				</g>
			</g>
		</symbol>

		<symbol id="pc" version="1.1" viewBox="0 0 46 46">
			<g>
				<g id="Layer_30_9_">
					<g>
						<path d="M0,3.281v23v3.875v2.375h46v-2.375v-3.875v-23H0z M23,31.188c-0.982,0-1.781-0.799-1.781-1.781s0.799-1.779,1.781-1.779
							c0.982,0,1.779,0.797,1.779,1.779S23.982,31.188,23,31.188z M44,26.281H2v-21h42V26.281z"/>
						<polygon points="28.838,34.594 17.838,34.594 17.838,39.844 12.338,39.844 12.338,42.719 34.713,42.719 34.713,39.844 
							28.838,39.844 			"/>
					</g>
				</g>
			</g>
		</symbol>

		<symbol id="app-mobile" version="1.1" viewBox="0 0 502.707 502.707">
			<g>
				<g>
					<g>
						<path d="M469.423,202.01h-44.824V68.272c0-25.324-20.773-46.054-46.075-46.054H46.054C20.73,22.218,0,42.947,0,68.272v194.396
							c0,25.367,20.73,46.054,46.054,46.054h42.494v133.89c0,20.881,17.062,37.878,37.878,37.878h84.255
							c20.837,0,37.9-17.019,37.9-37.878V308.699h30.458v66.999c0,18.292,14.97,33.284,33.327,33.284h157.057
							c18.335,0,33.284-14.949,33.284-33.284V235.272C502.707,216.959,487.694,202.01,469.423,202.01z M459.652,220.281
							c5.716,0,10.332,4.595,10.332,10.289c0,5.673-4.616,10.289-10.332,10.289c-5.695,0-10.289-4.595-10.289-10.289
							C449.363,224.897,453.957,220.281,459.652,220.281z M477.512,380.422H304.277V256.433h173.235V380.422z M430.143,220.302
							c5.716,0,10.311,4.595,10.311,10.268c0,5.673-4.595,10.268-10.311,10.268c-5.652,0-10.268-4.595-10.268-10.268
							C419.897,224.897,424.513,220.302,430.143,220.302z M368.17,45.708c7.464,0,13.482,6.018,13.482,13.46s-6.018,13.46-13.482,13.46
							c-7.42,0-13.439-6.018-13.439-13.46C354.732,51.727,360.771,45.708,368.17,45.708z M329.623,45.73
							c7.42,0,13.395,6.018,13.395,13.439s-5.975,13.439-13.395,13.439c-7.463,0-13.439-6.018-13.439-13.439
							S322.224,45.73,329.623,45.73z M168.015,236.998c0-5.673,4.595-10.268,10.268-10.268c5.673,0,10.289,4.595,10.289,10.268
							c0,5.673-4.616,10.289-10.289,10.289C172.609,247.287,168.015,242.671,168.015,236.998z M197.459,236.998
							c0-5.695,4.616-10.289,10.311-10.289s10.289,4.595,10.289,10.289c0,5.673-4.595,10.289-10.289,10.289
							C202.075,247.287,197.459,242.671,197.459,236.998z M219.914,447.96H117.28V266.378h102.655L219.914,447.96L219.914,447.96z
							M248.582,269.182v-24.569c0-20.794-17.062-37.857-37.878-37.857h-84.277c-20.816,0-37.878,17.062-37.878,37.857v24.569H34.88
							V95.364h354.775V202.01h-77.31c-18.357,0-33.327,14.949-33.327,33.262v33.909H248.582z"/>
					</g>
				</g>
			</g>
		</symbol>

		<symbol id="php" viewBox="0 0 32 32" version="1.1">
			<path style="transform: scale(1.05); transform-origin: center center;" d="M23.205 13.759h-1.178l-0.645 3.309h1.047c0.056 0.004 0.122 0.007 0.188 0.007 0.507 0 0.978-0.149 1.374-0.405l-0.010 0.006c0.371-0.33 0.623-0.786 0.688-1.301l0.001-0.010c0.048-0.138 0.076-0.296 0.076-0.461 0-0.291-0.087-0.562-0.236-0.788l0.003 0.005c-0.297-0.234-0.676-0.376-1.089-0.376-0.077 0-0.154 0.005-0.229 0.015l0.009-0.001zM26.448 15.486c-0.075 0.398-0.208 0.753-0.39 1.076l0.009-0.017c-0.194 0.338-0.427 0.628-0.698 0.876l-0.003 0.002c-0.316 0.302-0.699 0.538-1.125 0.682l-0.021 0.006c-0.441 0.131-0.947 0.207-1.472 0.207-0.048 0-0.095-0.001-0.142-0.002l0.007 0h-1.475l-0.409 2.102h-1.722l1.537-7.905h3.31c0.073-0.007 0.159-0.011 0.245-0.011 0.754 0 1.438 0.304 1.934 0.796l-0-0c0.319 0.41 0.512 0.933 0.512 1.5 0 0.245-0.036 0.482-0.103 0.705l0.004-0.017zM16.955 18.317l0.679-3.498c0.035-0.095 0.055-0.204 0.055-0.318 0-0.183-0.052-0.354-0.142-0.499l0.002 0.004c-0.195-0.142-0.439-0.228-0.703-0.228-0.055 0-0.109 0.004-0.162 0.011l0.006-0.001h-1.365l-0.88 4.53h-1.709l1.537-7.906h1.708l-0.409 2.102h1.522c0.093-0.010 0.2-0.016 0.309-0.016 0.625 0 1.205 0.193 1.683 0.524l-0.010-0.006c0.257 0.291 0.414 0.676 0.414 1.097 0 0.188-0.031 0.369-0.089 0.538l0.003-0.012-0.715 3.679zM11.926 17.423c-0.316 0.303-0.699 0.538-1.125 0.682l-0.021 0.006c-0.441 0.131-0.947 0.207-1.471 0.207-0.047 0-0.095-0.001-0.142-0.002l0.007 0h-1.476l-0.409 2.101h-1.722l1.537-7.905h3.312c0.073-0.007 0.159-0.011 0.245-0.011 0.754 0 1.438 0.304 1.934 0.796l-0-0c0.319 0.41 0.511 0.933 0.511 1.5 0 0.246-0.036 0.483-0.103 0.707l0.004-0.017c-0.146 0.774-0.533 1.441-1.079 1.934l-0.003 0.003zM16 8.112c-8.281 0-14.996 3.531-14.996 7.888s6.714 7.889 14.996 7.889 14.996-3.533 14.996-7.889-6.714-7.888-14.996-7.888zM9.764 13.759h-1.18l-0.644 3.309h1.047c0.056 0.004 0.121 0.007 0.187 0.007 0.507 0 0.979-0.149 1.375-0.405l-0.010 0.006c0.371-0.329 0.622-0.786 0.686-1.301l0.001-0.010c0.049-0.138 0.077-0.297 0.077-0.462 0-0.29-0.086-0.561-0.235-0.786l0.003 0.005c-0.297-0.234-0.676-0.376-1.089-0.376-0.077 0-0.154 0.005-0.229 0.015l0.009-0.001z">
			</path>
		</symbol>

		<symbol id="c" version="1.0" viewBox="0 0 512.000000 512.000000">
			<g transform="translate(0.000000,512.000000) scale(0.100000,-0.100000)"
			fill="#000000" stroke="none">
			<path d="M2375 5054 c-16 -2 -73 -9 -125 -15 -435 -49 -869 -231 -1240 -518
			-110 -85 -327 -302 -412 -412 -277 -358 -445 -751 -515 -1206 -23 -150 -23
			-536 0 -686 112 -727 493 -1334 1087 -1732 330 -221 669 -348 1085 -407 135
			-19 503 -16 650 5 373 55 731 192 1035 395 617 413 996 1025 1102 1777 17 119
			16 493 -1 615 -88 635 -394 1199 -866 1597 -357 302 -802 502 -1265 568 -108
			16 -467 29 -535 19z m480 -1139 c107 -19 268 -71 357 -116 360 -180 622 -530
			697 -931 l8 -48 -366 0 -366 0 -19 48 c-34 82 -95 169 -165 234 -116 107 -248
			158 -411 158 -373 0 -640 -294 -640 -704 0 -254 105 -468 289 -590 189 -125
			430 -140 633 -39 128 65 250 210 295 354 l18 59 368 0 367 0 0 -24 c0 -44 -58
			-249 -94 -335 -174 -412 -531 -696 -980 -778 -128 -24 -398 -23 -526 2 -510
			97 -899 432 -1054 907 -48 146 -67 274 -67 442 0 243 41 428 140 631 208 426
			597 688 1111 749 71 8 317 -3 405 -19z"/>
			</g>
		</symbol>

		<symbol id="cplus" viewBox="-16 0 288 288" version="1.1">
			<g>				
				<path d="M248.728,148.661 L239.006,148.661 L239.006,158.385 L229.282,158.385 L229.282,148.661 L219.561,148.661 L219.561,138.94 L229.282,138.94 L229.282,129.218 L239.006,129.218 L239.006,138.94 L248.728,138.94 L248.728,148.661">
				</path>
				<path d="M213.253,148.661 L203.532,148.661 L203.532,158.385 L193.81,158.385 L193.81,148.661 L184.088,148.661 L184.088,138.94 L193.81,138.94 L193.81,129.218 L203.532,129.218 L203.532,138.94 L213.253,138.94 L213.253,148.661" >
				</path>
				<path d="M164.619,164.616 C157.371,177.47 143.598,186.157 127.791,186.157 C112.081,186.157 98.386,177.579 91.101,164.861 C87.562,158.681 85.527,151.526 85.527,143.893 C85.527,120.552 104.45,101.63 127.791,101.63 C143.4,101.63 157.023,110.101 164.344,122.689 L201.285,101.417 C186.602,76.071 159.189,59.019 127.791,59.019 C80.915,59.019 42.916,97.019 42.916,143.893 C42.916,159.271 47.007,173.692 54.157,186.131 C68.803,211.611 96.294,228.768 127.791,228.768 C159.346,228.768 186.88,211.542 201.505,185.987 L164.619,164.616">
				</path>
			</g>
		</symbol>

		<symbol id="nodejs" viewBox="0 0 48 48">
			<g id="Layer_2" data-name="Layer 2">
				<g id="invisible_box" data-name="invisible box">
				<rect width="48" height="48" fill="none"/>
				</g>
				<g id="Q3_icons" data-name="Q3 icons">
				<g>
					<path d="M42.3,11.8,25.7,2.4a4,4,0,0,0-3.4,0L5.7,11.8A3.4,3.4,0,0,0,4,14.7V33.3a3.4,3.4,0,0,0,1.7,2.9l4.4,2.5a7.2,7.2,0,0,0,3.8,1c3.1,0,4.9-1.9,4.9-5.1V16.3a.5.5,0,0,0-.5-.5H16.2a.5.5,0,0,0-.5.5V34.6c0,1.5-1.5,2.9-3.9,1.7L7.2,33.7a.5.5,0,0,1-.2-.4V14.7a.8.8,0,0,1,.2-.5L23.7,4.9h.6l16.5,9.3a.8.8,0,0,1,.2.5V33.3a.5.5,0,0,1-.2.4L24.3,43a.6.6,0,0,1-.6,0l-4.2-2.4a.3.3,0,0,0-.4,0l-2.5,1.1c-.3.1-.7.2.1.7l5.6,3.1a3.1,3.1,0,0,0,3.4,0l16.6-9.3A3.4,3.4,0,0,0,44,33.3V14.7A3.4,3.4,0,0,0,42.3,11.8Z"/>
					<path d="M29.1,30.3c-4.4,0-5.3-1-5.7-3.1a.4.4,0,0,0-.4-.4H20.8a.4.4,0,0,0-.4.4c0,2.7,1.5,6,8.7,6,5.2,0,8.2-2,8.2-5.5s-2.4-4.5-7.5-5.1-5.6-1-5.6-2.2.4-2.2,4.2-2.2,4.7.7,5.2,2.9a.5.5,0,0,0,.5.4h2.1l.4-.2a.4.4,0,0,0,.1-.3c-.3-3.9-3-5.7-8.3-5.7s-7.5,2-7.5,5.2,2.8,4.5,7.3,5,5.9,1.2,5.9,2.3S32.6,30.3,29.1,30.3Z"/>
				</g>
				</g>
			</g>
		</symbol>

		<symbol id="python" viewBox="0 0 20 20" version="1.1">
				<g stroke="none" stroke-width="1" fill="none" fill-rule="evenodd">
					<g transform="translate(-340.000000, -7599.000000)" fill="#000000">
						<g transform="translate(56.000000, 160.000000)">
							<path d="M296.744,7457.45798 C296.262,7457.45798 295.872,7457.06594 295.872,7456.58142 C295.872,7456.0969 296.262,7455.70587 296.744,7455.70587 C297.226,7455.70587 297.616,7456.0969 297.616,7456.58142 C297.616,7457.06594 297.226,7457.45798 296.744,7457.45798 M294.072,7459 C299.15,7459 298.833,7456.78649 298.833,7456.78649 L298.827,7454.49357 L293.982,7454.49357 L293.982,7453.80499 L300.751,7453.80499 C300.751,7453.80499 304,7454.17591 304,7449.02614 C304,7443.87636 301.165,7444.0583 301.165,7444.0583 L299.472,7444.0583 L299.472,7446.44873 C299.472,7446.44873 299.563,7449.29855 296.682,7449.29855 L291.876,7449.29855 C291.876,7449.29855 289.176,7449.25533 289.176,7451.9222 L289.176,7456.33112 C289.176,7456.33112 288.766,7459 294.072,7459 M291.257,7440.54202 C291.739,7440.54202 292.128,7440.93406 292.128,7441.41858 C292.128,7441.9031 291.739,7442.29413 291.257,7442.29413 C290.775,7442.29413 290.385,7441.9031 290.385,7441.41858 C290.385,7440.93406 290.775,7440.54202 291.257,7440.54202 M293.928,7439 C288.851,7439 289.168,7441.21351 289.168,7441.21351 L289.174,7443.50643 L294.019,7443.50643 L294.019,7444.19501 L287.249,7444.19501 C287.249,7444.19501 284,7443.82409 284,7448.97386 C284,7454.12364 286.836,7453.9417 286.836,7453.9417 L288.528,7453.9417 L288.528,7451.55127 C288.528,7451.55127 288.437,7448.70145 291.319,7448.70145 L296.124,7448.70145 C296.124,7448.70145 298.824,7448.74467 298.824,7446.0778 L298.824,7441.66888 C298.824,7441.66888 299.234,7439 293.928,7439">
							</path>
						</g>
					</g>
				</g>
		</symbol>

		<symbol id="figma" viewBox="0 0 256 256">
			<g opacity="0.2">
				<circle cx="162" cy="128" r="34"/>
				<path d="M94,94.001,128,94V26.001H94a34,34,0,0,0,0,68Z"/>
				<path d="M60,195.99951a34,34,0,0,0,68,0V161.999L94,162A33.99971,33.99971,0,0,0,60,195.99951Z"/>
			</g>
			<path d="M186.61523,94.00049A41.97934,41.97934,0,0,0,162,18.001H94A41.97934,41.97934,0,0,0,69.38477,94.00049a41.93894,41.93894,0,0,0,.00048,67.99939A41.9892,41.9892,0,1,0,136,195.99951V160.948a41.97356,41.97356,0,1,0,50.61523-66.94751ZM188,60.001a26.02916,26.02916,0,0,1-25.98047,25.99951L162,86l-.03857.001L136,86V34.001h26A26.02947,26.02947,0,0,1,188,60.001Zm-120,0a26.02947,26.02947,0,0,1,26-26h26V86H94l-.019.00049A26.02934,26.02934,0,0,1,68,60.001ZM68,128a26.02926,26.02926,0,0,1,25.981-25.99951L94,102.001l26-.00074V153.999L94,154A26.02947,26.02947,0,0,1,68,128Zm26,93.999A25.99951,25.99951,0,1,1,94,170l26-.00073v26.00024A26.02937,26.02937,0,0,1,94,221.999ZM162,154a25.99952,25.99952,0,0,1-.03857-51.999H162l.019-.00049A25.99976,25.99976,0,0,1,162,154Z"/>
		</symbol>

		<symbol id="github" viewBox="0 0 32 32">
			<g fill="none" fill-rule="evenodd">
			<path d="m0 0h32v32h-32z"/>
			<path d="m16 0c8.836556 0 16 7.163444 16 16s-7.163444 16-16 16-16-7.163444-16-16 7.163444-16 16-16zm-.0080357 7.00602603c-4.9680804-.00200817-8.9919643 4.01986687-8.9919643 8.98392937 0 3.9254464 2.5171875 7.2622767 6.0227679 8.4877232.4720982.1185268.3997767-.2169643.3997767-.4459822v-1.5569196c-2.726116.3194196-2.8366071-1.4845982-3.0194196-1.7859375-.3696429-.6308036-1.24352679-.7915179-.98236607-1.0928572.62075897-.3194196 1.25357147.0803572 1.98683037 1.1631697.5303571.7854911 1.5649553.6529018 2.0892857.5223214.1145089-.4720982.3595982-.8939732.6970982-1.2214286-2.8245536-.50625-4.0017857-2.2299107-4.0017857-4.2790178 0-.9944197.3274554-1.9084822.9703125-2.6457589-.4098214-1.2154018.0381696-2.2560268.0984375-2.4107143 1.1671875-.1044643 2.3805804.8357143 2.475.9100446.6629464-.1787946 1.4203125-.2732143 2.2680804-.2732143.8517857 0 1.6111607.0984375 2.2801339.2792411.2270089-.1727679 1.3520089-.9803571 2.4368303-.8819196.058259.1546875.4962054 1.1712053.1104911 2.3705357.6508929.7392857.9823661 1.6613839.9823661 2.6578125 0 2.053125-1.1852679 3.7787946-4.0178572 4.2770089.4720983.4660714.7654018 1.1129464.7654018 1.828125v2.2600446c.0160715.1808036 0 .3595983.3013393.3595983 3.5578125-1.1993304 6.1191964-4.5602679 6.1191964-8.5198661 0-4.9660714-4.0258928-8.98593827-8.9899553-8.98593827z" fill="#000000"/>
			</g>
		</symbol>

		<symbol id="website" version="1.2" viewBox="0 0 256 256">
			<path d="M237,19H19c-8.2,0-14.9,6.7-14.9,14.9v188.3c0,8.2,6.7,14.9,14.9,14.9h218c8.2,0,14.9-6.7,14.9-14.9V33.9
				C251.9,25.7,245.2,19,237,19z M199.8,28.9c5.4,0,9.9,4.5,9.9,9.9c0,5.5-4.5,9.9-9.9,9.9s-9.9-4.5-9.9-9.9S194.4,28.9,199.8,28.9z
				M172.6,28.9c5.4,0,9.9,4.5,9.9,9.9c0,5.5-4.5,9.9-9.9,9.9s-9.9-4.5-9.9-9.9S167.1,28.9,172.6,28.9z M237,223.9H19V58.6h218V223.9z
				M227.1,48.7c-5.4,0-9.9-4.5-9.9-9.9s4.5-9.9,9.9-9.9s9.9,4.5,9.9,9.9C237,44.3,232.5,48.7,227.1,48.7z M96,74h76.1v14.4H96V74z
				M126,106.9h96.3v14.3H126V106.9z M126,135.5h96.3v14.3H126V135.5z M126,164.5h96.3v14.3H126V164.5z M32.6,193.1h189.8v14.3H32.6
				V193.1z M32.6,106.9h67.8v70.7H32.6V106.9z"/>
		</symbol>

		<symbol id="academia" fill="#000000" viewBox="0 0 512 512">
			<path d="M256,368a16,16,0,0,1-7.94-2.11L108,285.84a8,8,0,0,0-12,6.94V368a16,16,0,0,0,8.23,14l144,80a16,16,0,0,0,15.54,0l144-80A16,16,0,0,0,416,368V292.78a8,8,0,0,0-12-6.94L263.94,365.89A16,16,0,0,1,256,368Z"/><path d="M495.92,190.5s0-.08,0-.11a16,16,0,0,0-8-12.28l-224-128a16,16,0,0,0-15.88,0l-224,128a16,16,0,0,0,0,27.78l224,128a16,16,0,0,0,15.88,0L461,221.28a2,2,0,0,1,3,1.74V367.55c0,8.61,6.62,16,15.23,16.43A16,16,0,0,0,496,368V192A14.76,14.76,0,0,0,495.92,190.5Z"/>
		</symbol>

		<symbol id="trabalho" viewBox="0 0 512 512" version="1.1">
			<g stroke="none" stroke-width="1" fill="none" fill-rule="evenodd">
				<g fill="#000000" transform="translate(42.666667, 64.000000)">
					<path d="M1.20792265e-13,197.76 C54.5835501,218.995667 112.186031,231.452204 170.666667,234.666667 L170.666667,277.333333 L256,277.333333 L256,234.666667 C314.339546,231.013 371.833936,218.86731 426.666667,198.613333 L426.666667,362.666667 L1.20792265e-13,362.666667 L1.20792265e-13,197.76 Z M277.333333,-1.42108547e-14 L298.666667,21.3333333 L298.666667,64 L426.666667,64 L426.666667,175.146667 C361.254942,199.569074 292.110481,212.488551 222.293333,213.333333 L222.293333,213.333333 L206.933333,213.333333 C136.179047,212.568604 66.119345,199.278929 7.10542736e-15,174.08 L7.10542736e-15,174.08 L7.10542736e-15,64 L128,64 L128,21.3333333 L149.333333,-1.42108547e-14 L277.333333,-1.42108547e-14 Z M256,42.6666667 L170.666667,42.6666667 L170.666667,64 L256,64 L256,42.6666667 Z">
					</path>
				</g>
			</g>
		</symbol>

	</defs>
</svg>