<svg version="1.0" xmlns="http://www.w3.org/2000/svg"
 width="48.000000pt" height="35.000000pt" viewBox="0 0 48.000000 35.000000"
 preserveAspectRatio="xMidYMid meet">

<g transform="translate(0.000000,35.000000) scale(0.100000,-0.100000)"
fill="#000000" stroke="none">
<path d="M72 328 c-5 -7 -13 -39 -17 -71 -5 -41 -13 -60 -26 -68 -24 -12 -24
-25 0 -32 14 -3 20 -18 26 -63 8 -68 18 -84 51 -84 30 0 31 12 2 25 -19 8 -24
19 -26 60 -2 27 -10 57 -18 66 -13 14 -13 18 0 28 9 8 16 34 18 64 2 43 7 54
26 62 12 5 22 13 22 17 0 13 -47 9 -58 -4z"/>
<path d="M350 333 c0 -5 10 -13 23 -18 18 -8 23 -19 25 -60 2 -27 9 -57 17
-65 11 -13 11 -18 -1 -34 -8 -11 -14 -39 -14 -62 0 -35 -5 -46 -27 -63 l-28
-20 26 -1 c37 0 49 19 56 86 5 44 10 58 25 62 24 6 23 19 -2 32 -15 8 -20 21
-20 53 0 57 -19 91 -53 95 -15 2 -27 0 -27 -5z"/>
<path d="M150 211 c0 -5 16 -19 36 -32 40 -24 41 -22 -21 -63 -11 -8 -17 -17
-12 -22 8 -8 88 44 94 61 1 6 -17 22 -41 38 -46 29 -56 32 -56 18z"/>
<path d="M270 100 c0 -5 16 -10 35 -10 19 0 35 5 35 10 0 6 -16 10 -35 10 -19
0 -35 -4 -35 -10z"/>
</g>
</svg>
