<svg width="0" height="0" xmlns="http://www.w3.org/2000/svg"><defs><symbol id="email" viewBox="0 0 24 24"><path d="M12 12.713L.015 3h23.97L12 12.713zm0 2.574L0 5.562V21h24V5.562l-12 9.725z"/></symbol><symbol id="facebook" viewBox="0 0 24 24"><path d="M12 0C5.373 0 0 5.373 0 12s5.373 12 12 12 12-5.373 12-12S18.627 0 12 0zm3 8h-1.35c-.538 0-.65.221-.65.778V10h2l-.209 2H13v7h-3v-7H8v-2h2V7.692C10 5.923 10.931 5 13.029 5H15v3z"/></symbol><symbol id="instagram" viewBox="0 0 24 24"><path d="M14.829 6.302c-.738-.034-.96-.04-2.829-.04s-2.09.007-2.828.04c-1.899.087-2.783.986-2.87 2.87-.033.738-.041.959-.041 2.828s.008 2.09.041 2.829c.087 1.879.967 2.783 2.87 2.87.737.033.959.041 2.828.041 1.87 0 2.091-.007 2.829-.041 1.899-.086 2.782-.988 2.87-2.87.033-.738.04-.96.04-2.829s-.007-2.09-.04-2.828c-.088-1.883-.973-2.783-2.87-2.87zM12 15.595a3.595 3.595 0 1 1 0-7.19 3.595 3.595 0 0 1 0 7.19zm3.737-6.491a.84.84 0 1 1 0-1.68.84.84 0 0 1 0 1.68zM14.333 12a2.333 2.333 0 1 1-4.666 0 2.333 2.333 0 0 1 4.666 0zM12 0C5.373 0 0 5.373 0 12s5.373 12 12 12 12-5.373 12-12S18.627 0 12 0zm6.958 14.886c-.115 2.545-1.532 3.955-4.071 4.072-.747.034-.986.042-2.887.042s-2.139-.008-2.886-.042c-2.544-.117-3.955-1.529-4.072-4.072C5.008 14.14 5 13.901 5 12c0-1.901.008-2.139.042-2.886.117-2.544 1.529-3.955 4.072-4.071C9.861 5.008 10.099 5 12 5s2.14.008 2.887.043c2.545.117 3.957 1.532 4.071 4.071.034.747.042.985.042 2.886 0 1.901-.008 2.14-.042 2.886z"/></symbol><symbol id="linkedin" viewBox="0 0 24 24"><path d="M12 0C5.373 0 0 5.373 0 12s5.373 12 12 12 12-5.373 12-12S18.627 0 12 0zm-2 16H8v-6h2v6zM9 9.109c-.607 0-1.1-.496-1.1-1.109 0-.612.492-1.109 1.1-1.109s1.1.497 1.1 1.109c0 .613-.493 1.109-1.1 1.109zM17 16h-1.998v-2.861c0-1.881-2.002-1.722-2.002 0V16h-2v-6h2v1.093c.872-1.616 4-1.736 4 1.548V16z"/></symbol><symbol id="location" viewBox="0 0 24 24"><path d="M12 1C8.852 1 6 3.553 6 6.702 6 9.85 8.602 13.609 12 19c3.398-5.391 6-9.15 6-12.298C18 3.553 15.149 1 12 1zm0 8a2 2 0 1 1-.001-3.999A2 2 0 0 1 12 9zm8 6h-3.135a118.64 118.64 0 0 1-1.232 2h3.131l.5 1H15l-.344.544-.289.456h.558l.858 2H8.295l.858-2h.479l-.289-.456L9 18H6.958l-1.011-1h2.42c-.435-.691-.848-1.359-1.232-2H4l-4 8h24l-4-8zM7.206 21h-3.97L5 17.472 6.516 19h1.549l-.859 2zm8.808-2h3.75l1 2h-3.892l-.858-2z"/></symbol><symbol id="logo-original" viewBox="0 0 500 500"><path d="M118.444 372.02q0 8.02-7.84 8.02h-6.91q-.86 0-1.51-.31-.64-.3-1.07-.78-.43-.49-.64-1.11-.22-.63-.22-1.31 0-.64.22-1.27.21-.63.66-1.11.45-.48 1.11-.79.66-.3 1.52-.3h7.23q.72 0 1.06-.41.34-.42.34-.88 0-.5-.34-.93-.34-.43-1.06-.43h-3.58q-3.69 0-5.55-1.81-1.86-1.81-1.86-5.67 0-8.09 7.91-8.09h5.59q.89 0 1.57.3t1.15.79q.46.48.7 1.11.23.62.23 1.27 0 .64-.23 1.29-.24.64-.7 1.14-.47.5-1.16.81-.7.3-1.6.3h-6.01q-.72 0-1.04.41-.32.42-.32.92 0 .46.32.87.32.42 1.04.42h3.58q3.76 0 5.58 1.82 1.83 1.83 1.83 5.73zm15.39-13.85v18.54q0 1.72-1.04 2.6-1.03.87-2.43.87-1.43 0-2.45-.87-1.02-.88-1.02-2.6v-18.54q0-1.65 1.02-2.55 1.02-.89 2.45-.89 1.4 0 2.43.89 1.04.9 1.04 2.55zm20.69 3.68h-5.19v3.26h5.19q.72 0 1.08-.54.36-.53.36-1.21 0-.58-.34-1.04-.34-.47-1.1-.47zm0 8.34h-5.19v2.87h5.19q.76 0 1.1-.47.34-.46.34-.96 0-.54-.34-.99-.34-.45-1.1-.45zm-11.85 6.31v-18.16q0-3.5 3.16-3.5h10.99q1.32 0 2.32.55 1.01.56 1.69 1.47.68.91 1.02 2.09.34 1.18.34 2.4 0 2.15-.92 3.78-.91 1.63-2.84 2.06.96.1 1.73.64t1.31 1.4q.54.86.84 1.97.31 1.11.31 2.32 0 1.33-.36 2.51-.36 1.18-1.11 2.08-.75.89-1.95 1.41-1.2.52-2.85.52h-10.35q-3.33 0-3.33-3.54zm43.9 3.54h-11.82q-3.44 0-3.44-3.51v-18.19q0-3.5 3.44-3.5h11.82q1.64 0 2.56 1.03.91 1.04.91 2.47 0 1.44-.91 2.47-.92 1.04-2.56 1.04h-8.35v2.4h6.95q1.5 0 2.34.95.85.95.85 2.24 0 1.29-.85 2.24-.84.94-2.34.94h-6.95v2.44h8.35q1.64 0 2.56 1.02.91 1.02.91 2.45 0 1.43-.91 2.47-.92 1.04-2.56 1.04zm24.73-1.65l-4.22-7.87q-.18-.29-.36-.9-.18-.61-.14-1.32 0-1.36.71-2.17.72-.8 1.97-.8h.5q.9 0 1.44-.51.53-.5.53-1.57 0-.97-.53-1.36-.54-.4-1.65-.4h-3.76v14.97q0 3.58-3.47 3.58-3.51 0-3.51-3.51v-18.19q0-3.5 3.36-3.5h7.52q2.22 0 3.83.66 1.61.66 2.65 1.73 1.04 1.08 1.54 2.46t.5 2.81q0 2.57-1.23 4.36-1.24 1.79-2.99 2.51l3.33 5.23q.68 1.21.68 2.15 0 .75-.32 1.39-.33.65-.86 1.09-.54.45-1.22.7-.68.25-1.36.25-.82 0-1.63-.43-.81-.43-1.31-1.36zm22.13-20.22v18.54q0 1.72-1.04 2.6-1.04.87-2.43.87-1.44 0-2.46-.87-1.02-.88-1.02-2.6v-18.54q0-1.65 1.02-2.55 1.02-.89 2.46-.89 1.39 0 2.43.89 1.04.9 1.04 2.55zm19.94 6.98l-1.83 4.54h3.37l-1.54-4.54zm4.44 12.78l-1-2.76h-7.45l-1.11 2.76q-.5 1.14-1.33 1.7-.82.55-1.71.55-.72 0-1.38-.23-.66-.23-1.2-.66-.54-.43-.86-1.04-.32-.61-.32-1.36 0-.86.25-1.4l8.52-18.68q.43-.94 1.11-1.51.68-.57 2.11-.57 1.36 0 2.06.57t1.09 1.54l7.77 18.65q.25.65.25 1.4 0 .71-.32 1.32-.32.61-.84 1.04-.52.43-1.2.68-.68.25-1.36.25-1.08 0-1.88-.55-.81-.56-1.2-1.7zm27.78-11.75v-8.16q0-1.61.98-2.45.99-.84 2.38-.84 1.33 0 2.31.84.99.84.99 2.45v18.69q0 .82-.29 1.47-.29.64-.73 1.09-.45.45-1.04.68-.59.23-1.24.23-.86 0-1.68-.43t-1.43-1.36l-6.52-9.7v8.2q0 1.61-.98 2.45-.99.84-2.38.84-1.33 0-2.29-.84-.97-.84-.97-2.45v-18.72q0-.79.27-1.44.27-.64.73-1.09.47-.45 1.04-.68.57-.23 1.22-.23.89 0 1.72.41.82.41 1.43 1.34l6.48 9.7zm52.55 3.26l3.08-12.31q.32-1.26 1.13-1.83.8-.57 1.88-.57.64 0 1.25.23t1.09.66q.49.43.77 1.08.29.64.29 1.43 0 .29-.04.61-.03.32-.14.64l-5.8 18.37q-.43 1.25-1.41 1.84-.99.59-1.92.59-1.14 0-2.06-.62-.91-.63-1.34-1.81l-3.33-9.24-3.18 9.24q-.43 1.25-1.42 1.84-.98.59-1.91.59-1.15 0-2.1-.62-.95-.63-1.31-1.81l-6.15-18.51q-.11-.32-.22-.61t-.07-.57q0-.79.3-1.4.31-.61.79-1.04.49-.43 1.11-.66.63-.23 1.27-.23 1.04 0 1.9.55.86.56 1.22 1.81l3.43 12.35 3.26-12.17q.32-1.25 1.24-1.9.91-.64 1.98-.64 1.01 0 1.96.64.94.65 1.27 1.9l3.18 12.17zm33.51 10.6h-11.81q-3.44 0-3.44-3.51v-18.19q0-3.5 3.44-3.5h11.81q1.65 0 2.56 1.03.91 1.04.91 2.47 0 1.44-.91 2.47-.91 1.04-2.56 1.04h-8.34v2.4h6.95q1.5 0 2.34.95.84.95.84 2.24 0 1.29-.84 2.24-.84.94-2.34.94h-6.95v2.44h8.34q1.65 0 2.56 1.02.91 1.02.91 2.45 0 1.43-.91 2.47-.91 1.04-2.56 1.04zm24.09-18.19h-5.19v3.26h5.19q.72 0 1.08-.54.36-.53.36-1.21 0-.58-.34-1.04-.34-.47-1.1-.47zm0 8.34h-5.19v2.87h5.19q.76 0 1.1-.47.34-.46.34-.96 0-.54-.34-.99-.34-.45-1.1-.45zm-11.84 6.31v-18.16q0-3.5 3.15-3.5h10.99q1.32 0 2.32.55 1.01.56 1.69 1.47.68.91 1.02 2.09.34 1.18.34 2.4 0 2.15-.92 3.78-.91 1.63-2.84 2.06.96.1 1.73.64t1.31 1.4q.54.86.84 1.97.31 1.11.31 2.32 0 1.33-.36 2.51-.36 1.18-1.11 2.08-.75.89-1.95 1.41-1.2.52-2.85.52h-10.35q-3.32 0-3.32-3.54zm-229.91 35.97q0 8.02-7.84 8.02h-6.91q-.86 0-1.51-.3-.64-.31-1.07-.79-.43-.48-.64-1.11-.22-.62-.22-1.31 0-.64.22-1.27.21-.62.66-1.11.45-.48 1.11-.78.66-.31 1.52-.31h7.23q.72 0 1.06-.41.34-.41.34-.88 0-.5-.34-.93-.34-.43-1.06-.43h-3.58q-3.69 0-5.55-1.8-1.86-1.81-1.86-5.68 0-8.09 7.91-8.09h5.59q.89 0 1.57.3.68.31 1.15.79.46.49.7 1.11.23.63.23 1.27 0 .65-.23 1.29-.24.65-.7 1.15-.47.5-1.17.8-.69.31-1.59.31h-6.01q-.72 0-1.04.41-.32.41-.32.91 0 .47.32.88.32.41 1.04.41h3.58q3.76 0 5.58 1.83 1.83 1.82 1.83 5.72zm8.05-4.58q0-2.68 1-5.01 1.01-2.33 2.76-4.08 1.76-1.76 4.08-2.76 2.33-1 5.01-1 2.69 0 5.03 1 2.35 1 4.09 2.76 1.73 1.75 2.75 4.08t1.02 5.01q0 2.69-1.02 5.01-1.02 2.33-2.75 4.08-1.74 1.76-4.09 2.76-2.34 1-5.03 1-2.68 0-5.01-1-2.32-1-4.08-2.76-1.75-1.75-2.76-4.08-1-2.32-1-5.01zm7.06.11q0 1.22.46 2.27.47 1.06 1.25 1.85.79.78 1.85 1.23 1.05.45 2.27.45t2.27-.45q1.06-.45 1.87-1.23.8-.79 1.27-1.85.46-1.05.46-2.27t-.46-2.29q-.47-1.08-1.27-1.86-.81-.79-1.87-1.26-1.05-.46-2.27-.46t-2.27.46q-1.06.47-1.85 1.26-.78.78-1.25 1.86-.46 1.07-.46 2.29zm37.62 12.49h-7.16q-3.44 0-3.44-3.51v-18.36q0-1.65 1.02-2.54 1.02-.9 2.42-.9t2.44.9q1.03.89 1.03 2.54v14.89h3.69q1.61 0 2.45 1.02.84 1.02.84 2.45 0 1.44-.84 2.48-.84 1.03-2.45 1.03zm31.33-21.87v11.06q0 11.06-10.14 11.06-10.27 0-10.27-11.06v-11.06q0-1.65 1.04-2.54 1.04-.9 2.43-.9 1.43 0 2.45.9 1.03.89 1.03 2.54v12.14q0 3.07 3.25 3.07 3.26 0 3.26-3.07v-12.14q0-.82.29-1.47.28-.64.75-1.07.46-.43 1.09-.66.63-.24 1.31-.24 1.43 0 2.47.9 1.04.89 1.04 2.54zm20.62 3.69v14.85q0 1.72-1.04 2.6-1.04.88-2.47.88-1.4 0-2.42-.88t-1.02-2.6v-14.85h-2.43q-1.65 0-2.56-1.04-.92-1.04-.92-2.47 0-1.43.92-2.47.91-1.04 2.56-1.04h11.74q1.65 0 2.58 1.04.93 1.04.93 2.47 0 1.43-.93 2.47-.93 1.04-2.58 1.04h-2.36zm20.8-3.69v18.54q0 1.72-1.04 2.6-1.04.88-2.44.88-1.43 0-2.45-.88-1.02-.88-1.02-2.6v-18.54q0-1.65 1.02-2.54 1.02-.9 2.45-.9 1.4 0 2.44.9 1.04.89 1.04 2.54zm8.37 9.27q0-2.68 1.01-5.01 1-2.33 2.75-4.08 1.76-1.76 4.08-2.76 2.33-1 5.02-1 2.68 0 5.03 1 2.34 1 4.08 2.76 1.73 1.75 2.75 4.08t1.02 5.01q0 2.69-1.02 5.01-1.02 2.33-2.75 4.08-1.74 1.76-4.08 2.76-2.35 1-5.03 1-2.69 0-5.02-1-2.32-1-4.08-2.76-1.75-1.75-2.75-4.08-1.01-2.32-1.01-5.01zm7.06.11q0 1.22.46 2.27.47 1.06 1.25 1.85.79.78 1.85 1.23 1.05.45 2.27.45t2.28-.45q1.05-.45 1.86-1.23.8-.79 1.27-1.85.46-1.05.46-2.27t-.46-2.29q-.47-1.08-1.27-1.86-.81-.79-1.86-1.26-1.06-.46-2.28-.46-1.22 0-2.27.46-1.06.47-1.85 1.26-.78.78-1.25 1.86-.46 1.07-.46 2.29zm39.91-1.36v-8.16q0-1.61.99-2.46.98-.84 2.38-.84 1.32 0 2.31.84.98.85.98 2.46v18.68q0 .83-.28 1.47-.29.65-.74 1.09-.45.45-1.04.68-.59.24-1.23.24-.86 0-1.68-.43-.83-.43-1.44-1.36l-6.51-9.71v8.2q0 1.61-.99 2.46-.98.84-2.38.84-1.32 0-2.29-.84-.96-.85-.96-2.46v-18.72q0-.79.26-1.43.27-.65.74-1.09.46-.45 1.04-.68.57-.24 1.21-.24.9 0 1.72.41.82.42 1.43 1.35l6.48 9.7zm33.69 5.83q0 8.02-7.84 8.02h-6.91q-.86 0-1.5-.3-.65-.31-1.08-.79-.43-.48-.64-1.11-.22-.62-.22-1.31 0-.64.22-1.27.21-.62.66-1.11.45-.48 1.11-.78.66-.31 1.52-.31h7.23q.72 0 1.06-.41.34-.41.34-.88 0-.5-.34-.93-.34-.43-1.06-.43h-3.58q-3.68 0-5.54-1.8-1.87-1.81-1.87-5.68 0-8.09 7.92-8.09h5.58q.9 0 1.58.3.68.31 1.14.79.47.49.7 1.11.23.63.23 1.27 0 .65-.23 1.29-.23.65-.7 1.15-.46.5-1.16.8-.7.31-1.6.31h-6.01q-.72 0-1.04.41-.32.41-.32.91 0 .47.32.88.32.41 1.04.41h3.58q3.76 0 5.59 1.83 1.82 1.82 1.82 5.72z" fill="#B64926"/><path d="M402.019 457.222h-300.08c-2.159 0-3.598 1.19-3.598 2.975s1.44 2.975 3.598 2.975h299.72c2.159 0 3.598-1.19 3.598-2.975s-1.44-2.975-3.238-2.975z" fill="#b64926"/><g fill="#b64926"><path d="M271.271 110.298c2.167 0 3.91-1.765 3.91-3.932 0-2.19-1.743-3.955-3.91-3.955-2.144 0-3.887 1.765-3.887 3.955 0 2.167 1.743 3.932 3.887 3.932zm-32.328.872c2.636 0 4.759-2.145 4.759-4.804s-2.123-4.826-4.759-4.826-4.781 2.167-4.781 4.826 2.145 4.803 4.781 4.803z"/><path d="M442.62 262.592a2.232 2.232 0 0 0-3.505-1.023c-.194.154-19.672 15.52-35.854 16.834-14.167 1.177-28.57-9.618-31.66-12.082-1.79-18.582-15.811-36.935-23.42-46.873-2.244-2.929-4.181-5.458-4.621-6.488-2.54-5.818-19.62-21.207-26.488-23.868-4.592-1.776-15.894-10.998-20.664-15.076-.612-9.155-3.085-14.922-8-18.532-3.497-2.565-5.803-8.85-6.784-12.426 2.429-1.54 4.136-3.682 4.768-6.09.443-1.743.396-3.667-.13-5.685-.008-.035-.024-.073-.035-.109l-.016-.05c-.57-2.213-1.758-4.561-3.431-6.858.444-6.294.026-13.13-1.202-20.353.062-.286.071-.588.015-.892 0 0-.12-.632-.449-1.727-2.259-11.414-5.862-20.105-6.827-22.312 2.339-34.453-10.26-39.049-11.712-39.462a2.305 2.305 0 0 0-.98-.054c-8.122 1.37-12.769 14.536-14.4 20.18-5.328-1.346-12.143-.606-15.614-.07-2.592-12.205-8.6-18.041-8.868-18.296a2.235 2.235 0 0 0-2.982-.087c-18.271 15.458-20.059 28.227-21.364 37.55-.558 3.979-1.038 7.417-2.631 10.306-3.271 5.916-3.935 11.698-4.469 16.345-.366 3.19-.681 5.945-1.736 7.652-3.237 5.273-9.58 20.945-.185 30.012 6.256 6.032 4.446 9.169 2.35 12.803l-.567 1c-1.464 2.656-.677 6.246.154 10.046.697 3.182 1.486 6.79.567 8.964-2.14 5.143-4.481 14.135-.111 32.761 3.1 13.146 2.057 24.623 1.452 29.871-11.359-3.432-19.321-2.203-23.11 3.606-5.85 8.948-6.843 25.583-2.049 34.232 2.243 4.048 5.574 6.18 9.643 6.18.082 0 .163 0 .245-.003 7.418-.174 12.77-3.246 15.984-9.084 3.829 1.394 11.733 3.544 20.114 3.544 2.607 0 5.259-.21 7.844-.713 12.174-2.368 12.069-26.356 11.376-37.268 2.654 2.493 5.146 4.482 7.444 5.938-.013 1.07-.069 2.103-.212 3.086-.835 5.86-.543 14.146-.234 22.92.397 11.338.893 25.454-2.042 28.477l-1.104 1.137c-5.337 5.491-8.863 9.12-7.297 15.199.644 2.531 3.725 4.046 9.699 4.767 1.941.233 4.872.398 8.141.398 8.005 0 18.027-.98 20.434-4.305.965-1.03 4.198-5.163 4.285-14.366.056-5.018.967-18.197 2.51-31.307 4.838 6.832 13.902 18.715 20.582 22.147.476 2.065.208 2.677.226 2.692-.025.01-.123.047-.349.054-6.908.275-14.538 5.56-16.327 11.314-1.003 3.221-.027 6.23 2.679 8.255 2.285 1.71 8.32 2.56 18.036 2.56 9.473 0 22.447-.81 38.85-2.435.33-.033.576-.058.77-.076 1.91.606 3.857.925 5.814.925.71 0 1.423-.04 2.134-.12 7.54-.876 13.17-3.227 17.127-7.152 3.063 2.833 9.966 7.927 20.27 8.172 3.859.099 6.743.541 9.288.934 2.323.36 4.459.688 6.858.688 3.72 0 8.093-.804 14.77-3.498 9.194.614 17.087-3.302 25.53-12.594 10.957-12.062 1.864-39.071 1.47-40.215zM261.772 44.015c1.894 1.088 9.204 6.917 8.268 31.077l-1.653-1.23c-.5-4.61-2.326-18.288-6.685-22.197a2.234 2.234 0 0 0-3.28.326c-.17.228-3.498 4.75-4.664 10.525a32.302 32.302 0 0 0-2.34-1.285c1.868-6.653 5.832-15.755 10.354-17.216zm6.146 258.175c-.078 8.262-3.081 11.36-3.083 11.363-.183.17-.235.223-.353.44-1.292 1.283-10.418 2.86-20.371 2.402-6.864-.313-9.464-1.437-9.994-1.913-.81-3.395.885-5.346 6.211-10.824l1.108-1.144c3.973-4.09 3.897-14.723 3.298-31.743-.288-8.193-.585-16.662.192-22.127a28.84 28.84 0 0 0 .268-5.034c-.37-12.815-8.192-25.393-9.428-27.306-1.041-2.973.148-4.82 3.883-9.955.833-1.146 1.747-2.4 2.717-3.811 4.124-5.995 28.713-25.57 37.84-32.608a2.234 2.234 0 1 0-2.73-3.539c-1.361 1.05-33.428 25.818-38.792 33.613-.945 1.374-1.837 2.598-2.65 3.715-2.759 3.794-4.94 6.817-5.071 10.342-3.66-1.436-7.98-3.856-12.9-7.238-12.577-8.638-12.876-21.605-12.883-22.152-.009-1.231-1.054-2.158-2.247-2.214a2.232 2.232 0 0 0-2.22 2.248c.004.64.263 15.804 14.818 25.802 6.526 4.486 12.159 7.402 16.79 8.718 1.468 2.377 6.352 10.793 7.925 19.888-2.308-1.807-4.833-4.147-7.476-6.933-6.419-6.655-11.633-13.829-11.685-13.903a2.235 2.235 0 0 0-3.62 2.62c.209.287 4.874 6.708 10.975 13.212-.009.13-.049.252-.033.386 1.019 9.124 1.852 35.577-7.369 37.37-10.058 1.962-21.057-1.045-25.32-2.548 1.263-3.819 1.889-8.443 1.889-14.069a2.234 2.234 0 1 0-4.469 0c0 6.012-.78 10.872-2.323 14.453-2.36 5.538-6.477 8.186-12.96 8.336-2.456.147-4.406-1.214-5.883-3.874-3.975-7.168-3.025-22.116 1.881-29.625 3.767-5.771 14.497-3.081 20.561-.966 4.45 1.555 7.82 3.278 8.472 3.678.757.628 1.87.7 2.714.105a2.237 2.237 0 0 0 .537-3.117c-.798-1.128-5.787-3.192-8.589-4.27.588-4.91 2.058-17.598-1.43-32.372-4.074-17.364-2.015-25.45-.116-30.01 1.466-3.471.514-7.815-.324-11.644-.59-2.694-1.257-5.748-.605-6.933l.527-.925c2.25-3.9 5.648-9.796-3.119-18.25-6.702-6.466-2.294-19.27.885-24.451 1.577-2.55 1.946-5.764 2.373-9.486.514-4.475 1.097-9.55 3.939-14.694 1.993-3.613 2.553-7.612 3.145-11.848 1.23-8.778 2.748-19.632 18.144-33.3 1.816 2.395 5.031 7.616 6.521 15.802a53.925 53.925 0 0 1-2.153 4.147c-.664-5.144-2.103-10.289-2.344-11.127a2.234 2.234 0 0 0-3.369-1.25c-9.951 6.503-11.061 25.679-11.184 30.205-12.261 13.032-5.045 41.573-4.725 42.802a2.234 2.234 0 0 0 4.392-.429c.009-.13.885-13.112 9.739-24.4 4.137-5.272 6.025-5.645 8.418-6.114 2.983-.588 6.363-1.251 12.518-8.391 2.645-3.061 4.558-2.891 5.766-2.498 6.12 2.002 11.71 16.64 11.989 20.116.094 1.186 1.162 2.11 2.292 2.053a2.235 2.235 0 0 0 2.167-2.187c.067-3.293.5-12.672 1.685-16.47.315-1.01.938-2.15 1.742-2.315.44-.094 2.114-.085 5.371 3.725 4.268 5.002 6.211 10.015 7.009 12.643 1.173 6.077 1.745 11.86 1.709 17.263-1.173-1.019-2.408-1.944-3.675-2.705-6.073-3.669-9.598-9.397-9.634-9.453a2.238 2.238 0 0 0-3.067-.753 2.232 2.232 0 0 0-.758 3.063c.163.272 4.098 6.711 11.149 10.97 2.292 1.385 4.506 3.36 6.229 5.558a20.87 20.87 0 0 1 2.015 3.095c-3.057-.043-6.756.272-8.51 1.863-.784.71-1.213 1.66-1.213 2.672 0 2.393 1.879 5 3.69 6.966-3.302.442-6.93-.451-10.219-2.603a2.235 2.235 0 0 0-2.444 3.74 21.029 21.029 0 0 0 7.404 3.036c-9.066 2.795-21.941 1.886-28.537-.303-6.796-2.241-12.39-.657-16.477.502-1.724.49-3.215.912-4.34.927h-.018c-1.91 0-6.462-4.92-9.362-9.354a2.233 2.233 0 0 0-3.092-.648 2.237 2.237 0 0 0-.65 3.092c1.75 2.677 7.844 11.379 13.117 11.379h.071c1.714-.027 3.548-.548 5.492-1.097 3.923-1.11 8.37-2.373 13.856-.559 3.62 1.2 10.141 2.315 17.11 2.315 5.464 0 11.19-.708 16.025-2.576-2.107 3.402-4.875 7.422-8.065 10.963-5.12 5.686-8.62 5.369-12.322 5.027-1.114-.1-2.267-.204-3.418-.132-2.801.165-4.803 1.912-6.743 3.604-1.977 1.724-3.829 3.367-6.532 3.317-4.06-.042-14.091-7.56-19.458-12.288a2.238 2.238 0 0 0-3.152.2 2.232 2.232 0 0 0 .199 3.152c1.548 1.365 15.326 13.331 22.357 13.405h.159c4.298 0 7.104-2.449 9.365-4.422 1.497-1.304 2.79-2.435 4.078-2.51.817-.05 1.75.033 2.741.122 3.972.364 9.43.862 16.048-6.488 4.504-5.002 8.204-10.887 10.516-14.94 1.381 3.807 3.734 8.68 7.322 11.314 3.867 2.842 5.732 7.534 6.215 15.572-8.338 15.07-30.487 34.983-30.713 35.186a2.236 2.236 0 0 0 2.377 3.715c9.77-4.222 13.593-3.465 15.005-2.638.625.366 1.481 1.103 1.704 3.273 1.292 12.645-.138 16.347-2.732 23.07-.74 1.914-1.577 4.086-2.46 6.738a44.61 44.61 0 0 0-1.101 3.934c-.979 4.042-1.915 9.466-2.86 16.584l-.007.052-.009.067c-2.001 14.971-3.201 31.691-3.268 37.556zm7.824-37.905c.596-4.412 1.202-8.203 1.812-11.34 1.816 1.642 4.32 3.61 7.147 5.024a130.438 130.438 0 0 0-.105 4.12l-.009.825c-.045 4.251 2.844 10.674 5.905 17.475.773 1.72 1.541 3.45 2.26 5.13-6.47-6.108-14.28-17.103-17.01-21.234zm71.06 47.525c-2.172.246-4.352-.004-6.495-.744-18.604-6.307-31.327-45.664-31.453-46.059a2.234 2.234 0 1 0-4.258 1.354c.48 1.512 10.724 33.168 27.442 45.295-31.318 2.844-45.195 2.004-47.657.163-1.195-.893-1.53-1.928-1.088-3.35 1.097-3.526 6.801-7.961 12.237-8.178 2.037-.08 3.152-1.045 3.729-1.839 1.548-2.133.898-5.315.277-7.524-1.001-3.537-2.931-7.827-4.976-12.369-2.598-5.78-5.545-12.33-5.51-15.592l.01-.83c.018-1.623.035-3.46.165-5.419.559-8.579 3.04-20.302 18.081-23.06 11.622-2.13 20.867 5.446 29.02 12.133 5.308 4.357 9.895 8.119 14.685 8.984 9.093 1.635 15.123 11.34 16.278 13.342.018.228.038.46.05.684.636 15.11 1.185 28.157-4.73 35.659-3.207 4.082-8.379 6.488-15.807 7.35zm91.046-12.017c-7.587 8.351-14.488 11.772-22.4 11.12-2.247-.19-4.54-.669-7.006-1.464a2.233 2.233 0 0 0-2.813 1.439c-.362 1.121.226 2.299 1.298 2.732-5.085 1.265-8.186.798-12.25.17-2.676-.413-5.712-.88-9.859-.985-9.066-.217-15.145-4.929-17.556-7.192 5.266-8.121 5.224-19.88 4.687-33.448 6.147 4.335 18.703 11.739 31.674 10.695 14.044-1.141 29.592-11.428 35.666-15.831 1.955 7.049 5.854 24.737-1.44 32.764z"/></g><path d="M72.243 295.928c.204-.078.415-.15.634-.222a16.756 16.756 0 0 1 1.398-.388c.246-.058.499-.112.759-.164l74.85-14.631c.562-.11 1.193-.167 1.85-.174a15.05 15.05 0 0 1 2.019.114c.677.082 1.346.208 1.97.372a9.71 9.71 0 0 1 1.704.607l35.04 16.788c.545.26 1.01.537 1.394.821.386.286.69.578.903.866.218.292.346.58.38.855.034.279-.026.543-.186.784a1.54 1.54 0 0 1-.168.209c-.066.067-.14.132-.223.194a2.357 2.357 0 0 1-.279.179 3.314 3.314 0 0 1-.333.162l-78.207 32.986a17.405 17.405 0 0 1-4.234 1.162 18.45 18.45 0 0 1-4.358.122c-1.407-.13-2.728-.433-3.874-.894-1.14-.46-2.1-1.074-2.796-1.833l-31.146-33.95c-.31-.336-.456-.69-.457-1.045-.002-.354.141-.711.41-1.06.267-.345.66-.68 1.16-.996.493-.31 1.096-.603 1.79-.864m79.39-24.752v-43.198l-82.28-9.968v63.134l82.28-9.968M70.635 207.5l80.393 13.047a3.886 3.886 0 0 1 1.658.715 5.48 5.48 0 0 1 1.332 1.416 7.17 7.17 0 0 1 .886 1.911 7.77 7.77 0 0 1 .323 2.218v45.543c0 .77-.114 1.52-.323 2.217a7.148 7.148 0 0 1-.886 1.912 5.549 5.549 0 0 1-1.332 1.416 3.904 3.904 0 0 1-1.658.714l-80.393 13.047a9.449 9.449 0 0 1-3.565-.08 7.872 7.872 0 0 1-2.984-1.342 6.905 6.905 0 0 1-2.052-2.405 7.043 7.043 0 0 1-.76-3.231V214.56c0-1.184.27-2.274.76-3.23a6.89 6.89 0 0 1 2.052-2.406 7.87 7.87 0 0 1 2.984-1.342 9.448 9.448 0 0 1 3.565-.082" fill="#b64926"/></symbol><symbol id="logo-white" viewBox="0 0 500 500"><path d="M118.444 372.02q0 8.02-7.84 8.02h-6.91q-.86 0-1.51-.31-.64-.3-1.07-.78-.43-.49-.64-1.11-.22-.63-.22-1.31 0-.64.22-1.27.21-.63.66-1.11.45-.48 1.11-.79.66-.3 1.52-.3h7.23q.72 0 1.06-.41.34-.42.34-.88 0-.5-.34-.93-.34-.43-1.06-.43h-3.58q-3.69 0-5.55-1.81-1.86-1.81-1.86-5.67 0-8.09 7.91-8.09h5.59q.89 0 1.57.3t1.15.79q.46.48.7 1.11.23.62.23 1.27 0 .64-.23 1.29-.24.64-.7 1.14-.47.5-1.16.81-.7.3-1.6.3h-6.01q-.72 0-1.04.41-.32.42-.32.92 0 .46.32.87.32.42 1.04.42h3.58q3.76 0 5.58 1.82 1.83 1.83 1.83 5.73zm15.39-13.85v18.54q0 1.72-1.04 2.6-1.03.87-2.43.87-1.43 0-2.45-.87-1.02-.88-1.02-2.6v-18.54q0-1.65 1.02-2.55 1.02-.89 2.45-.89 1.4 0 2.43.89 1.04.9 1.04 2.55zm20.69 3.68h-5.19v3.26h5.19q.72 0 1.08-.54.36-.53.36-1.21 0-.58-.34-1.04-.34-.47-1.1-.47zm0 8.34h-5.19v2.87h5.19q.76 0 1.1-.47.34-.46.34-.96 0-.54-.34-.99-.34-.45-1.1-.45zm-11.85 6.31v-18.16q0-3.5 3.16-3.5h10.99q1.32 0 2.32.55 1.01.56 1.69 1.47.68.91 1.02 2.09.34 1.18.34 2.4 0 2.15-.92 3.78-.91 1.63-2.84 2.06.96.1 1.73.64t1.31 1.4q.54.86.84 1.97.31 1.11.31 2.32 0 1.33-.36 2.51-.36 1.18-1.11 2.08-.75.89-1.95 1.41-1.2.52-2.85.52h-10.35q-3.33 0-3.33-3.54zm43.9 3.54h-11.82q-3.44 0-3.44-3.51v-18.19q0-3.5 3.44-3.5h11.82q1.64 0 2.56 1.03.91 1.04.91 2.47 0 1.44-.91 2.47-.92 1.04-2.56 1.04h-8.35v2.4h6.95q1.5 0 2.34.95.85.95.85 2.24 0 1.29-.85 2.24-.84.94-2.34.94h-6.95v2.44h8.35q1.64 0 2.56 1.02.91 1.02.91 2.45 0 1.43-.91 2.47-.92 1.04-2.56 1.04zm24.73-1.65l-4.22-7.87q-.18-.29-.36-.9-.18-.61-.14-1.32 0-1.36.71-2.17.72-.8 1.97-.8h.5q.9 0 1.44-.51.53-.5.53-1.57 0-.97-.53-1.36-.54-.4-1.65-.4h-3.76v14.97q0 3.58-3.47 3.58-3.51 0-3.51-3.51v-18.19q0-3.5 3.36-3.5h7.52q2.22 0 3.83.66 1.61.66 2.65 1.73 1.04 1.08 1.54 2.46t.5 2.81q0 2.57-1.23 4.36-1.24 1.79-2.99 2.51l3.33 5.23q.68 1.21.68 2.15 0 .75-.32 1.39-.33.65-.86 1.09-.54.45-1.22.7-.68.25-1.36.25-.82 0-1.63-.43-.81-.43-1.31-1.36zm22.13-20.22v18.54q0 1.72-1.04 2.6-1.04.87-2.43.87-1.44 0-2.46-.87-1.02-.88-1.02-2.6v-18.54q0-1.65 1.02-2.55 1.02-.89 2.46-.89 1.39 0 2.43.89 1.04.9 1.04 2.55zm19.94 6.98l-1.83 4.54h3.37l-1.54-4.54zm4.44 12.78l-1-2.76h-7.45l-1.11 2.76q-.5 1.14-1.33 1.7-.82.55-1.71.55-.72 0-1.38-.23-.66-.23-1.2-.66-.54-.43-.86-1.04-.32-.61-.32-1.36 0-.86.25-1.4l8.52-18.68q.43-.94 1.11-1.51.68-.57 2.11-.57 1.36 0 2.06.57t1.09 1.54l7.77 18.65q.25.65.25 1.4 0 .71-.32 1.32-.32.61-.84 1.04-.52.43-1.2.68-.68.25-1.36.25-1.08 0-1.88-.55-.81-.56-1.2-1.7zm27.78-11.75v-8.16q0-1.61.98-2.45.99-.84 2.38-.84 1.33 0 2.31.84.99.84.99 2.45v18.69q0 .82-.29 1.47-.29.64-.73 1.09-.45.45-1.04.68-.59.23-1.24.23-.86 0-1.68-.43t-1.43-1.36l-6.52-9.7v8.2q0 1.61-.98 2.45-.99.84-2.38.84-1.33 0-2.29-.84-.97-.84-.97-2.45v-18.72q0-.79.27-1.44.27-.64.73-1.09.47-.45 1.04-.68.57-.23 1.22-.23.89 0 1.72.41.82.41 1.43 1.34l6.48 9.7zm52.55 3.26l3.08-12.31q.32-1.26 1.13-1.83.8-.57 1.88-.57.64 0 1.25.23t1.09.66q.49.43.77 1.08.29.64.29 1.43 0 .29-.04.61-.03.32-.14.64l-5.8 18.37q-.43 1.25-1.41 1.84-.99.59-1.92.59-1.14 0-2.06-.62-.91-.63-1.34-1.81l-3.33-9.24-3.18 9.24q-.43 1.25-1.42 1.84-.98.59-1.91.59-1.15 0-2.1-.62-.95-.63-1.31-1.81l-6.15-18.51q-.11-.32-.22-.61t-.07-.57q0-.79.3-1.4.31-.61.79-1.04.49-.43 1.11-.66.63-.23 1.27-.23 1.04 0 1.9.55.86.56 1.22 1.81l3.43 12.35 3.26-12.17q.32-1.25 1.24-1.9.91-.64 1.98-.64 1.01 0 1.96.64.94.65 1.27 1.9l3.18 12.17zm33.51 10.6h-11.81q-3.44 0-3.44-3.51v-18.19q0-3.5 3.44-3.5h11.81q1.65 0 2.56 1.03.91 1.04.91 2.47 0 1.44-.91 2.47-.91 1.04-2.56 1.04h-8.34v2.4h6.95q1.5 0 2.34.95.84.95.84 2.24 0 1.29-.84 2.24-.84.94-2.34.94h-6.95v2.44h8.34q1.65 0 2.56 1.02.91 1.02.91 2.45 0 1.43-.91 2.47-.91 1.04-2.56 1.04zm24.09-18.19h-5.19v3.26h5.19q.72 0 1.08-.54.36-.53.36-1.21 0-.58-.34-1.04-.34-.47-1.1-.47zm0 8.34h-5.19v2.87h5.19q.76 0 1.1-.47.34-.46.34-.96 0-.54-.34-.99-.34-.45-1.1-.45zm-11.84 6.31v-18.16q0-3.5 3.15-3.5h10.99q1.32 0 2.32.55 1.01.56 1.69 1.47.68.91 1.02 2.09.34 1.18.34 2.4 0 2.15-.92 3.78-.91 1.63-2.84 2.06.96.1 1.73.64t1.31 1.4q.54.86.84 1.97.31 1.11.31 2.32 0 1.33-.36 2.51-.36 1.18-1.11 2.08-.75.89-1.95 1.41-1.2.52-2.85.52h-10.35q-3.32 0-3.32-3.54zm-229.91 35.97q0 8.02-7.84 8.02h-6.91q-.86 0-1.51-.3-.64-.31-1.07-.79-.43-.48-.64-1.11-.22-.62-.22-1.31 0-.64.22-1.27.21-.62.66-1.11.45-.48 1.11-.78.66-.31 1.52-.31h7.23q.72 0 1.06-.41.34-.41.34-.88 0-.5-.34-.93-.34-.43-1.06-.43h-3.58q-3.69 0-5.55-1.8-1.86-1.81-1.86-5.68 0-8.09 7.91-8.09h5.59q.89 0 1.57.3.68.31 1.15.79.46.49.7 1.11.23.63.23 1.27 0 .65-.23 1.29-.24.65-.7 1.15-.47.5-1.17.8-.69.31-1.59.31h-6.01q-.72 0-1.04.41-.32.41-.32.91 0 .47.32.88.32.41 1.04.41h3.58q3.76 0 5.58 1.83 1.83 1.82 1.83 5.72zm8.05-4.58q0-2.68 1-5.01 1.01-2.33 2.76-4.08 1.76-1.76 4.08-2.76 2.33-1 5.01-1 2.69 0 5.03 1 2.35 1 4.09 2.76 1.73 1.75 2.75 4.08t1.02 5.01q0 2.69-1.02 5.01-1.02 2.33-2.75 4.08-1.74 1.76-4.09 2.76-2.34 1-5.03 1-2.68 0-5.01-1-2.32-1-4.08-2.76-1.75-1.75-2.76-4.08-1-2.32-1-5.01zm7.06.11q0 1.22.46 2.27.47 1.06 1.25 1.85.79.78 1.85 1.23 1.05.45 2.27.45t2.27-.45q1.06-.45 1.87-1.23.8-.79 1.27-1.85.46-1.05.46-2.27t-.46-2.29q-.47-1.08-1.27-1.86-.81-.79-1.87-1.26-1.05-.46-2.27-.46t-2.27.46q-1.06.47-1.85 1.26-.78.78-1.25 1.86-.46 1.07-.46 2.29zm37.62 12.49h-7.16q-3.44 0-3.44-3.51v-18.36q0-1.65 1.02-2.54 1.02-.9 2.42-.9t2.44.9q1.03.89 1.03 2.54v14.89h3.69q1.61 0 2.45 1.02.84 1.02.84 2.45 0 1.44-.84 2.48-.84 1.03-2.45 1.03zm31.33-21.87v11.06q0 11.06-10.14 11.06-10.27 0-10.27-11.06v-11.06q0-1.65 1.04-2.54 1.04-.9 2.43-.9 1.43 0 2.45.9 1.03.89 1.03 2.54v12.14q0 3.07 3.25 3.07 3.26 0 3.26-3.07v-12.14q0-.82.29-1.47.28-.64.75-1.07.46-.43 1.09-.66.63-.24 1.31-.24 1.43 0 2.47.9 1.04.89 1.04 2.54zm20.62 3.69v14.85q0 1.72-1.04 2.6-1.04.88-2.47.88-1.4 0-2.42-.88t-1.02-2.6v-14.85h-2.43q-1.65 0-2.56-1.04-.92-1.04-.92-2.47 0-1.43.92-2.47.91-1.04 2.56-1.04h11.74q1.65 0 2.58 1.04.93 1.04.93 2.47 0 1.43-.93 2.47-.93 1.04-2.58 1.04h-2.36zm20.8-3.69v18.54q0 1.72-1.04 2.6-1.04.88-2.44.88-1.43 0-2.45-.88-1.02-.88-1.02-2.6v-18.54q0-1.65 1.02-2.54 1.02-.9 2.45-.9 1.4 0 2.44.9 1.04.89 1.04 2.54zm8.37 9.27q0-2.68 1.01-5.01 1-2.33 2.75-4.08 1.76-1.76 4.08-2.76 2.33-1 5.02-1 2.68 0 5.03 1 2.34 1 4.08 2.76 1.73 1.75 2.75 4.08t1.02 5.01q0 2.69-1.02 5.01-1.02 2.33-2.75 4.08-1.74 1.76-4.08 2.76-2.35 1-5.03 1-2.69 0-5.02-1-2.32-1-4.08-2.76-1.75-1.75-2.75-4.08-1.01-2.32-1.01-5.01zm7.06.11q0 1.22.46 2.27.47 1.06 1.25 1.85.79.78 1.85 1.23 1.05.45 2.27.45t2.28-.45q1.05-.45 1.86-1.23.8-.79 1.27-1.85.46-1.05.46-2.27t-.46-2.29q-.47-1.08-1.27-1.86-.81-.79-1.86-1.26-1.06-.46-2.28-.46-1.22 0-2.27.46-1.06.47-1.85 1.26-.78.78-1.25 1.86-.46 1.07-.46 2.29zm39.91-1.36v-8.16q0-1.61.99-2.46.98-.84 2.38-.84 1.32 0 2.31.84.98.85.98 2.46v18.68q0 .83-.28 1.47-.29.65-.74 1.09-.45.45-1.04.68-.59.24-1.23.24-.86 0-1.68-.43-.83-.43-1.44-1.36l-6.51-9.71v8.2q0 1.61-.99 2.46-.98.84-2.38.84-1.32 0-2.29-.84-.96-.85-.96-2.46v-18.72q0-.79.26-1.43.27-.65.74-1.09.46-.45 1.04-.68.57-.24 1.21-.24.9 0 1.72.41.82.42 1.43 1.35l6.48 9.7zm33.69 5.83q0 8.02-7.84 8.02h-6.91q-.86 0-1.5-.3-.65-.31-1.08-.79-.43-.48-.64-1.11-.22-.62-.22-1.31 0-.64.22-1.27.21-.62.66-1.11.45-.48 1.11-.78.66-.31 1.52-.31h7.23q.72 0 1.06-.41.34-.41.34-.88 0-.5-.34-.93-.34-.43-1.06-.43h-3.58q-3.68 0-5.54-1.8-1.87-1.81-1.87-5.68 0-8.09 7.92-8.09h5.58q.9 0 1.58.3.68.31 1.14.79.47.49.7 1.11.23.63.23 1.27 0 .65-.23 1.29-.23.65-.7 1.15-.46.5-1.16.8-.7.31-1.6.31h-6.01q-.72 0-1.04.41-.32.41-.32.91 0 .47.32.88.32.41 1.04.41h3.58q3.76 0 5.59 1.83 1.82 1.82 1.82 5.72zM402.019 457.222h-300.08c-2.159 0-3.598 1.19-3.598 2.975s1.44 2.975 3.598 2.975h299.72c2.159 0 3.598-1.19 3.598-2.975s-1.44-2.975-3.238-2.975z" fill="#fff"/><g fill="#fff"><path d="M271.271 110.298c2.167 0 3.91-1.765 3.91-3.932 0-2.19-1.743-3.955-3.91-3.955-2.144 0-3.887 1.765-3.887 3.955 0 2.167 1.743 3.932 3.887 3.932zm-32.328.872c2.636 0 4.759-2.145 4.759-4.804s-2.123-4.826-4.759-4.826-4.781 2.167-4.781 4.826 2.145 4.803 4.781 4.803z"/><path d="M442.62 262.592a2.232 2.232 0 0 0-3.505-1.023c-.194.154-19.672 15.52-35.854 16.834-14.167 1.177-28.57-9.618-31.66-12.082-1.79-18.582-15.811-36.935-23.42-46.873-2.244-2.929-4.181-5.458-4.621-6.488-2.54-5.818-19.62-21.207-26.488-23.868-4.592-1.776-15.894-10.998-20.664-15.076-.612-9.155-3.085-14.922-8-18.532-3.497-2.565-5.803-8.85-6.784-12.426 2.429-1.54 4.136-3.682 4.768-6.09.443-1.743.396-3.667-.13-5.685-.008-.035-.024-.073-.035-.109l-.016-.05c-.57-2.213-1.758-4.561-3.431-6.858.444-6.294.026-13.13-1.202-20.353.062-.286.071-.588.015-.892 0 0-.12-.632-.449-1.727-2.259-11.414-5.862-20.105-6.827-22.312 2.339-34.453-10.26-39.049-11.712-39.462a2.305 2.305 0 0 0-.98-.054c-8.122 1.37-12.769 14.536-14.4 20.18-5.328-1.346-12.143-.606-15.614-.07-2.592-12.205-8.6-18.041-8.868-18.296a2.235 2.235 0 0 0-2.982-.087c-18.271 15.458-20.059 28.227-21.364 37.55-.558 3.979-1.038 7.417-2.631 10.306-3.271 5.916-3.935 11.698-4.469 16.345-.366 3.19-.681 5.945-1.736 7.652-3.237 5.273-9.58 20.945-.185 30.012 6.256 6.032 4.446 9.169 2.35 12.803l-.567 1c-1.464 2.656-.677 6.246.154 10.046.697 3.182 1.486 6.79.567 8.964-2.14 5.143-4.481 14.135-.111 32.761 3.1 13.146 2.057 24.623 1.452 29.871-11.359-3.432-19.321-2.203-23.11 3.606-5.85 8.948-6.843 25.583-2.049 34.232 2.243 4.048 5.574 6.18 9.643 6.18.082 0 .163 0 .245-.003 7.418-.174 12.77-3.246 15.984-9.084 3.829 1.394 11.733 3.544 20.114 3.544 2.607 0 5.259-.21 7.844-.713 12.174-2.368 12.069-26.356 11.376-37.268 2.654 2.493 5.146 4.482 7.444 5.938-.013 1.07-.069 2.103-.212 3.086-.835 5.86-.543 14.146-.234 22.92.397 11.338.893 25.454-2.042 28.477l-1.104 1.137c-5.337 5.491-8.863 9.12-7.297 15.199.644 2.531 3.725 4.046 9.699 4.767 1.941.233 4.872.398 8.141.398 8.005 0 18.027-.98 20.434-4.305.965-1.03 4.198-5.163 4.285-14.366.056-5.018.967-18.197 2.51-31.307 4.838 6.832 13.902 18.715 20.582 22.147.476 2.065.208 2.677.226 2.692-.025.01-.123.047-.349.054-6.908.275-14.538 5.56-16.327 11.314-1.003 3.221-.027 6.23 2.679 8.255 2.285 1.71 8.32 2.56 18.036 2.56 9.473 0 22.447-.81 38.85-2.435.33-.033.576-.058.77-.076 1.91.606 3.857.925 5.814.925.71 0 1.423-.04 2.134-.12 7.54-.876 13.17-3.227 17.127-7.152 3.063 2.833 9.966 7.927 20.27 8.172 3.859.099 6.743.541 9.288.934 2.323.36 4.459.688 6.858.688 3.72 0 8.093-.804 14.77-3.498 9.194.614 17.087-3.302 25.53-12.594 10.957-12.062 1.864-39.071 1.47-40.215zM261.772 44.015c1.894 1.088 9.204 6.917 8.268 31.077l-1.653-1.23c-.5-4.61-2.326-18.288-6.685-22.197a2.234 2.234 0 0 0-3.28.326c-.17.228-3.498 4.75-4.664 10.525a32.302 32.302 0 0 0-2.34-1.285c1.868-6.653 5.832-15.755 10.354-17.216zm6.146 258.175c-.078 8.262-3.081 11.36-3.083 11.363-.183.17-.235.223-.353.44-1.292 1.283-10.418 2.86-20.371 2.402-6.864-.313-9.464-1.437-9.994-1.913-.81-3.395.885-5.346 6.211-10.824l1.108-1.144c3.973-4.09 3.897-14.723 3.298-31.743-.288-8.193-.585-16.662.192-22.127a28.84 28.84 0 0 0 .268-5.034c-.37-12.815-8.192-25.393-9.428-27.306-1.041-2.973.148-4.82 3.883-9.955.833-1.146 1.747-2.4 2.717-3.811 4.124-5.995 28.713-25.57 37.84-32.608a2.234 2.234 0 1 0-2.73-3.539c-1.361 1.05-33.428 25.818-38.792 33.613-.945 1.374-1.837 2.598-2.65 3.715-2.759 3.794-4.94 6.817-5.071 10.342-3.66-1.436-7.98-3.856-12.9-7.238-12.577-8.638-12.876-21.605-12.883-22.152-.009-1.231-1.054-2.158-2.247-2.214a2.232 2.232 0 0 0-2.22 2.248c.004.64.263 15.804 14.818 25.802 6.526 4.486 12.159 7.402 16.79 8.718 1.468 2.377 6.352 10.793 7.925 19.888-2.308-1.807-4.833-4.147-7.476-6.933-6.419-6.655-11.633-13.829-11.685-13.903a2.235 2.235 0 0 0-3.62 2.62c.209.287 4.874 6.708 10.975 13.212-.009.13-.049.252-.033.386 1.019 9.124 1.852 35.577-7.369 37.37-10.058 1.962-21.057-1.045-25.32-2.548 1.263-3.819 1.889-8.443 1.889-14.069a2.234 2.234 0 1 0-4.469 0c0 6.012-.78 10.872-2.323 14.453-2.36 5.538-6.477 8.186-12.96 8.336-2.456.147-4.406-1.214-5.883-3.874-3.975-7.168-3.025-22.116 1.881-29.625 3.767-5.771 14.497-3.081 20.561-.966 4.45 1.555 7.82 3.278 8.472 3.678.757.628 1.87.7 2.714.105a2.237 2.237 0 0 0 .537-3.117c-.798-1.128-5.787-3.192-8.589-4.27.588-4.91 2.058-17.598-1.43-32.372-4.074-17.364-2.015-25.45-.116-30.01 1.466-3.471.514-7.815-.324-11.644-.59-2.694-1.257-5.748-.605-6.933l.527-.925c2.25-3.9 5.648-9.796-3.119-18.25-6.702-6.466-2.294-19.27.885-24.451 1.577-2.55 1.946-5.764 2.373-9.486.514-4.475 1.097-9.55 3.939-14.694 1.993-3.613 2.553-7.612 3.145-11.848 1.23-8.778 2.748-19.632 18.144-33.3 1.816 2.395 5.031 7.616 6.521 15.802a53.925 53.925 0 0 1-2.153 4.147c-.664-5.144-2.103-10.289-2.344-11.127a2.234 2.234 0 0 0-3.369-1.25c-9.951 6.503-11.061 25.679-11.184 30.205-12.261 13.032-5.045 41.573-4.725 42.802a2.234 2.234 0 0 0 4.392-.429c.009-.13.885-13.112 9.739-24.4 4.137-5.272 6.025-5.645 8.418-6.114 2.983-.588 6.363-1.251 12.518-8.391 2.645-3.061 4.558-2.891 5.766-2.498 6.12 2.002 11.71 16.64 11.989 20.116.094 1.186 1.162 2.11 2.292 2.053a2.235 2.235 0 0 0 2.167-2.187c.067-3.293.5-12.672 1.685-16.47.315-1.01.938-2.15 1.742-2.315.44-.094 2.114-.085 5.371 3.725 4.268 5.002 6.211 10.015 7.009 12.643 1.173 6.077 1.745 11.86 1.709 17.263-1.173-1.019-2.408-1.944-3.675-2.705-6.073-3.669-9.598-9.397-9.634-9.453a2.238 2.238 0 0 0-3.067-.753 2.232 2.232 0 0 0-.758 3.063c.163.272 4.098 6.711 11.149 10.97 2.292 1.385 4.506 3.36 6.229 5.558a20.87 20.87 0 0 1 2.015 3.095c-3.057-.043-6.756.272-8.51 1.863-.784.71-1.213 1.66-1.213 2.672 0 2.393 1.879 5 3.69 6.966-3.302.442-6.93-.451-10.219-2.603a2.235 2.235 0 0 0-2.444 3.74 21.029 21.029 0 0 0 7.404 3.036c-9.066 2.795-21.941 1.886-28.537-.303-6.796-2.241-12.39-.657-16.477.502-1.724.49-3.215.912-4.34.927h-.018c-1.91 0-6.462-4.92-9.362-9.354a2.233 2.233 0 0 0-3.092-.648 2.237 2.237 0 0 0-.65 3.092c1.75 2.677 7.844 11.379 13.117 11.379h.071c1.714-.027 3.548-.548 5.492-1.097 3.923-1.11 8.37-2.373 13.856-.559 3.62 1.2 10.141 2.315 17.11 2.315 5.464 0 11.19-.708 16.025-2.576-2.107 3.402-4.875 7.422-8.065 10.963-5.12 5.686-8.62 5.369-12.322 5.027-1.114-.1-2.267-.204-3.418-.132-2.801.165-4.803 1.912-6.743 3.604-1.977 1.724-3.829 3.367-6.532 3.317-4.06-.042-14.091-7.56-19.458-12.288a2.238 2.238 0 0 0-3.152.2 2.232 2.232 0 0 0 .199 3.152c1.548 1.365 15.326 13.331 22.357 13.405h.159c4.298 0 7.104-2.449 9.365-4.422 1.497-1.304 2.79-2.435 4.078-2.51.817-.05 1.75.033 2.741.122 3.972.364 9.43.862 16.048-6.488 4.504-5.002 8.204-10.887 10.516-14.94 1.381 3.807 3.734 8.68 7.322 11.314 3.867 2.842 5.732 7.534 6.215 15.572-8.338 15.07-30.487 34.983-30.713 35.186a2.236 2.236 0 0 0 2.377 3.715c9.77-4.222 13.593-3.465 15.005-2.638.625.366 1.481 1.103 1.704 3.273 1.292 12.645-.138 16.347-2.732 23.07-.74 1.914-1.577 4.086-2.46 6.738a44.61 44.61 0 0 0-1.101 3.934c-.979 4.042-1.915 9.466-2.86 16.584l-.007.052-.009.067c-2.001 14.971-3.201 31.691-3.268 37.556zm7.824-37.905c.596-4.412 1.202-8.203 1.812-11.34 1.816 1.642 4.32 3.61 7.147 5.024a130.438 130.438 0 0 0-.105 4.12l-.009.825c-.045 4.251 2.844 10.674 5.905 17.475.773 1.72 1.541 3.45 2.26 5.13-6.47-6.108-14.28-17.103-17.01-21.234zm71.06 47.525c-2.172.246-4.352-.004-6.495-.744-18.604-6.307-31.327-45.664-31.453-46.059a2.234 2.234 0 1 0-4.258 1.354c.48 1.512 10.724 33.168 27.442 45.295-31.318 2.844-45.195 2.004-47.657.163-1.195-.893-1.53-1.928-1.088-3.35 1.097-3.526 6.801-7.961 12.237-8.178 2.037-.08 3.152-1.045 3.729-1.839 1.548-2.133.898-5.315.277-7.524-1.001-3.537-2.931-7.827-4.976-12.369-2.598-5.78-5.545-12.33-5.51-15.592l.01-.83c.018-1.623.035-3.46.165-5.419.559-8.579 3.04-20.302 18.081-23.06 11.622-2.13 20.867 5.446 29.02 12.133 5.308 4.357 9.895 8.119 14.685 8.984 9.093 1.635 15.123 11.34 16.278 13.342.018.228.038.46.05.684.636 15.11 1.185 28.157-4.73 35.659-3.207 4.082-8.379 6.488-15.807 7.35zm91.046-12.017c-7.587 8.351-14.488 11.772-22.4 11.12-2.247-.19-4.54-.669-7.006-1.464a2.233 2.233 0 0 0-2.813 1.439c-.362 1.121.226 2.299 1.298 2.732-5.085 1.265-8.186.798-12.25.17-2.676-.413-5.712-.88-9.859-.985-9.066-.217-15.145-4.929-17.556-7.192 5.266-8.121 5.224-19.88 4.687-33.448 6.147 4.335 18.703 11.739 31.674 10.695 14.044-1.141 29.592-11.428 35.666-15.831 1.955 7.049 5.854 24.737-1.44 32.764z"/></g><path d="M72.243 295.928c.204-.078.415-.15.634-.222a16.756 16.756 0 0 1 1.398-.388c.246-.058.499-.112.759-.164l74.85-14.631c.562-.11 1.193-.167 1.85-.174a15.05 15.05 0 0 1 2.019.114c.677.082 1.346.208 1.97.372a9.71 9.71 0 0 1 1.704.607l35.04 16.788c.545.26 1.01.537 1.394.821.386.286.69.578.903.866.218.292.346.58.38.855.034.279-.026.543-.186.784a1.54 1.54 0 0 1-.168.209c-.066.067-.14.132-.223.194a2.357 2.357 0 0 1-.279.179 3.314 3.314 0 0 1-.333.162l-78.207 32.986a17.405 17.405 0 0 1-4.234 1.162 18.45 18.45 0 0 1-4.358.122c-1.407-.13-2.728-.433-3.874-.894-1.14-.46-2.1-1.074-2.796-1.833l-31.146-33.95c-.31-.336-.456-.69-.457-1.045-.002-.354.141-.711.41-1.06.267-.345.66-.68 1.16-.996.493-.31 1.096-.603 1.79-.864m79.39-24.752v-43.198l-82.28-9.968v63.134l82.28-9.968M70.635 207.5l80.393 13.047a3.886 3.886 0 0 1 1.658.715 5.48 5.48 0 0 1 1.332 1.416 7.17 7.17 0 0 1 .886 1.911 7.77 7.77 0 0 1 .323 2.218v45.543c0 .77-.114 1.52-.323 2.217a7.148 7.148 0 0 1-.886 1.912 5.549 5.549 0 0 1-1.332 1.416 3.904 3.904 0 0 1-1.658.714l-80.393 13.047a9.449 9.449 0 0 1-3.565-.08 7.872 7.872 0 0 1-2.984-1.342 6.905 6.905 0 0 1-2.052-2.405 7.043 7.043 0 0 1-.76-3.231V214.56c0-1.184.27-2.274.76-3.23a6.89 6.89 0 0 1 2.052-2.406 7.87 7.87 0 0 1 2.984-1.342 9.448 9.448 0 0 1 3.565-.082" fill="#fff"/></symbol><symbol id="logo-phasscode" viewBox="0 0 500 500"><path d="M2363 3073c-10-4-13-127-13-568 0-555 0-564 20-570 11-3 29-3 40 0 20 6 20 15 20 570 0 504-2 563-16 569-18 7-33 7-51-1zM755 3056c-16-7-40-24-52-37-44-48-53-90-53-235 0-103-4-144-16-169-17-37-66-65-113-65-29 0-31-3-31-34 0-32 1-34 46-39 34-3 55-13 78-36l31-31 5-163c6-177 13-202 70-250 34-29 76-40 135-35 37 3 40 5 40 33s-3 30-50 37c-38 5-57 14-77 38-27 30-28 33-28 153-1 176-16 224-86 272l-30 20 30 20c70 47 85 96 86 272 0 120 1 123 28 153 20 24 39 33 77 38 47 7 50 9 50 37 0 29-1 30-55 32-30 2-68-3-85-11zM1642 3038c3-30 7-33 43-39 98-13 109-35 115-225 5-139 7-153 30-187 13-19 40-45 60-56 19-11 30-21 23-21-22 0-76-54-94-95-15-32-19-65-19-168 0-171-17-203-115-216-37-6-40-9-43-40l-3-33 69 4c56 3 76 9 104 30 61 46 72 83 76 253 5 195 16 216 115 233 38 7 42 10 42 37s-4 30-40 36c-97 13-115 45-115 211 0 68-5 143-11 167-21 92-85 141-184 141h-56l3-32zM3137 2994c-4-4-7-94-7-201 0-186 1-193 20-193 18 0 20 7 20 85v85h200v-84c0-62 4-85 14-89 31-12 36 16 36 199 0 147-3 184-15 194-27 22-35 0-35-91v-90l-97 3-98 3-5 89c-5 82-14 108-33 90zM3612 2983c-28-53-134-365-128-378 10-28 42 0 56 50l13 45h174l13-45c14-50 46-78 56-50 9 22-124 382-143 389-24 9-32 7-41-11zm62-147c14-41 26-79 26-85 0-7-23-11-60-11-41 0-60 4-60 13 0 20 52 157 60 157 4 0 19-33 34-74zM3933 2989c-43-13-65-49-65-102 1-55 39-90 117-108 38-8 63-20 76-37 24-31 24-43-2-76-17-22-28-26-70-26-27 0-66 7-85 15-55 23-76 0-29-31 64-42 188-34 225 13 14 17 20 41 20 73 0 59-25 84-110 110-94 28-119 59-85 106 24 35 68 37 163 9 35-11 30 32-5 46-41 16-114 20-150 8zM4263 2985c-46-20-67-56-60-108 7-51 30-72 106-93 79-23 101-39 101-74 0-46-31-70-90-70-28 0-64 7-81 15-32 17-49 13-49-11 0-18 52-41 100-44 81-6 101-1 137 35 33 33 35 39 30 82-6 59-36 87-109 102-72 16-98 35-98 71 0 57 54 80 135 56 55-17 81-7 53 20-31 32-123 42-175 19zM2818 2984c-5-4-8-92-8-195 0-149 3-188 14-192 25-10 36 16 36 90v73h66c59 0 68 3 95 29 25 25 29 37 29 85 0 44-5 61-24 83-23 26-30 28-113 31-48 2-91 0-95-4zm158-42c38-25 41-112 4-132-10-5-41-10-69-10h-51v150h53c28 0 57-4 63-8zM970 2651c-5-11-10-24-10-29s56-44 125-87c68-43 122-81 120-85-3-4-57-40-121-80-63-40-118-79-121-87s3-24 14-35l21-20 148 95c132 83 149 98 152 124 2 18-4 35-15 45-34 30-273 178-288 178-8 0-19-9-25-19zM2890 2398c-63-33-85-80-85-183 0-94 23-149 73-178 43-25 130-26 174 0 53 30 84 113 42 113-7 0-20-15-29-34-18-39-50-56-103-56-73 0-112 55-112 155 0 61 17 111 46 136 50 43 130 30 165-27 22-36 42-40 47-10 9 44-75 105-143 106-17 0-51-10-75-22zM3286 2410c-70-21-113-113-103-222 10-114 64-171 161-171 108 0 160 65 160 198 0 63-5 89-23 123-34 67-114 96-195 72zm132-63c58-54 55-219-5-267-32-25-99-27-132-4-66 47-69 219-5 275 38 34 103 32 142-4zM3586 2394c-3-9-6-91-6-184 0-137 3-170 15-180 25-21 179-8 213 17 49 37 65 77 65 167 0 151-45 195-199 196-66 0-83-3-88-16zm184-42c45-22 64-73 57-158-7-98-33-124-134-132l-63-5v313h53c29 0 67-8 87-18zM3956 2394c-12-31-7-349 6-362 18-18 224-16 231 2 9 23-2 26-100 26h-93v140h91c81 0 90 2 87 18-3 14-17 17-91 20l-87 3v128l92 3c79 3 93 6 96 21s-7 17-111 17c-96 0-116-3-121-16zM1368 2283c-12-50-4-53 123-53h119v70h-119c-105 0-119-2-123-17z" transform="matrix(.1 0 0 -.1 0 500)"/></symbol><symbol id="phone" viewBox="0 0 24 24"><path d="M20 22.621l-3.521-6.795a618.8 618.8 0 0 1-2.064 1.011c-2.24 1.086-6.799-7.82-4.609-8.994l2.083-1.026L8.396 0 6.29 1.039c-7.202 3.755 4.233 25.982 11.6 22.615.121-.055 2.102-1.029 2.11-1.033z"/></symbol><symbol id="whatsapp" viewBox="0 0 24 24"><path d="M.057 24l1.687-6.163a11.867 11.867 0 0 1-1.587-5.946C.16 5.335 5.495 0 12.05 0a11.817 11.817 0 0 1 8.413 3.488 11.824 11.824 0 0 1 3.48 8.414c-.003 6.557-5.338 11.892-11.893 11.892a11.9 11.9 0 0 1-5.688-1.448L.057 24zm6.597-3.807c1.676.995 3.276 1.591 5.392 1.592 5.448 0 9.886-4.434 9.889-9.885.002-5.462-4.415-9.89-9.881-9.892-5.452 0-9.887 4.434-9.889 9.884-.001 2.225.651 3.891 1.746 5.634l-.999 3.648 3.742-.981zm11.387-5.464c-.074-.124-.272-.198-.57-.347-.297-.149-1.758-.868-2.031-.967-.272-.099-.47-.149-.669.149-.198.297-.768.967-.941 1.165-.173.198-.347.223-.644.074-.297-.149-1.255-.462-2.39-1.475-.883-.788-1.48-1.761-1.653-2.059-.173-.297-.018-.458.13-.606.134-.133.297-.347.446-.521.151-.172.2-.296.3-.495.099-.198.05-.372-.025-.521-.075-.148-.669-1.611-.916-2.206-.242-.579-.487-.501-.669-.51l-.57-.01c-.198 0-.52.074-.792.372s-1.04 1.016-1.04 2.479 1.065 2.876 1.213 3.074c.149.198 2.095 3.2 5.076 4.487.709.306 1.263.489 1.694.626.712.226 1.36.194 1.872.118.571-.085 1.758-.719 2.006-1.413.248-.695.248-1.29.173-1.414z"/></symbol><symbol id="sol" viewBox="0 0 24 24"><path d="M4.069 13H0v-2h4.069c-.041.328-.069.661-.069 1s.028.672.069 1zm3.034-7.312L4.222 2.807 2.808 4.221l2.881 2.881a8.019 8.019 0 0 1 1.414-1.414zm11.209 1.414l2.881-2.881-1.414-1.414-2.881 2.881a8.121 8.121 0 0 1 1.414 1.414zM12 4c.339 0 .672.028 1 .069V0h-2v4.069A8.047 8.047 0 0 1 12 4zm0 16c-.339 0-.672-.028-1-.069V24h2v-4.069A8.047 8.047 0 0 1 12 20zm7.931-9c.041.328.069.661.069 1s-.028.672-.069 1H24v-2h-4.069zm-3.033 7.312l2.88 2.88 1.415-1.414-2.88-2.88a8.127 8.127 0 0 1-1.415 1.414zm-11.21-1.415l-2.88 2.88 1.414 1.414 2.88-2.88a8.053 8.053 0 0 1-1.414-1.414zM8 12c0 2.206 1.794 4 4 4s4-1.794 4-4-1.794-4-4-4-4 1.794-4 4zm10 0a6 6 0 1 1-12 0 6 6 0 0 1 12 0z"/></symbol><symbol id="lua" viewBox="0 0 24 24"><path d="M10.719 2.082C8.147 4.11 6 7.294 6 12c0 4.569 1.938 7.798 4.548 9.895C5.719 21.19 2 17.021 2 12c0-5.08 3.808-9.288 8.719-9.918zM12 0C5.383 0 0 5.383 0 12s5.383 12 12 12c1.894 0 3.87-.333 5.37-1.179C13.917 22.208 8 19.454 8 12c0-7.555 6.422-10.317 9.37-10.821C15.63.497 13.894 0 12 0zm0 10.999A4.51 4.51 0 0 1 14.999 14 4.52 4.52 0 0 1 18 11a4.521 4.521 0 0 1-3.001-3A4.509 4.509 0 0 1 12 10.999zm8.001.001a3.011 3.011 0 0 1 2 2.001A3.006 3.006 0 0 1 24 11a3.012 3.012 0 0 1-2-2 3.01 3.01 0 0 1-1.999 2zm-1-9a4.514 4.514 0 0 1-2.998 3.001 4.52 4.52 0 0 1 3.001 3.002A4.515 4.515 0 0 1 22 5.001 4.522 4.522 0 0 1 19.001 2z"/></symbol><symbol id="wordpress" viewBox="0 0 24 24"><path d="M2.597 7.81l4.911 13.454A10.295 10.295 0 0 1 2.597 7.81zm16.352 3.67c0-1.272-.457-2.153-.849-2.839-.521-.849-1.011-1.566-1.011-2.415 0-.978.747-1.88 1.862-1.819A10.257 10.257 0 0 0 12 1.706c-3.596 0-6.76 1.845-8.601 4.64.625.02 1.489.032 3.406-.118.555-.034.62.782.066.847 0 0-.558.065-1.178.098l3.749 11.15 2.253-6.756-1.604-4.394a19.328 19.328 0 0 1-1.08-.098c-.555-.033-.49-.881.065-.848 2.212.17 3.271.171 5.455 0 .555-.033.621.783.066.848 0 0-.559.065-1.178.098l3.72 11.065 1.027-3.431c.444-1.423.783-2.446.783-3.327zm-6.768 1.42l-3.089 8.975a10.299 10.299 0 0 0 6.326-.164c-.086-.139-3.181-8.657-3.237-8.811zm8.852-5.839c.224 1.651-.099 3.208-.713 4.746l-3.145 9.091A10.287 10.287 0 0 0 22.294 12c0-1.79-.457-3.473-1.261-4.939zM24 12c0 6.617-5.384 12-12 12S0 18.617 0 12 5.383 0 12 0s12 5.383 12 12zm-.55 0C23.45 5.687 18.313.55 12 .55S.55 5.687.55 12 5.687 23.45 12 23.45 23.45 18.313 23.45 12z"/></symbol><symbol id="css" viewBox="0 0 50 50"><path style="transform:scale(1.2152778);transform-origin:center center" d="M39 40l-14 4-14-4L8 6h34l-3 34zm.816-32H10.184l2.687 30.453L25 41.922l12.129-3.469zM16.801 28h4l.097 2.5L25 31.898l4.102-1.398.296-4.5h-8.796l-.204-4h9.204l.296-4H16.102l-.301-4h18.3l-.5 8-.703 11.5L25 36.102 17.102 33.5z"/></symbol><symbol id="flutter" viewBox="0 0 50 50"><path d="M27 3a1 1 0 0 0-.707.293l-21 21a1 1 0 0 0 0 1.414l6 6a1 1 0 0 0 1.414 0l27-27A1 1 0 0 0 39 3H27zm.414 2h9.172L12 29.586 7.414 25l20-20zM28 22a1 1 0 0 0-.707.293l-12 12a1 1 0 0 0 0 1.414l6 6 6 6A1 1 0 0 0 28 48h12a1 1 0 0 0 .707-1.707L29.414 35l11.293-11.293A1 1 0 0 0 40 22H28zm.414 2h9.172L22 39.586 17.414 35l11-11zM28 36.414L37.586 46h-9.172l-5-5L28 36.414z"/></symbol><symbol id="html" viewBox="0 0 50 50"><path d="M5.281 2a1 1 0 0 0-.812 1.094L8 42.53a.997.997 0 0 0 .719.844l16 4.594a.985.985 0 0 0 .562 0l16-4.594a.997.997 0 0 0 .719-.844l3.531-39.437a.999.999 0 0 0-1-1.094H5.281zm1.282 2h36.874l-3.343 37.656L25 45.938 9.906 41.656zm5.968 6.063a1 1 0 0 0-.812 1.093l1.344 14.781a1 1 0 0 0 .968.938H30l-.438 4.594-4.53.968-4.595-.968-.156-1.625a1 1 0 0 0-1-.938h-4.875a.999.999 0 0 0-1 1.094l.563 6.125a1 1 0 0 0 .687.875l9.938 3.031.125.032a.985.985 0 0 0 .562 0L35.344 37a.995.995 0 0 0 .718-.875l1.313-15.031a.993.993 0 0 0-.246-.758 1.003 1.003 0 0 0-.723-.336H19.375l-.25-3.094h17.719a.996.996 0 0 0 1-.906l.437-4.844a.999.999 0 0 0-1-1.094H12.72a.753.753 0 0 0-.188 0zm1.281 2h22.376l-.25 2.843H18.03a.999.999 0 0 0-1 1.094l.469 5.094a1 1 0 0 0 .969.906h16.843l-1.187 13.281L25 38.031l-9.125-2.75-.375-4.375h2.875l.125 1.469c.031.441.348.809.781.906l5.563 1.157c.133.027.273.027.406 0l5.469-1.157c.433-.097.75-.465.781-.906l.594-6.438a1.005 1.005 0 0 0-1-1.062H14.937z"/></symbol><symbol id="jscript" viewBox="0 0 50 50"><path d="M5.465 2a1 1 0 0 0-.996 1.09l3.52 39.426a1 1 0 0 0 .72.873l16.01 4.572a1 1 0 0 0 .549 0l16.025-4.572a1 1 0 0 0 .72-.873L45.532 3.09A1 1 0 0 0 44.535 2H5.465zm1.094 2H43.44l-3.357 37.654-15.09 4.307L9.92 41.654 6.559 4zM19 10a1 1 0 0 0-1 1v18.629l-5.732-1.588a1 1 0 0 0-1.268.963v4.945a1 1 0 0 0 .732.963l11 3.05A1 1 0 0 0 24 37V11a1 1 0 0 0-1-1h-4zm8 0a1 1 0 0 0-1 1v17a1 1 0 0 0 1.17.986l5.748-.99-.12 1.772-6.064 1.668a1 1 0 0 0-.734.962V37a1 1 0 0 0 1.266.965l10-2.75a1 1 0 0 0 .73-.88l1.055-12.25a1 1 0 0 0-1.137-1.075L32 21.848V16h6.654a1 1 0 0 0 .996-.914l.346-4A1 1 0 0 0 39 10H27zm-7 2h2v23.686l-9-2.497v-2.87l5.732 1.59A1 1 0 0 0 20 30.944V12zm8 0h9.91l-.174 2H31a1 1 0 0 0-1 1v8a1 1 0 0 0 1.14.99l5.811-.824-.889 10.305L28 35.688v-2.526l6.016-1.654a1 1 0 0 0 .732-.897l.25-3.75a1 1 0 0 0-1.168-1.052L28 26.812V12z"/></symbol><symbol id="typescript" viewBox="0 0 50 50"><path d="M5 4a1 1 0 0 0-1 1v40a1 1 0 0 0 1 1h40a1 1 0 0 0 1-1V5a1 1 0 0 0-1-1H5zm1 2h38v38H6V6zm9 17v3.445h5V42h4V26.445h5V23H15zm21.691.01c-3.114-.013-6.673.931-6.673 5.314 0 5.73 7.72 5.732 7.72 8.317 0 .245.104 2.025-2.62 2.025-2.726 0-4.997-1.713-4.997-1.713v4.158s11.881 3.843 11.881-4.822c-.001-5.625-7.793-5.344-7.793-8.139 0-1.083.77-2.095 2.9-2.095 2.131 0 4.018 1.258 4.018 1.258l.14-3.706s-2.153-.588-4.576-.597z"/></symbol><symbol id="dart" viewBox="0 0 50 50"><path d="M25.697.994a6.208 6.208 0 0 0-2.511.541L8.646 8.062a1 1 0 0 0-.558.528 1 1 0 0 0-.024.055l-6.529 14.54A6.206 6.206 0 0 0 2.81 30.11l6.939 6.938.006.006L20.39 47.707a1 1 0 0 0 .707.293H38a1 1 0 0 0 1-1v-8h8a1 1 0 0 0 1-1V21.098a1 1 0 0 0-.293-.707L37.053 9.754l-.006-.006-6.938-6.94A6.2 6.2 0 0 0 25.697.995zm.166 1.998a4.196 4.196 0 0 1 2.832 1.23L32.471 8H13.668l10.336-4.64a4.197 4.197 0 0 1 1.86-.368zM11.413 10h21.4c1.06 0 2.076.421 2.826 1.17l.658.658 8.369 8.371.008-.008L46 21.514V37h-7.725L11.412 10zM10 11.418L35.455 37H12.531l-1.066-1.066-.295-.295A3.999 3.999 0 0 1 10 32.812V11.419zm-2 2.25v18.803l-3.777-3.776a4.195 4.195 0 0 1-.862-4.691H3.36L8 13.668zM14.533 39H37v7H21.514l-1.325-1.326.01-.01L14.533 39z"/></symbol><symbol id="java" viewBox="0 0 50 50"><path d="M28.188 0c2.75 6.363-9.86 10.293-11.032 15.594-1.074 4.87 7.492 10.531 7.5 10.531-1.3-2.016-2.258-3.676-3.562-6.813C18.887 14.008 34.535 9.207 28.187 0zm8.375 8.813s-11.063.71-11.626 7.78c-.25 3.15 2.91 4.805 3 7.095.075 1.87-1.875 3.437-1.875 3.437s3.547-.676 4.657-3.531c1.23-3.168-2.399-5.309-2.032-7.844.352-2.426 7.875-6.938 7.875-6.938zM19.186 25.155s-10.125-.144-10.125 2.719c0 2.992 13.254 3.215 22.72 1.375 0 0 2.515-1.73 3.187-2.375-6.203 1.266-20.344 1.406-20.344.313 0-1.008 4.563-2.032 4.563-2.032zm19.47 0c-.993.078-2.063.461-3.032 1.157 2.281-.493 4.219.921 4.219 2.53 0 3.626-5.25 7.032-5.25 7.032s8.125-.922 8.125-6.875c0-2.703-1.88-4.016-4.063-3.844zM16.75 30.72c-1.555 0-3.875 1.218-3.875 2.375 0 2.324 11.688 4.113 20.344.718l-3-1.843c-5.867 1.879-16.672 1.265-13.469-1.25zm1.438 5.218c-2.13 0-3.532 1.286-3.532 2.25 0 2.985 12.715 3.286 17.75.25l-3.187-2.03c-3.762 1.59-13.203 1.831-11.032-.47zm-7.094 2.688c-3.469-.07-5.719 1.488-5.719 2.781 0 6.875 35.5 6.559 35.5-.468 0-1.168-1.348-1.735-1.844-2C41.934 45.656 9.97 45.12 9.97 41.156c0-.902 2.351-1.765 4.531-1.343l-1.844-1.063a12.349 12.349 0 0 0-1.562-.125zm33.531 4.625c-5.398 5.117-19.078 6.973-32.844 3.813 13.762 5.632 32.778 2.472 32.844-3.813z"/></symbol><symbol id="mysql" viewBox="0 0 50 50"><path d="M31.168 8c-.469-.012-.879.168-1.09.688-.36.87.535 1.722.856 2.167.222.31.511.657.671 1.004.106.23.122.461.211.704.223.597.579 1.277.864 1.832.144.28.304.574.488.824.113.152.305.222.336.457-.188.265-.2.676-.305 1.011-.476 1.504-.297 3.375.395 4.485.215.344.718 1.074 1.406.797.602-.246.469-1.008.64-1.684.04-.148.016-.262.094-.363v.031c.18.367.364.735.547 1.098.41.656 1.133 1.34 1.742 1.804.317.239.567.653.977.793v-.03h-.031c-.078-.126-.203-.177-.305-.274a6.762 6.762 0 0 1-.7-.797 18.043 18.043 0 0 1-1.495-2.442c-.215-.41-.403-.863-.582-1.28-.07-.165-.07-.407-.215-.493-.2.309-.488.555-.64.918-.243.578-.278 1.285-.368 2.016-.055.02-.031.004-.059.03-.425-.105-.578-.542-.734-.917-.398-.95-.476-2.48-.121-3.57.09-.286.5-1.176.336-1.438-.078-.262-.344-.41-.488-.61a4.617 4.617 0 0 1-.489-.855c-.328-.742-.636-1.601-.984-2.351-.164-.36-.441-.72-.672-1.04-.254-.35-.535-.609-.734-1.038-.067-.149-.164-.391-.059-.547.031-.106.078-.149.184-.184.176-.137.668.043.855.121.488.203.899.399 1.313.672.199.133.398.387.64.461h.274c.433.098.914.027 1.312.152.711.215 1.348.551 1.922.914a11.85 11.85 0 0 1 4.184 4.579c.16.304.23.597.37.918.278.648.634 1.32.915 1.953.277.636.55 1.273.945 1.8.207.278 1.012.43 1.375.582.254.11.676.223.914.368.465.277.91.609 1.344.918.219.152.883.484.918.761-1.074-.027-1.895.07-2.594.367-.199.086-.52.086-.55.336.105.114.124.286.21.426.168.27.45.633.704.824.277.207.558.43.855.614.523.316 1.11.5 1.617.82.297.191.598.43.887.64.144.11.238.274.426.34v-.03c-.098-.126-.121-.298-.211-.427l-.403-.402a6.523 6.523 0 0 0-1.402-1.34c-.418-.3-1.352-.707-1.523-1.191l-.032-.031c.293-.032.641-.141.914-.215.461-.121.868-.09 1.34-.211.215-.063.43-.125.645-.184v-.125c-.238-.242-.41-.57-.672-.793-.684-.582-1.43-1.164-2.2-1.648-.425-.27-.952-.445-1.402-.672-.152-.078-.418-.117-.52-.246-.237-.3-.366-.684-.55-1.035a39.548 39.548 0 0 1-1.098-2.32c-.23-.528-.382-1.051-.671-1.528-1.387-2.277-2.88-3.656-5.192-5.008-.492-.289-1.082-.398-1.707-.547-.34-.023-.672-.043-1.012-.062-.203-.086-.418-.336-.609-.461-.48-.3-1.426-.824-2.207-.836zm3.309 3.313a2.275 2.275 0 0 0-.551.062v.031h.031c.105.219.297.36.43.547l.3.645.032-.032c.187-.132.277-.347.277-.671-.078-.079-.09-.18-.152-.274-.09-.129-.258-.2-.367-.309zM1.867 23.995c-.3.012-.629.07-.984.184-.594.18-.887.535-.887 1.258V33H2v-7.379l2.777 6.309c.344.785.813 1.066 1.73 1.066.923 0 1.372-.281 1.716-1.066L11 25.78V33h2v-7.563c0-.722-.29-1.078-.887-1.257-1.422-.45-2.379-.063-2.808.91l-2.852 6.414-2.758-6.414c-.312-.73-.937-1.13-1.828-1.094zm24.38.004c-.79 0-3.247.094-3.247 2v1.234c0 .875.77 1.59 2.438 1.766.187.012.375.027.562.027 0 0 1.945-.039 2-.027 1.125 0 1 .875 1 1v1c0 .137-.031 1-1.012 1H23v1h5.008c.656 0 1.293-.137 1.8-.375.844-.387 1.192-.91 1.192-1.598v-1.43C31 28.063 29.094 28 28 28h-2c-.785 0-.906-.477-1-1v-1c.094-.398.27-.938.965-1H31v-1zm7.733 0c-1.476.203-1.996.938-1.996 2v5c0 .973.543 1.559 1.66 1.863.376.106.715.149 1.036.149L36.906 33h1.309l1.113 1h2.25l-1.547-1.395c.727-.3.953-.761.953-1.625V26c0-1.063-.691-1.797-2.168-2zM42 24v6.957c0 1.207.684 1.887 2.492 2.023.168.008.34.02.508.02h5v-1h-4.621C44.348 32 44 31.566 44 30.95V24zm-6.828 1h2.574c.68 0 1.137.547 1.238 1 0 0 .016 4.656.016 5 0 .344-.191.5-.191.5l-.543-.5H36l1.113 1h-1.941c-.695 0-1.086-.516-1.188-1v-4.898c0-.532.407-1.102 1.188-1.102zM14 27c.04.04 0 4.262 0 4.344.016.875 1.125 1.64 2.863 1.656H20v.066c0 .188.137.813-1 .934h-5v1h5.215c.883-.027 2.797-.227 2.785-1.758 0-.027.008-6.242 0-6.242h-2v5c-.031 0-2.477.008-2.969 0-.965-.016-1.047-.566-1.031-.777V27z"/></symbol><symbol id="sql" viewBox="0 0 528 528"><path d="M1505 5110c-735-48-1275-207-1443-426-66-86-62 42-62-1788V1235l24-50c12-27 35-65 51-83 65-77 245-178 420-235 273-90 679-156 1065-175l145-7 5-255 5-255 28-48c33-56 89-99 149-116 32-9 415-11 1543-9 1441 3 1501 4 1535 22 49 26 98 74 123 121l22 40v2020l-22 40c-25 47-74 95-123 121-33 18-72 19-627 22l-593 3v1095c0 1211 5 1125-66 1211-157 192-607 335-1254 398-187 19-731 27-925 15zm700-170c630-37 1152-167 1326-331 42-38 49-51 49-82 0-118-280-255-690-337-345-70-666-95-1125-87-346 6-507 19-770 63-432 72-765 204-815 323-17 42-7 71 41 119 230 227 1149 381 1984 332zM271 4201c221-116 554-197 1009-248 209-23 925-26 1140-5 492 49 903 150 1100 271 28 17 52 31 55 31s5-196 5-435v-435l-40-44c-147-160-664-295-1284-337-226-15-755-6-956 16-506 55-914 170-1070 301-61 52-60 43-60 509 0 234 2 425 4 425s45-22 97-49zm14-1118c257-129 688-220 1199-254 230-15 787-6 991 16 472 50 867 151 1053 268 23 15 44 27 47 27s5-169 5-375v-375h-823c-902 0-879 1-956-59-22-17-51-55-65-83-25-49-26-60-26-211v-160l-112 7c-177 10-343 25-468 42-465 62-863 201-940 327-19 30-20 53-20 465v433l28-19c15-11 54-33 87-49zm4636-892l29-29V228l-29-29-29-29H3420c-1568 0-1516-2-1534 45-3 9-6 452-6 983 1 1018-1 984 45 1010 15 8 404 11 1493 12h1474l29-29zM261 1986c265-141 701-234 1257-268l192-12V857l-143 6c-604 28-1163 165-1341 328l-51 47-3 396c-1 218-1 396 2 396 2 0 41-20 87-44z" transform="matrix(.1 0 0 -.1 0 512)"/><path d="M2465 1780c-55-17-139-75-171-117-53-69-77-146-72-229 11-178 134-302 321-323 85-10 103-18 145-65 94-107 15-276-128-276-89 0-151 59-170 161-12 63-37 89-87 89-23 0-42-8-60-26-23-24-25-31-21-89 10-115 85-222 197-277 67-33 215-33 282 0 75 37 125 87 161 160 30 60 33 76 33 152 0 71-4 94-27 141-53 115-154 183-293 198-90 11-136 37-165 97-26 53-25 101 3 155 44 83 146 113 229 67 48-28 75-69 88-139 12-63 37-89 87-89 23 0 42 8 60 26 23 23 25 31 20 84-6 68-41 151-85 201-17 20-60 51-94 69-54 29-74 34-143 37-44 1-93-2-110-7zM3285 1766c-75-31-164-121-191-192-26-71-34-620-9-716 50-199 248-304 446-238l60 21 26-21c80-63 177 42 113 122-19 25-19 25 0 77 18 47 20 78 20 376 0 303-1 328-21 379-27 72-96 148-166 182-82 40-195 44-278 10zm230-181c63-47 65-60 65-389V902l-38 21c-35 18-42 19-71 7-17-7-37-22-43-33-15-29-12-76 6-96 23-26 20-31-19-31-72 0-141 50-164 119-7 22-11 130-11 306s4 284 11 306c14 42 54 87 94 105 48 23 127 13 170-21zM3956 1769l-26-20V641l26-20c26-20 38-21 313-21s288 1 309 20c29 27 37 63 20 96-23 50-44 54-280 54h-217l-3 486-3 486-28 24c-34 29-76 31-111 3z" transform="matrix(.1 0 0 -.1 0 512)"/></symbol><symbol id="pc_mobile" viewBox="0 0 396.494 396.494"><path d="M304.42 330.901h-43.219a2.84 2.84 0 0 1-2.834-2.834v-10.52a2.842 2.842 0 0 0-2.834-2.834h-60.475a2.842 2.842 0 0 0-2.835 2.834v10.52a2.84 2.84 0 0 1-2.835 2.834h-32.491a2.842 2.842 0 0 0-2.835 2.834v12.17a2.842 2.842 0 0 0 2.835 2.834h147.521a2.842 2.842 0 0 0 2.834-2.834v-12.17a2.84 2.84 0 0 0-2.832-2.834zM377.032 46.368h-308.4c-10.73 0-19.459 8.73-19.459 19.462v50.761c0 6.711-.498 7.66 4.004 7.66h7.72c3.778 0 3.003-.949 3.003-7.785V65.83c0-2.565 2.168-4.733 4.732-4.733h308.4c2.563 0 4.731 2.168 4.731 4.733v189.999h-219.87s-7.749-.014-7.749 10.006v23.766c0 10.006 8 10.006 8 10.006h214.888c10.729 0 19.461-8.729 19.461-19.459V65.83c0-10.731-8.73-19.462-19.461-19.462zM222.833 282.804a8.77 8.77 0 1 1-.004-17.538 8.77 8.77 0 0 1 .004 17.538z"/><path d="M124.125 141.633H12.559C5.632 141.633 0 147.266 0 154.193v183.372c0 6.926 5.632 12.561 12.559 12.561h111.566c6.923 0 12.559-5.635 12.559-12.561V154.193c0-6.927-5.636-12.56-12.559-12.56zm-69.545 12.81h27.523a2.38 2.38 0 0 1 0 4.76H54.58a2.378 2.378 0 0 1-2.379-2.379 2.378 2.378 0 0 1 2.379-2.381zm13.595 186.861a6.5 6.5 0 1 1 0-13 6.5 6.5 0 0 1 0 13zm57.718-19.104c0 1.676-1.342 3.047-2.98 3.047H13.774c-1.639 0-2.98-1.371-2.98-3.047V169.825c0-1.676 1.342-3.046 2.98-3.046h109.139c1.639 0 2.98 1.371 2.98 3.046V322.2z"/></symbol><symbol id="pc" viewBox="0 0 46 46"><g id="Layer_30_9_"><path d="M0 3.281v29.25h46V3.281H0zm23 27.907c-.982 0-1.781-.799-1.781-1.781s.799-1.779 1.781-1.779a1.78 1.78 0 0 1 0 3.56zm21-4.907H2v-21h42v21zM28.838 34.594h-11v5.25h-5.5v2.875h22.375v-2.875h-5.875z"/></g></symbol><symbol id="app-mobile" viewBox="0 0 502.707 502.707"><path d="M469.423 202.01h-44.824V68.272c0-25.324-20.773-46.054-46.075-46.054H46.054C20.73 22.218 0 42.947 0 68.272v194.396c0 25.367 20.73 46.054 46.054 46.054h42.494v133.89c0 20.881 17.062 37.878 37.878 37.878h84.255c20.837 0 37.9-17.019 37.9-37.878V308.699h30.458v66.999c0 18.292 14.97 33.284 33.327 33.284h157.057c18.335 0 33.284-14.949 33.284-33.284V235.272c0-18.313-15.013-33.262-33.284-33.262zm-9.771 18.271c5.716 0 10.332 4.595 10.332 10.289 0 5.673-4.616 10.289-10.332 10.289a10.274 10.274 0 0 1-10.289-10.289c0-5.673 4.594-10.289 10.289-10.289zm17.86 160.141H304.277V256.433h173.235v123.989zm-47.369-160.12c5.716 0 10.311 4.595 10.311 10.268 0 5.673-4.595 10.268-10.311 10.268-5.652 0-10.268-4.595-10.268-10.268.022-5.673 4.638-10.268 10.268-10.268zM368.17 45.708c7.464 0 13.482 6.018 13.482 13.46s-6.018 13.46-13.482 13.46c-7.42 0-13.439-6.018-13.439-13.46.001-7.441 6.04-13.46 13.439-13.46zm-38.547.022c7.42 0 13.395 6.018 13.395 13.439s-5.975 13.439-13.395 13.439c-7.463 0-13.439-6.018-13.439-13.439s6.04-13.439 13.439-13.439zM168.015 236.998a10.265 10.265 0 0 1 10.268-10.268c5.673 0 10.289 4.595 10.289 10.268 0 5.673-4.616 10.289-10.289 10.289-5.674 0-10.268-4.616-10.268-10.289zm29.444 0c0-5.695 4.616-10.289 10.311-10.289s10.289 4.595 10.289 10.289c0 5.673-4.595 10.289-10.289 10.289-5.695 0-10.311-4.616-10.311-10.289zm22.455 210.962H117.28V266.378h102.655l-.021 181.582zm28.668-178.778v-24.569c0-20.794-17.062-37.857-37.878-37.857h-84.277c-20.816 0-37.878 17.062-37.878 37.857v24.569H34.88V95.364h354.775V202.01h-77.31c-18.357 0-33.327 14.949-33.327 33.262v33.909h-30.436z"/></symbol><symbol id="php" viewBox="0 0 32 32"><path style="transform:scale(1.05);transform-origin:center center" d="M23.205 13.759h-1.178l-.645 3.309h1.047a2.52 2.52 0 0 0 1.562-.398l-.01.006a2.09 2.09 0 0 0 .688-1.301l.001-.01a1.427 1.427 0 0 0-.16-1.249l.003.005a1.756 1.756 0 0 0-1.318-.361l.009-.001zm3.243 1.727a3.483 3.483 0 0 1-.39 1.076l.009-.017a3.617 3.617 0 0 1-.698.876l-.003.002a3.039 3.039 0 0 1-1.125.682l-.021.006a5.23 5.23 0 0 1-1.614.205h.007-1.475l-.409 2.102h-1.722l1.537-7.905h3.31a2.739 2.739 0 0 1 2.179.785 2.44 2.44 0 0 1 .409 2.205l.004-.017zm-9.493 2.831l.679-3.498a.943.943 0 0 0-.087-.817l.002.004a1.193 1.193 0 0 0-.865-.217l.006-.001h-1.365l-.88 4.53h-1.709l1.537-7.906h1.708l-.409 2.102h1.522a2.946 2.946 0 0 1 1.992.508l-.01-.006a1.653 1.653 0 0 1 .325 1.635l.003-.012-.715 3.679zm-5.029-.894a3.025 3.025 0 0 1-1.125.682l-.021.006a5.227 5.227 0 0 1-1.613.205h.007-1.476l-.409 2.101H5.567l1.537-7.905h3.312a2.739 2.739 0 0 1 2.179.785 2.462 2.462 0 0 1 .408 2.207l.004-.017a3.453 3.453 0 0 1-1.079 1.934l-.003.003zM16 8.112C7.719 8.112 1.004 11.643 1.004 16S7.718 23.889 16 23.889 30.996 20.356 30.996 16 24.282 8.112 16 8.112zm-6.236 5.647h-1.18l-.644 3.309h1.047a2.524 2.524 0 0 0 1.562-.398l-.01.006a2.08 2.08 0 0 0 .686-1.301l.001-.01a1.42 1.42 0 0 0-.158-1.248l.003.005a1.756 1.756 0 0 0-1.318-.361l.009-.001z"/></symbol><symbol id="c" viewBox="0 0 512.000000 512.000000"><path d="M2375 5054c-16-2-73-9-125-15-435-49-869-231-1240-518-110-85-327-302-412-412-277-358-445-751-515-1206-23-150-23-536 0-686C195 1490 576 883 1170 485c330-221 669-348 1085-407 135-19 503-16 650 5 373 55 731 192 1035 395 617 413 996 1025 1102 1777 17 119 16 493-1 615-88 635-394 1199-866 1597-357 302-802 502-1265 568-108 16-467 29-535 19zm480-1139c107-19 268-71 357-116 360-180 622-530 697-931l8-48h-732l-19 48c-34 82-95 169-165 234-116 107-248 158-411 158-373 0-640-294-640-704 0-254 105-468 289-590 189-125 430-140 633-39 128 65 250 210 295 354l18 59h735v-24c0-44-58-249-94-335-174-412-531-696-980-778-128-24-398-23-526 2-510 97-899 432-1054 907-48 146-67 274-67 442 0 243 41 428 140 631 208 426 597 688 1111 749 71 8 317-3 405-19z" transform="matrix(.1 0 0 -.1 0 512)"/></symbol><symbol id="cplus" viewBox="-16 0 288 288"><path d="M248.728 148.661h-9.722v9.724h-9.724v-9.724h-9.721v-9.721h9.721v-9.722h9.724v9.722h9.722v9.721M213.253 148.661h-9.721v9.724h-9.722v-9.724h-9.722v-9.721h9.722v-9.722h9.722v9.722h9.721v9.721"/><path d="M164.619 164.616c-7.248 12.854-21.021 21.541-36.828 21.541-15.71 0-29.405-8.578-36.69-21.296a42.062 42.062 0 0 1-5.574-20.968c0-23.341 18.923-42.263 42.264-42.263 15.609 0 29.232 8.471 36.553 21.059l36.941-21.272c-14.683-25.346-42.096-42.398-73.494-42.398-46.876 0-84.875 38-84.875 84.874 0 15.378 4.091 29.799 11.241 42.238 14.646 25.48 42.137 42.637 73.634 42.637 31.555 0 59.089-17.226 73.714-42.781l-36.886-21.371"/></symbol><symbol id="nodejs" viewBox="0 0 48 48"><g id="Layer_2" data-name="Layer 2"><path fill="none" d="M0 0h48v48H0z" id="invisible_box" data-name="invisible box"/><g id="Q3_icons" data-name="Q3 icons"><path d="M42.3 11.8L25.7 2.4a4 4 0 0 0-3.4 0L5.7 11.8A3.4 3.4 0 0 0 4 14.7v18.6a3.4 3.4 0 0 0 1.7 2.9l4.4 2.5a7.2 7.2 0 0 0 3.8 1c3.1 0 4.9-1.9 4.9-5.1V16.3a.5.5 0 0 0-.5-.5h-2.1a.5.5 0 0 0-.5.5v18.3c0 1.5-1.5 2.9-3.9 1.7l-4.6-2.6a.5.5 0 0 1-.2-.4V14.7a.8.8 0 0 1 .2-.5l16.5-9.3h.6l16.5 9.3a.8.8 0 0 1 .2.5v18.6a.5.5 0 0 1-.2.4L24.3 43a.6.6 0 0 1-.6 0l-4.2-2.4a.3.3 0 0 0-.4 0l-2.5 1.1c-.3.1-.7.2.1.7l5.6 3.1a3.1 3.1 0 0 0 3.4 0l16.6-9.3a3.4 3.4 0 0 0 1.7-2.9V14.7a3.4 3.4 0 0 0-1.7-2.9z"/><path d="M29.1 30.3c-4.4 0-5.3-1-5.7-3.1a.4.4 0 0 0-.4-.4h-2.2a.4.4 0 0 0-.4.4c0 2.7 1.5 6 8.7 6 5.2 0 8.2-2 8.2-5.5s-2.4-4.5-7.5-5.1-5.6-1-5.6-2.2.4-2.2 4.2-2.2 4.7.7 5.2 2.9a.5.5 0 0 0 .5.4h2.1l.4-.2a.4.4 0 0 0 .1-.3c-.3-3.9-3-5.7-8.3-5.7s-7.5 2-7.5 5.2 2.8 4.5 7.3 5 5.9 1.2 5.9 2.3-1.5 2.5-5 2.5z"/></g></g></symbol><symbol id="python" viewBox="0 0 20 20"><path d="M296.744 7457.458a.874.874 0 0 1-.872-.877.873.873 0 1 1 1.744 0c0 .485-.39.877-.872.877m-2.672 1.542c5.078 0 4.761-2.214 4.761-2.214l-.006-2.292h-4.845v-.689h6.769s3.249.37 3.249-4.779c0-5.15-2.835-4.968-2.835-4.968h-1.693v2.39s.091 2.85-2.79 2.85h-4.806s-2.7-.043-2.7 2.624v4.41s-.41 2.668 4.896 2.668m-2.815-18.458c.482 0 .871.392.871.877a.872.872 0 1 1-1.743 0c0-.485.39-.877.872-.877m2.671-1.542c-5.077 0-4.76 2.214-4.76 2.214l.006 2.292h4.845v.689h-6.77s-3.249-.37-3.249 4.779c0 5.15 2.836 4.968 2.836 4.968h1.692v-2.39s-.091-2.85 2.791-2.85h4.805s2.7.043 2.7-2.624v-4.41s.41-2.668-4.896-2.668" transform="translate(-284 -7439)" fill="#000" fill-rule="evenodd"/></symbol><symbol id="figma" viewBox="0 0 256 256"><g opacity=".2"><circle cx="162" cy="128" r="34"/><path d="M94 94.001L128 94V26.001H94a34 34 0 0 0 0 68zM60 196a34 34 0 0 0 68 0v-34.001L94 162a34 34 0 0 0-34 34z"/></g><path d="M186.615 94A41.98 41.98 0 0 0 162 18.001H94a41.98 41.98 0 0 0-24.615 76 41.939 41.939 0 0 0 0 67.999A41.99 41.99 0 1 0 136 196v-35.052A41.974 41.974 0 1 0 186.615 94zM188 60.001a26.03 26.03 0 0 1-25.98 26L162 86l-.039.001L136 86V34.001h26a26.03 26.03 0 0 1 26 26zm-120 0a26.03 26.03 0 0 1 26-26h26V86H93.981A26.03 26.03 0 0 1 68 60.001zM68 128a26.03 26.03 0 0 1 25.981-26l.019.001h26v51.998L94 154a26.03 26.03 0 0 1-26-26zm26 93.999A26 26 0 1 1 94 170h26v26a26.03 26.03 0 0 1-26 25.999zM162 154a26 26 0 0 1-.039-51.999H162.02A26 26 0 0 1 162 154z"/></symbol><symbol id="github" viewBox="0 0 32 32"><g fill="none" fill-rule="evenodd"><path d="M0 0h32v32H0z"/><path d="M16 0c8.837 0 16 7.163 16 16s-7.163 16-16 16S0 24.837 0 16 7.163 0 16 0zm-.008 7.006A8.984 8.984 0 0 0 7 15.99a8.994 8.994 0 0 0 6.023 8.488c.472.118.4-.217.4-.446v-1.557c-2.727.32-2.837-1.485-3.02-1.786-.37-.631-1.243-.792-.982-1.093.62-.32 1.253.08 1.987 1.163.53.786 1.565.653 2.089.522.114-.472.36-.894.697-1.221-2.825-.506-4.002-2.23-4.002-4.279 0-.994.328-1.908.97-2.646-.41-1.215.039-2.256.099-2.41 1.167-.105 2.38.835 2.475.91.663-.18 1.42-.274 2.268-.274.852 0 1.611.099 2.28.28.227-.173 1.352-.98 2.437-.882.058.154.496 1.17.11 2.37.651.74.983 1.662.983 2.658 0 2.053-1.185 3.779-4.018 4.277.472.466.765 1.113.765 1.828v2.26c.016.181 0 .36.302.36 3.558-1.2 6.119-4.56 6.119-8.52 0-4.966-4.026-8.986-8.99-8.986z" fill="#000"/></g></symbol><symbol id="website" viewBox="0 0 256 256"><path d="M237 19H19c-8.2 0-14.9 6.7-14.9 14.9v188.3c0 8.2 6.7 14.9 14.9 14.9h218c8.2 0 14.9-6.7 14.9-14.9V33.9c0-8.2-6.7-14.9-14.9-14.9zm-37.2 9.9c5.4 0 9.9 4.5 9.9 9.9 0 5.5-4.5 9.9-9.9 9.9s-9.9-4.5-9.9-9.9 4.5-9.9 9.9-9.9zm-27.2 0c5.4 0 9.9 4.5 9.9 9.9 0 5.5-4.5 9.9-9.9 9.9s-9.9-4.5-9.9-9.9 4.4-9.9 9.9-9.9zm64.4 195H19V58.6h218v165.3zm-9.9-175.2c-5.4 0-9.9-4.5-9.9-9.9s4.5-9.9 9.9-9.9 9.9 4.5 9.9 9.9c0 5.5-4.5 9.9-9.9 9.9zM96 74h76.1v14.4H96V74zm30 32.9h96.3v14.3H126v-14.3zm0 28.6h96.3v14.3H126v-14.3zm0 29h96.3v14.3H126v-14.3zm-93.4 28.6h189.8v14.3H32.6v-14.3zm0-86.2h67.8v70.7H32.6v-70.7z"/></symbol><symbol id="academia" viewBox="0 0 512 512"><path d="M256 368a16 16 0 0 1-7.94-2.11L108 285.84a8 8 0 0 0-12 6.94V368a16 16 0 0 0 8.23 14l144 80a16 16 0 0 0 15.54 0l144-80a16 16 0 0 0 8.23-14v-75.22a8 8 0 0 0-12-6.94l-140.06 80.05A16 16 0 0 1 256 368z"/><path d="M495.92 190.5v-.11a16 16 0 0 0-8-12.28l-224-128a16 16 0 0 0-15.88 0l-224 128a16 16 0 0 0 0 27.78l224 128a16 16 0 0 0 15.88 0L461 221.28a2 2 0 0 1 3 1.74v144.53c0 8.61 6.62 16 15.23 16.43A16 16 0 0 0 496 368V192a14.76 14.76 0 0 0-.08-1.5z"/></symbol><symbol id="trabalho" viewBox="0 0 512 512"><path d="M0 197.76a554.667 554.667 0 0 0 170.667 36.907v42.666H256v-42.666a600.96 600.96 0 0 0 170.667-36.054v164.054H0V197.76zM277.333 0l21.334 21.333V64h128v111.147a605.227 605.227 0 0 1-204.374 38.186h-15.36A599.253 599.253 0 0 1 0 174.08V64h128V21.333L149.333 0h128zM256 42.667h-85.333V64H256V42.667z" transform="translate(42.667 64)" fill="#000" fill-rule="evenodd"/></symbol></defs></svg>