<svg version="1" xmlns="http://www.w3.org/2000/svg" width="64" height="46.667" viewBox="0 0 48.000000 35.000000"><path d="M7.2 2.2c-.5.7-1.3 3.9-1.7 7.1-.5 4.1-1.3 6-2.6 6.8-2.4 1.2-2.4 2.5 0 3.2 1.4.3 2 1.8 2.6 6.3.8 6.8 1.8 8.4 5.1 8.4 3 0 3.1-1.2.2-2.5-1.9-.8-2.4-1.9-2.6-6-.2-2.7-1-5.7-1.8-6.6-1.3-1.4-1.3-1.8 0-2.8.9-.8 1.6-3.4 1.8-6.4.2-4.3.7-5.4 2.6-6.2C12 3 13 2.2 13 1.8c0-1.3-4.7-.9-5.8.4zM35 1.7c0 .5 1 1.3 2.3 1.8 1.8.8 2.3 1.9 2.5 6 .2 2.7.9 5.7 1.7 6.5 1.1 1.3 1.1 1.8-.1 3.4-.8 1.1-1.4 3.9-1.4 6.2 0 3.5-.5 4.6-2.7 6.3l-2.8 2 2.6.1c3.7 0 4.9-1.9 5.6-8.6.5-4.4 1-5.8 2.5-6.2 2.4-.6 2.3-1.9-.2-3.2-1.5-.8-2-2.1-2-5.3 0-5.7-1.9-9.1-5.3-9.5-1.5-.2-2.7 0-2.7.5zM15 13.9c0 .5 1.6 1.9 3.6 3.2 4 2.4 4.1 2.2-2.1 6.3-1.1.8-1.7 1.7-1.2 2.2.8.8 8.8-4.4 9.4-6.1.1-.6-1.7-2.2-4.1-3.8-4.6-2.9-5.6-3.2-5.6-1.8zM27 25c0 .5 1.6 1 3.5 1s3.5-.5 3.5-1c0-.6-1.6-1-3.5-1s-3.5.4-3.5 1z"/></svg>